<svg id="curvas" xmlns="http://www.w3.org/2000/svg" viewBox="0 0 645.11 612.48"><defs><style>.cls-1{fill:#198836;}.cls-2{fill:#3f517f;}.cls-3{fill:#203058;}.cls-4{fill:#fff;}.cls-5{fill:#212c56;}.cls-6{fill:#ff0;}</style></defs><path class="cls-1" d="M553.41,274.22a167.57,167.57,0,0,1,28,130.38h98.77a268.1,268.1,0,0,0,2.08-33.36,263.94,263.94,0,0,0-44.12-146.49Z" transform="translate(-83.77 -60.52)"/><path class="cls-1" d="M392.91,588.19l-28-57.31A166.53,166.53,0,0,1,343.08,522l-54.95,18.67-38.69-30.84,19.82-59.15a167.73,167.73,0,0,1,.23-158.62l-19.77-57,33.87-34,59,20.3a165.75,165.75,0,0,1,22.62-9.24l27.72-57.1h48.23l27.71,57.08c4.41,1.43,8.75,3,13,4.79l74.6-71.36A263.92,263.92,0,0,0,417,106.06c-146.45,0-265.18,118.73-265.18,265.18S270.59,636.43,417,636.43a263.91,263.91,0,0,0,152.52-48.24Z" transform="translate(-83.77 -60.52)"/><circle class="cls-2" cx="332.72" cy="309.91" r="137.29"/><path class="cls-3" d="M573,60.65s-39.91-4-56.24,31.88-6.35,81.19-11.8,96.61-7.71,18.15-17.46,29.71S285,473.55,285,473.55s-14.51,23.58-29,29-36.59-3-54.73,9.37S155.52,576.06,174,621.72l21.77-44.15s5.6-13.76,15.12-14.36,20.11,3.93,34.33,17.39,18,16.48,17.38,30.39-3.32,34.83-16.18,62c0,0,26.77-4.42,45.21-25.89s20.57-55.34,20.87-63.5-3.93-33.57,1.21-47.78,3.32-10,16.63-28.12S541.08,254.31,541.08,254.31s14.67-19.58,31.9-25.93,41.28-.38,56.7-15.5,17.24-46.57,14.82-104l-18.14,34.77s-5.45,16.94-19.66,21.17S562,153.61,555.6,129.42,551.36,78.07,573,60.65Z" transform="translate(-83.77 -60.52)"/><path class="cls-4" d="M569.56,161.62c15.25,12.88,45.54,32.26,57.66,5.92a62.83,62.83,0,0,0,2.7-7.15l1.28-5c-6.61,40.94-40.11,26.52-61.64,6.19Z" transform="translate(-83.77 -60.52)"/><path class="cls-4" d="M551.66,81a74.34,74.34,0,0,0-23.48,31c-4.83,12.27-5.28,25.68-6.07,38.69s-.61,26.28-1.92,39.37c-.54,4.46-1.11,9.11-3,13.24-1.09,1.83-2.27,3.44-3.49,5.13-71.11,92.79-147.81,186.28-221,277.3-11.8,15.44-26.73,30.82-46.75,34.07-6.49,1.21-13.12,1-19.6,1.91-9.83,1.14-18.75,6.49-25.45,13.61s-10.9,16.9-10.51,26.78a36.41,36.41,0,0,1,4.63-18.91C201.22,532,213.26,523,226.2,521.4c6.53-.93,13.14-.79,19.58-2,9.73-1.61,18.67-6.31,26.27-12.49A95.14,95.14,0,0,0,286,493.07c10.79-13.48,104.15-129.66,117.17-145.94,33.77-42.47,77.64-96.15,110-139,1.89-2.69,4-5.22,4.72-8.44a59.07,59.07,0,0,0,1.73-9.63c1.35-13.06,1.27-26.23,2-39.33S523,124.24,528,112A74.45,74.45,0,0,1,551.66,81Z" transform="translate(-83.77 -60.52)"/><path class="cls-4" d="M267.71,593.3c8.6,19.79,7.87,44.4-4.83,62.29a69.77,69.77,0,0,0,3.73-7.18c7.88-17.22,7.35-37.46,1.1-55.11Z" transform="translate(-83.77 -60.52)"/><rect class="cls-5" y="226.94" width="645.11" height="154.93"/><polygon class="cls-4" points="122.21 269.77 122.21 263.47 105.83 263.47 89.42 263.47 89.42 269.77 89.42 282.38 84.44 282.38 84.44 288.66 89.42 288.66 89.42 322.69 89.42 328.96 105.83 328.96 122.17 328.96 122.17 322.69 105.83 322.69 105.83 288.66 122.21 288.66 122.21 282.38 105.83 282.38 105.83 269.77 122.21 269.77"/><rect class="cls-4" x="482.61" y="263.47" width="16.31" height="65.5"/><polygon class="cls-4" points="418.3 263.47 410.11 263.47 393.7 263.47 385.51 263.47 385.51 269.77 393.7 269.77 393.7 328.96 410.11 328.96 410.11 269.77 418.3 269.77 418.3 263.47"/><polygon class="cls-4" points="560.63 263.47 552.92 263.47 517.88 263.47 517.88 269.77 538.78 269.77 508.24 328.96 514.02 328.96 521.51 328.96 554.38 328.96 554.38 322.69 530.84 322.69 560.63 263.47"/><path class="cls-4" d="M296.73,324C281.41,324,269,338.65,269,356.74s12.41,32.75,27.73,32.75,27.73-14.66,27.73-32.75S312.05,324,296.73,324Zm0,60.48a17.65,17.65,0,0,1-8.84-2.42V331.44a17.76,17.76,0,0,1,8.84-2.42c12,0,21.72,12.41,21.72,27.73S308.72,384.47,296.73,384.47Z" transform="translate(-83.77 -60.52)"/><path class="cls-4" d="M436.82,324c-14.93,0-27,14.66-27,32.75s12.1,32.75,27,32.75,27-14.66,27-32.75S451.75,324,436.82,324Zm0,60.48a16.91,16.91,0,0,1-8.62-2.42V331.44a17,17,0,0,1,8.62-2.42c11.69,0,21.17,12.41,21.17,27.73S448.51,384.47,436.82,384.47Z" transform="translate(-83.77 -60.52)"/><path class="cls-4" d="M555,349.18A25.18,25.18,0,0,0,529.83,324H513.46v45.36h-5.07v5h5.07v15.13h16.31V374.36h.06c.59,0,1.17-.05,1.75-.09l10.81,15.22h8.05l-11.88-16.72A25.16,25.16,0,0,0,555,349.18Zm-26.47,20.15V329h1.28a20.15,20.15,0,1,1,0,40.29Z" transform="translate(-83.77 -60.52)"/><polygon class="cls-4" points="294.27 263.47 310.37 263.47 319.44 328.96 304.09 328.96 294.8 275.89 281.19 304.99 266.98 274 253.22 328.96 245.73 328.96 262.29 263.47 277.71 263.47 286.1 282.62 294.27 263.47"/><path class="cls-4" d="M247.5,329.62A27,27,0,0,1,264,335.26V328.5a32.74,32.74,0,1,0,0,56.5v-6.76a27,27,0,0,1-32.83.13V335.12A27,27,0,0,1,247.5,329.62Z" transform="translate(-83.77 -60.52)"/><rect class="cls-6" x="244.76" y="335.31" width="8.5" height="2.51"/><rect class="cls-4" x="239.4" y="335.31" width="6.29" height="30.21"/><rect class="cls-4" x="244.76" y="363.01" width="8.5" height="2.51"/><rect class="cls-4" x="236.87" y="355.44" width="16.39" height="2.51"/><polygon class="cls-4" points="265.86 363.01 265.86 335.31 259.57 335.31 259.57 365.52 264.93 365.52 265.86 365.52 273.42 365.52 273.42 363.01 265.86 363.01"/><rect class="cls-4" x="361.62" y="335.31" width="6.29" height="30.21"/><path class="cls-4" d="M301.74,395.83H291.67v2.51h3.78V426h6.29a15.11,15.11,0,1,0,0-30.21Zm0,27.69V398.33a12.6,12.6,0,1,1,0,25.19Z" transform="translate(-83.77 -60.52)"/><polygon class="cls-4" points="538.07 337.82 538.07 335.31 530.5 335.31 529.57 335.31 524.22 335.31 524.22 355.44 521.68 355.44 521.68 357.95 524.22 357.95 524.22 365.52 529.57 365.52 530.5 365.52 538.07 365.52 538.07 363.01 530.5 363.01 530.5 357.95 538.07 357.95 538.07 355.44 530.5 355.44 530.5 337.82 538.07 337.82"/><path class="cls-4" d="M583.93,395.83H573.85v2.51h3.79V426h6.29a15.11,15.11,0,0,0,0-30.21Zm0,27.69V398.33a12.6,12.6,0,1,1,0,25.19Z" transform="translate(-83.77 -60.52)"/><ellipse class="cls-4" cx="438.5" cy="363.02" rx="3.14" ry="2.52"/><ellipse class="cls-4" cx="594.09" cy="363.02" rx="3.14" ry="2.52"/><ellipse class="cls-4" cx="626.84" cy="363.02" rx="3.14" ry="2.52"/><path class="cls-4" d="M431.53,395.83V426c0,3.91-2.52,3.8-2.52,3.8H426.5v2.51H429c9.28,0,8.81-7.87,8.81-7.87V395.83Z" transform="translate(-83.77 -60.52)"/><path class="cls-4" d="M418.92,395.83a10.07,10.07,0,0,0-10.07,10.07V416h-3.79v2.51h3.79V426h2.51v-7.56h7.56V426h6.29V395.83ZM411.36,416V405.9a7.56,7.56,0,0,1,7.56-7.56V416Z" transform="translate(-83.77 -60.52)"/><path class="cls-4" d="M542.39,395.83a10.07,10.07,0,0,0-10.07,10.07V416h-3.78v2.51h3.78V426h2.51v-7.56h7.56V426h6.29V395.83ZM534.83,416V405.9a7.56,7.56,0,0,1,7.56-7.56V416Z" transform="translate(-83.77 -60.52)"/><path class="cls-4" d="M396.15,416.62a11.32,11.32,0,0,0-6.2-20.79h-7.56V416h-3.76v2.51h3.76V426h11.33a5,5,0,0,0,2.43-9.42Zm-7.47-18.28h1.26a8.82,8.82,0,1,1,0,17.63h-1.26Zm5,25.19h-5v-5h5a2.53,2.53,0,1,1,0,5Z" transform="translate(-83.77 -60.52)"/><path class="cls-4" d="M468.72,395.83c-5.9,0-10.68,6.76-10.68,15.11s4.78,15.1,10.68,15.1,10.68-6.76,10.68-15.1S474.62,395.83,468.72,395.83Zm0,27.71a5.9,5.9,0,0,1-3.17-1V399.3a5.89,5.89,0,0,1,3.17-1c4.58,0,8.29,5.64,8.29,12.6S473.3,423.54,468.72,423.54Z" transform="translate(-83.77 -60.52)"/><path class="cls-4" d="M511.47,395.14s-9.4,2.66-9.4,10.9c0,7.18,4.88,9.3,4.88,13.68s-3.52,5.14-3.52,5.14l1.29,2.57s8.69-2.42,8.69-10.43-5-10.74-5-14.52c0-3.4,3.89-4.14,3.89-4.14Z" transform="translate(-83.77 -60.52)"/><path class="cls-4" d="M701.19,395.83V416a7.58,7.58,0,0,1-7.58,7.58V395.83h-6.29V426h4.31v0h2A10.09,10.09,0,0,0,703.7,416V395.83Z" transform="translate(-83.77 -60.52)"/><path class="cls-4" d="M668.41,421a12.39,12.39,0,0,1-15.12,0V400.87a12.39,12.39,0,0,1,15.12,0v-3a15.11,15.11,0,1,0,0,26.1Z" transform="translate(-83.77 -60.52)"/></svg>