<svg id="curvas" xmlns="http://www.w3.org/2000/svg" viewBox="0 0 575.56 546.45"><defs><style>.cls-1{fill:#fff;}</style></defs><path class="cls-1" d="M585,315.63a236.18,236.18,0,0,0-25.93-51.95l-75.57,44.13q2.75,3.82,5.23,7.82Z" transform="translate(-64.48 -117.16)"/><path class="cls-1" d="M407.93,414.55a5.25,5.25,0,0,0-2.83.86v20.76a5.25,5.25,0,0,0,2.83.86c4.08,0,7.39-5,7.39-11.24S412,414.55,407.93,414.55Z" transform="translate(-64.48 -117.16)"/><path class="cls-1" d="M381.47,343.64a15.17,15.17,0,0,0-7.69,2.16V391a15.07,15.07,0,0,0,7.69,2.16c10.43,0,18.88-11.08,18.88-24.74S391.9,343.64,381.47,343.64Z" transform="translate(-64.48 -117.16)"/><path class="cls-1" d="M466.9,421.3v9h6.75V414.55A6.75,6.75,0,0,0,466.9,421.3Z" transform="translate(-64.48 -117.16)"/><path class="cls-1" d="M356.74,421.3v9h6.75V414.55A6.75,6.75,0,0,0,356.74,421.3Z" transform="translate(-64.48 -117.16)"/><path class="cls-1" d="M275.85,368.38c0-13.66-8.67-24.74-19.37-24.74a15.9,15.9,0,0,0-7.89,2.16V391a15.8,15.8,0,0,0,7.89,2.16C267.18,393.12,275.85,382,275.85,368.38Z" transform="translate(-64.48 -117.16)"/><path class="cls-1" d="M337.64,414.55h-1.12v15.73h1.12a7.87,7.87,0,0,0,0-15.73Z" transform="translate(-64.48 -117.16)"/><path class="cls-1" d="M464.44,343.67h-1.15v35.94h1.15a18,18,0,1,0,0-35.94Z" transform="translate(-64.48 -117.16)"/><path class="cls-1" d="M64.48,319.63V457.86H640V319.63Zm111,25.15H160.9V356h14.61v5.61H160.9V392h14.57v5.6H146.26V361.64h-4.45V356h4.45V339.16h29.25Zm51.77,4.43a24,24,0,0,0-29.28-.12v38.59a24.07,24.07,0,0,0,29.28-.13v6a29.23,29.23,0,1,1,0-50.41Zm4.46,19.17c0-16.14,11.07-29.22,24.74-29.22s24.74,13.08,24.74,29.22-11.08,29.21-24.74,29.21S231.74,384.51,231.74,368.38ZM259,439.27h-5.61V414.55H250v-2.24h9a13.48,13.48,0,1,1,0,27Zm31.48-24.72h-6.75v15.73h6.75v2.24h-6.75V437h6.75v2.24H278.07v-6.75h-2.26v-2.24h2.26v-18h12.36Zm18,24.72H296.06v-27h5.61V437h6.75Zm-3.75-90.72-12.28,49h-6.67l14.77-58.43h13.76l7.48,17.08L329,339.16h14.37l8.09,58.43H337.79l-8.3-47.35-12.14,26Zm40.84,86.22a4.5,4.5,0,0,1-4.5,4.5h-10.1v-6.75h-3.37v-2.24h3.37v-18h6.74a10.09,10.09,0,0,1,5.52,18.55A4.46,4.46,0,0,1,345.51,434.77Zm23.59,4.5h-5.61v-6.75h-6.75v6.75h-2.23v-6.75h-3.38v-2.24h3.38v-9a9,9,0,0,1,9-9h5.61Zm3.39,5.62h-2.23v-2.23h2.23s2.26.09,2.26-3.39v-27h5.61v25.57S380.77,444.89,372.49,444.89Zm20.23-5.62h-5.61v-27h5.61Zm-11.25-41.68c-13.32,0-24.12-13.08-24.12-29.21s10.8-29.22,24.12-29.22,24.12,13.08,24.12,29.22S394.79,397.59,381.47,397.59Zm26.46,41.68c-5.27,0-9.53-6-9.53-13.48s4.26-13.48,9.53-13.48,9.53,6,9.53,13.48S413.19,439.27,407.93,439.27Zm24.44-41.68H417.73V344.78h-7.3v-5.62h29.25v5.62h-7.31ZM440,440.51l-1.15-2.3s3.14-.67,3.14-4.58-4.35-5.8-4.35-12.21c0-7.35,8.38-9.72,8.38-9.72l.73,2.85s-3.47.66-3.47,3.7c0,3.37,4.48,5.8,4.48,12.95S440,440.51,440,440.51Zm15.67-1.23A2.3,2.3,0,1,1,458.5,437,2.56,2.56,0,0,1,455.71,439.28Zm23.55,0h-5.61v-6.75H466.9v6.75h-2.23v-6.75h-3.38v-2.24h3.38v-9a9,9,0,0,1,9-9h5.61Zm3.58-41.68h-7.19L466,384c-.52,0-1,.08-1.56.08h-.06v13.49H449.84V384.1h-4.52v-4.48h4.52V339.16h14.61a22.46,22.46,0,0,1,7.79,43.52Zm14.22-58.43h14.55v58.43H497.06Zm13.65,100.11H505.1V414.55h-3.38v-2.24h9a13.48,13.48,0,0,1,0,27Zm33.82-24.72h-6.74v15.73h6.74v2.24h-6.74V437h6.74v2.24H532.18v-6.75h-2.27v-2.24h2.27v-18h12.35Zm16.56-17H519.92l27.25-52.81H528.52v-5.62h38.14L540.08,392h21Zm25,19.25a11.06,11.06,0,0,0-13.49,0v17.95a11.06,11.06,0,0,0,13.49,0v2.7a13.48,13.48,0,1,1,0-23.29Zm8.44,22.44a2.3,2.3,0,1,1,2.8-2.25A2.56,2.56,0,0,1,594.52,439.28Zm23.05-9a9,9,0,0,1-9,9H603v-27h5.61v24.74a6.77,6.77,0,0,0,6.77-6.77v-18h2.24Zm6.17,9a2.3,2.3,0,1,1,2.8-2.25A2.56,2.56,0,0,1,623.74,439.28Z" transform="translate(-64.48 -117.16)"/><path class="cls-1" d="M341,432.52h-4.49V437H341a2.26,2.26,0,1,0,0-4.51Z" transform="translate(-64.48 -117.16)"/><path class="cls-1" d="M259,414.54V437a11.24,11.24,0,0,0,0-22.48Z" transform="translate(-64.48 -117.16)"/><path class="cls-1" d="M510.71,414.54V437a11.24,11.24,0,1,0,0-22.48Z" transform="translate(-64.48 -117.16)"/><path class="cls-1" d="M394.53,315.63c14.78-18.55,29-36.45,42-53.1,4.63-6.07,9.54-12,13.73-18.36a29.35,29.35,0,0,0,2-7.19c2.73-18.81,1.4-38,4.09-56.9a71,71,0,0,1,3.4-15,66.59,66.59,0,0,1,22.1-29.59,66.33,66.33,0,0,0-21.61,29.76,70.58,70.58,0,0,0-3.17,14.95c-2.11,17.48-1.29,35.12-2.94,52.64-.47,4-1,8.22-2.71,12l-.61,1c-4.09,6.11-8.69,11.86-13.12,17.72q-20.2,26-40.92,52.16H451l21.45-25.58s13.09-17.47,28.47-23.13,36.82-.34,50.58-13.83,15.38-41.55,13.22-92.81l-16.18,31s-4.86,15.1-17.54,18.88a16.6,16.6,0,0,1-4.72.62c-13.75,0-35.84-13-40.88-32.18-5.66-21.59-3.77-45.82,15.52-61.36,0,0-1.17-.11-3.17-.11-9,0-35.08,2.37-47,28.55-14.57,32-5.67,72.44-10.53,86.2s-6.88,16.19-15.58,26.51C422,261.64,403.3,285,379,315.63ZM550,210.45a63.75,63.75,0,0,0,2.91-8.62,51,51,0,0,1-2,9c-9.41,27.77-39.12,11-53-3.44C512.92,218.89,539.44,236.11,550,210.45Z" transform="translate(-64.48 -117.16)"/><path class="cls-1" d="M279.48,461.86q-15.63,19.29-31.13,38.38c-6.31,8.14-13.75,15.54-22.64,20.87-22.25,13.48-37-.63-56.73,19.77-6,6.37-9.77,15-9.46,23.82-.43-8.84,3.29-17.58,9.19-24.07,19.51-20.75,34.67-7.09,56.42-20.49,8.71-5.3,16-12.68,22.16-20.76,9.53-11.95,19.6-24.53,30-37.52H262.83L244,485.65s-12.95,21-25.9,25.9c-4.42,1.66-9.62,1.87-15.2,1.87-1.93,0-3.9,0-5.9,0-9.19,0-19,.54-27.73,6.52C153.05,531,128.5,577.11,145,617.85l19.43-39.39s5-12.28,13.49-12.82c.49,0,1,0,1.48,0,8.12,0,17.19,4.24,29.14,15.56,12.68,12,16,14.7,15.51,27.11s-3,31.08-14.43,55.34c0,0,23.88-3.94,40.33-23.1s18.35-49.37,18.62-56.65-3.51-30,1.08-42.63,3-8.9,14.84-25.09c3.49-4.76,21.19-26.28,44.44-54.28ZM224.27,648.07c9.45-16.93,10-37.32,4.32-55.58C237.05,609.87,236.34,632.52,224.27,648.07Z" transform="translate(-64.48 -117.16)"/><path class="cls-1" d="M315.27,536.8a147.9,147.9,0,0,1-19.44-7.91l-19.89,6.76c-.57,1.37-1.18,3.06-2.05,5.47l-.53,1.47c-3,8.37-2,22.55-1.29,31.94.29,4,.53,7.24.45,9.47a131.39,131.39,0,0,1-4.17,27.78,236.88,236.88,0,0,0,229.54-23.84H340.28Z" transform="translate(-64.48 -117.16)"/><path class="cls-1" d="M167,516.61c9.74-6.66,20.59-7.22,30-7.22l3,0h2.87c5.29,0,9.35-.23,12.72-1.26L230,465.26c-.6-1.12-1.18-2.26-1.76-3.4H135a235.47,235.47,0,0,0,26.88,59A37.55,37.55,0,0,1,167,516.61Z" transform="translate(-64.48 -117.16)"/><path class="cls-1" d="M212.54,272.92l30.21-30.29,52.62,18.11a149.52,149.52,0,0,1,20.18-8.25l24.73-50.93h43L408,252.48c3.93,1.28,7.81,2.69,11.59,4.28l6-5.74c5.19-6.36,7.06-9.72,10.84-20.44,1.55-4.38,1.48-12.92,1.4-22.81-.08-10.67-.19-23.68,1.74-36.89a236.21,236.21,0,0,0-77.79-13.1c-103.06,0-190.71,65.9-223.15,157.85h88.69Z" transform="translate(-64.48 -117.16)"/><path class="cls-1" d="M403.34,278.57A122.57,122.57,0,0,0,266.9,315.63H373.83C385.14,301.42,395.3,288.65,403.34,278.57Z" transform="translate(-64.48 -117.16)"/><path class="cls-1" d="M301.91,500.77a122.52,122.52,0,0,0,161.17-38.91h-129C321.35,477.19,310.18,490.69,301.91,500.77Z" transform="translate(-64.48 -117.16)"/></svg>