<svg id="Layer_1" data-name="Layer 1" xmlns="http://www.w3.org/2000/svg" viewBox="0 0 600 600"><defs><style>.cls-1{fill:#a7a8a9;}.cls-2{fill:#898a8d;}.cls-3{fill:#54565a;}.cls-4{fill:#101820;}</style></defs><path class="cls-1" d="M70.79,243.74l52.51,4.08s2.77.21,3.39,2a1.91,1.91,0,0,1-.28,2,3.8,3.8,0,0,1-2.85,1c-1.62-.14-3.4-.34-4.82.62a8.68,8.68,0,0,0-2.29,2.39,11.87,11.87,0,0,0-.87,1.61,8.94,8.94,0,0,0-.73,3.64,20.48,20.48,0,0,0,.2,2.24l.59,2.64,1.06,3.78,5.57,16.35,11,29.23,7.43,18.91a30,30,0,0,0,3.15,6.21,20.2,20.2,0,0,0,4.53,4.65A29.69,29.69,0,0,0,154,347.7a35.94,35.94,0,0,0,6.59,1.81,28.65,28.65,0,0,0,4.13.44l-57.28-1.11s11-1.81,13.86-6.06c0,0,2.08-2.65,1.1-5.07s-31.62-78.38-31.62-78.38-2.23-4.86-6.16-6.55S70,249.16,70,249.16s-2.89-.9-3.17-3.23,3.37-2.23,3.37-2.23Z"/><path class="cls-2" d="M152.89,373.26,98.94,371s-5.22-1.65-2-6.92,10.41-15.2,10.41-15.2L164.67,350s6.66,1.73,1.41,9.32L165,361c-.68,1-1.37,2-2,3-1.13,1.65-2.3,3.27-3.42,4.92-1.25,1.84-2.44,3.54-4.69,4.15A6.4,6.4,0,0,1,152.89,373.26Z"/><polygon class="cls-2" points="67.24 244.57 67.24 244.56 67.23 244.57 67.24 244.57"/><path class="cls-2" d="M121.25,342.78s2.08-2.65,1.1-5.07-31.62-78.38-31.62-78.38-2.23-4.86-6.16-6.55c-3.18-1.37-10.76-2.89-13.55-3.42h0l-1-.2s-2.89-.9-3.17-3.23a1.66,1.66,0,0,1,.09-.82l-10.34,16s-2.41,4.21,1.33,5.52,18.68,2.69,21.61,11,27.9,71.2,27.9,71.2S118.39,347,121.25,342.78Z"/><path class="cls-2" d="M124.63,252.75a3.81,3.81,0,0,1-1.07.07c-1.62-.14-3.4-.34-4.82.62a8.68,8.68,0,0,0-2.29,2.39,11.87,11.87,0,0,0-.87,1.61,8.94,8.94,0,0,0-.73,3.64,20.48,20.48,0,0,0,.2,2.24l.59,2.64.39,1.4,10.62-15.84,0,0a1.21,1.21,0,0,1-.2.3A3.79,3.79,0,0,1,124.63,252.75Z"/><path class="cls-3" d="M100.72,336.27s-4,5.88-20.08,9.5l-2.27,4L91.1,361.37l2.71-5.56,9.77-1.6,0-.06c2.1-3,3.77-5.31,3.77-5.31s-2.36-5.93-5.71-14.39Z"/><path class="cls-2" d="M103.58,354.22h0l-9.76,1.57-2.72,5.59,7.73-.2C100.31,358.92,102.05,356.41,103.58,354.22Z"/><path class="cls-3" d="M194.06,242.06c-.17,2.59-2.58,30.4-27.45,34.73l-6.18,14.57a6.41,6.41,0,0,1,1.16,0c4.52,0,9.07.11,13.6,0s9.44-3,13.19-5.43c7.38-4.84,18.38-16.29,19.25-30.85C208.32,243.44,195.65,242.17,194.06,242.06Z"/><path class="cls-3" d="M176.51,296.68l-.32,0a50.42,50.42,0,0,1-8.58,26.18c-7.84,11.24-19.81,17.79-22.5,19.17a15.08,15.08,0,0,0,3.28,3.1A29.69,29.69,0,0,0,154,347.7a35.94,35.94,0,0,0,6.59,1.81,28.19,28.19,0,0,0,3.9.42c-.42-.92,22.36-15.17,27-37C194.42,299,176.51,296.68,176.51,296.68Z"/><path class="cls-2" d="M226.14,239.56s-75.55-.28-77.49.46c-.86.32-3,3.93.66,6.45,1,.71,2.43.6,3.68.62,1.48,0,3.41-.12,4.31,1.27,1.85,2.88-1.58,9.8-1.58,9.8l-24.27,52.28,2.66,7,6.6,16.8s.14.36.37.92a8.67,8.67,0,0,1,.54-4.56c2.31-4.77,14.45-30.38,14.47-30.41,1.6-3.39,5.45-3.69,8.69-3.65,3,0,6,0,9,0a24.25,24.25,0,0,1,2.69.15s17.91,2.35,14.94,16.24c-4.65,21.84-27.44,36.09-27,37l.23,0,.08,0c.66.2,5.43,1.9,2.27,7.77a1.4,1.4,0,0,0-.09.17c-.17.31-.39.64-.6,1-.09.14-.15.26-.24.39,5.34-.12,9.35-.09,10.85-.2,10.15-.76,25-7.62,36.2-33.89,9.41-22.18-9.94-30.27-11.74-30.73-1.3-.33-8.08-1.16,1.62-4.39s22.73-16.85,26.19-32.19S226.14,239.56,226.14,239.56Zm-37.76,46.36c-3.75,2.46-8.59,5.31-13.19,5.43s-9.08,0-13.6,0a6.41,6.41,0,0,0-1.16,0l6.24-14.69,12.8-27.7c.31-.77,2.14-6.64,6.47-6.92,6.62-.43,8,0,8,0s14.47.61,13.73,13C206.76,269.63,195.76,281.08,188.38,285.92Z"/><path class="cls-3" d="M157.3,248.36c-.9-1.39-2.83-1.25-4.31-1.27-1.25,0-2.66.09-3.68-.62-3.66-2.52-1.52-6.13-.66-6.45,1.94-.74,77.49-.46,77.49-.46l-17.72-12a5.9,5.9,0,0,0-2.84-.79l-71.69,1.5H133s-2,.35-2,2.1a4.35,4.35,0,0,0,1.88,3.37l1.08.7c1.62,1,3.24,2,4.84,3.1.91.6,1.87,1.14,2.79,1.74a3.47,3.47,0,0,1,1.35,1.22,4.33,4.33,0,0,1-.38,3.35l-19.7,43.72,8.64,22.91,24.27-52.28S159.15,251.24,157.3,248.36Z"/><rect class="cls-4" x="251.16" y="286.9" width="12.88" height="38.89"/><path class="cls-4" d="M292.53,286.14q-8,0-11.11,3.05V286.9H268.7v38.89h12.88V299.11a6.76,6.76,0,0,1,.45-2.94,2.3,2.3,0,0,1,1.56-1.07,19.46,19.46,0,0,1,4.63-.4,11.32,11.32,0,0,1,3.61.42,1.86,1.86,0,0,1,1.2,1.06,8.48,8.48,0,0,1,.37,2.93v26.68h12.88V297.65c0-3.92-1.07-6.85-3.16-8.73S297.55,286.14,292.53,286.14Z"/><path class="cls-4" d="M350.25,298.34a10.11,10.11,0,0,0,2.43-2,6.64,6.64,0,0,0,1.86-4.47v-6.15a11.66,11.66,0,0,0-1.77-6.83,10.31,10.31,0,0,0-6-3.62,45.94,45.94,0,0,0-11.25-1.07H314.5v51.58h21.6c6.87,0,12-.89,15.38-2.64,3.51-1.83,5.28-5,5.28-9.34v-7.7a7.3,7.3,0,0,0-2.69-5.49A10.59,10.59,0,0,0,350.25,298.34Zm-8.89-8a6.4,6.4,0,0,1-.43,2.68,2.17,2.17,0,0,1-1.4,1.08,13.65,13.65,0,0,1-4,.42h-7.42V284.39h7.18a18,18,0,0,1,4.29.36,2.06,2.06,0,0,1,1.38.86,5.17,5.17,0,0,1,.37,2.27Zm-13.22,13.6h9.34c2.75,0,4,.53,4.52,1a4,4,0,0,1,1.12,3.28v4a2.59,2.59,0,0,1-1.41,2.51c-1.11.6-3.07.9-5.84.9h-7.73Z"/><polygon class="cls-4" points="373.15 274.21 359.51 274.21 359.51 325.79 397.7 325.79 397.7 315.6 373.15 315.6 373.15 274.21"/><path class="cls-4" d="M442.18,277.57a24.61,24.61,0,0,0-6.32-2.72,41.21,41.21,0,0,0-6-1.14c-1.76-.18-3.86-.27-6.24-.27-2,0-4,.08-5.76.23a32,32,0,0,0-6.47,1.27,23.66,23.66,0,0,0-5.91,2.55A13.87,13.87,0,0,0,401,282.4a14,14,0,0,0-1.76,7v21.85a13.25,13.25,0,0,0,2.47,8.07,13.79,13.79,0,0,0,6.77,4.79,43.43,43.43,0,0,0,7.42,1.88,52.16,52.16,0,0,0,7.78.55,42.73,42.73,0,0,0,15.85-2.83,14.33,14.33,0,0,0,6.4-4.82,12.7,12.7,0,0,0,2.35-7.64V289.42a14,14,0,0,0-1.81-7.26A13.49,13.49,0,0,0,442.18,277.57Zm-18.38,38.8a40.69,40.69,0,0,1-4.18-.18,20.66,20.66,0,0,1-3.44-.71,4.71,4.71,0,0,1-2.5-1.52,4.23,4.23,0,0,1-.82-2.69V289.34a4.44,4.44,0,0,1,2.4-4.35c1.76-.9,4.62-1.37,8.47-1.37s6.69.48,8.46,1.41a4.44,4.44,0,0,1,2.41,4.31v21.93a4,4,0,0,1-3.18,4.21,20.45,20.45,0,0,1-3.44.71A40.29,40.29,0,0,1,423.8,316.37Z"/><path class="cls-4" d="M476.59,316.37c-11.57,0-11.57-4.47-11.57-5.95V289.19c0-2.48,1-4,3.07-4.69a12.7,12.7,0,0,1,3.08-.73c1-.1,2.48-.15,4.34-.15a67.77,67.77,0,0,1,15.5,2.13l1,.25V275.26l-.69-.12a100.89,100.89,0,0,0-16-1.7c-15.92,0-24,5.35-24,15.9v21.93a13.27,13.27,0,0,0,5.83,11.27,21,21,0,0,0,6.08,2.52,40.27,40.27,0,0,0,5.93,1.18,53.68,53.68,0,0,0,6.14.32,81.71,81.71,0,0,0,16.32-1.71l.65-.14V313.93l-1,.23A70.43,70.43,0,0,1,476.59,316.37Z"/><polygon class="cls-4" points="522.57 298.28 542.17 274.21 525.97 274.21 508.18 296.54 508.18 274.21 494.53 274.21 494.53 325.79 508.18 325.79 508.18 300.52 527.49 325.79 544.22 325.79 522.57 298.28"/></svg>