<svg id="Layer_1" data-name="Layer 1" xmlns="http://www.w3.org/2000/svg" viewBox="0 0 600 600"><defs><style>.cls-1{fill:#101820;}</style></defs><path class="cls-1" d="M155.69,187.22l103.7,8.06s5.47.41,6.72,3.9a3.81,3.81,0,0,1-.59,4A7.42,7.42,0,0,1,262,205a7.79,7.79,0,0,1-2.1.13c-3.21-.27-6.71-.66-9.53,1.24a17,17,0,0,0-4.51,4.72,21.76,21.76,0,0,0-1.73,3.18,17.55,17.55,0,0,0-1.44,7.18,39.21,39.21,0,0,0,.39,4.44l1.17,5.21,2.1,7.46,11,32.28,21.75,57.73,14.67,37.34s3.18,8.46,6.22,12.26c2.67,3.35,5.29,6.83,8.93,9.19a58.25,58.25,0,0,0,11,5.15,71.72,71.72,0,0,0,13,3.57,54.29,54.29,0,0,0,8.16.87L228,394.78s21.72-3.59,27.39-12c0,0,4.09-5.22,2.15-10L195.09,218s-4.41-9.59-12.18-12.94-28.84-7.13-28.84-7.13-5.69-1.79-6.25-6.39,6.66-4.41,6.66-4.41Z"/><path class="cls-1" d="M344.18,403.56a6.18,6.18,0,0,0-3.64-3.21l-110.85-2.13c-3.38,4.71-14.08,19.79-19.37,28.36-1,1.62-2.07,3.93-1.4,5.69a5.76,5.76,0,0,0,3.07,2.8l106,4.52h.5a9.25,9.25,0,0,0,2.41-.3c3.1-.85,4.85-3.14,7.34-6.82,1.11-1.63,2.23-3.24,3.35-4.85s2.28-3.24,3.38-4.88c.75-1.07,1.48-2.13,2.22-3.2l1.76-2.56,2-3.37.05-.1.08-.09C344,409.27,345,405.86,344.18,403.56Z"/><path class="cls-1" d="M319.36,443l.6,0Z"/><path class="cls-1" d="M254.36,374.07c-1.94-4.79-62.41-154.74-62.43-154.78S188,211,181.56,208.2c-6.11-2.63-21.47-5.66-26-6.53l-2-.38-.23,0-.21-.07a14.51,14.51,0,0,1-5.91-3.69l-16.65,25.8c-.52,1-1.38,3.27-.87,4.62.09.22.31.83,1.71,1.32s3.78,1,6.58,1.64c12.32,2.74,33,7.3,38.17,22.15s46.88,119.91,54,137.89c8-1.67,19.29-5.37,22.43-10l.08-.1.07-.1S255.5,376.89,254.36,374.07Z"/><path class="cls-1" d="M246.51,225.56,258,208.4c-.66-.05-1.3-.08-1.92-.08a6.57,6.57,0,0,0-3.81.88,13.54,13.54,0,0,0-3.58,3.77,18.44,18.44,0,0,0-1.44,2.67,14.19,14.19,0,0,0-1.15,5.72,37.4,37.4,0,0,0,.32,3.9Z"/><path class="cls-1" d="M216.7,366.36l-1.89,3.6s-7.88,11.6-39.65,18.75l-4.49,8,25.14,22.82s5.9-.12,15.27-.4c2.92-4.42,6.35-9.4,9.37-13.71v0l.08-.11c4.13-5.91,7.43-10.49,7.43-10.49Z"/><path class="cls-1" d="M422.53,209.39c1-16.1-13.18-20.5-20.34-21.69a101.44,101.44,0,0,1-8.8,30.67c-9.64,20.19-25.54,33-46.05,37.13l-9.49,22.37,6.32,0c2.78,0,5.56,0,8.35,0,3.54,0,6.49,0,9.26-.11,8-.21,16.77-5.26,24.26-10.16C398.8,259.3,420.84,237.59,422.53,209.39Z"/><path class="cls-1" d="M333.3,281.21h-.14c.42,0,1,0,1.42,0C334.22,281.23,333.71,281.21,333.3,281.21Z"/><path class="cls-1" d="M332.72,281.27s.15,0,.33,0C332.87,281.22,332.73,281.24,332.72,281.27Z"/><path class="cls-1" d="M335.78,281.27H335c4.69,0,9.41,0,14.11.07C344.66,281.32,340.21,281.27,335.78,281.27Z"/><path class="cls-1" d="M367,295.71c-.77,9.84-4,30.51-17.34,49.63s-32.37,31.51-41.78,36.83a19.1,19.1,0,0,0,2.87,2.35,56.9,56.9,0,0,0,10.34,4.82,67.59,67.59,0,0,0,12.39,3.39,51.78,51.78,0,0,0,5.54.7c1-1,2.39-2.15,4.22-3.67,11-9.23,40.38-33.75,47.39-66.63,1.3-6.09.44-11.17-2.63-15.5C382.72,300.1,372.2,296.88,367,295.71Z"/><path class="cls-1" d="M323.67,198.18c-.59-.92-2.9-.92-4.75-.93l-1,0H317c-2.49,0-5.58,0-8.22-1.81-5.45-3.77-5.77-8.51-5.47-11,.43-3.5,2.54-6.82,4.9-7.72,1.21-.47,3.24-1.24,94.88-1.24,19.4,0,37.26,0,48.21.07L425.58,158a8.38,8.38,0,0,0-3.69-1l-141.52,3h-1.48c-.32.1-1,.36-1,.72a5,5,0,0,0,2.17,3.83l.23.16c.62.4,1.23.8,1.86,1.19l.79.51c2.94,1.87,5.89,3.73,8.8,5.65.86.57,1.75,1.11,2.65,1.65s1.92,1.17,2.88,1.79l.24.16a8.81,8.81,0,0,1,3.67,3.76c1.65,3.9-.17,8-.77,9.33-.43.93-33.51,74.38-38.33,85.06l13.71,36.35,44.52-95.89C322.85,209.18,325.37,200.82,323.67,198.18Z"/><path class="cls-1" d="M462.47,179s-149.18-.55-153,.91c-1.71.66-5.91,7.78,1.28,12.76,2,1.39,4.82,1.18,7.28,1.21,2.93,0,6.75-.24,8.52,2.52,3.64,5.68-3.12,19.36-3.12,19.36l-45.66,98.35,17.64,45.18c.07-.16.11-.35.17-.51,4.57-9.4,28.53-60,28.58-60.06,3.16-6.68,10.75-7.27,17.16-7.21,5.95.07,11.9,0,17.84,0a49.91,49.91,0,0,1,5.32.29s35.37,4.66,29.52,32.08c-9.2,43.13-54.2,71.26-53.35,73.09l.46,0,.15,0c1.29.39,10.71,3.75,4.47,15.35-.05.11-.1.22-.16.33-.34.6-.77,1.26-1.2,1.91-.17.26-.28.49-.47.76,10.55-.25,18.48-.19,21.42-.4,20.05-1.48,49.45-15,71.49-66.91,18.6-43.81-19.62-59.8-23.17-60.71-2.58-.65-16-2.27,3.18-8.65s44.89-33.27,51.73-63.58S462.47,179,462.47,179ZM387.9,270.53c-7.4,4.85-17,10.48-26,10.71s-29.09-.1-29.15,0l12.32-29,25.29-54.7c.6-1.52,4.22-13.11,12.76-13.67,13.07-.85,15.72,0,15.72,0s28.57,1.22,27.11,25.71C424.21,238.34,402.47,261,387.9,270.53Z"/></svg>