<svg id="Layer_1" data-name="Layer 1" xmlns="http://www.w3.org/2000/svg" viewBox="0 0 600 600"><defs><style>.cls-1{fill:#fff;}</style></defs><rect class="cls-1" x="250.65" y="286.88" width="12.89" height="38.96"/><path class="cls-1" d="M292.09,286.11c-5.37,0-9.09,1-11.13,3.06v-2.29H268.22v39h12.9V299.11a6.82,6.82,0,0,1,.45-2.95,2.27,2.27,0,0,1,1.56-1.07,19.56,19.56,0,0,1,4.64-.4,11.28,11.28,0,0,1,3.61.42,1.88,1.88,0,0,1,1.21,1.06,8.56,8.56,0,0,1,.36,2.94v26.73h12.91V297.65c0-3.93-1.07-6.87-3.17-8.75S297.11,286.11,292.09,286.11Z"/><path class="cls-1" d="M349.91,298.33a9.88,9.88,0,0,0,2.43-2,6.67,6.67,0,0,0,1.87-4.47V285.7a11.59,11.59,0,0,0-1.78-6.83,10.22,10.22,0,0,0-6-3.64,46.07,46.07,0,0,0-11.27-1.07H314.1v51.68h21.63c6.89,0,12.07-.89,15.41-2.65,3.52-1.84,5.29-5,5.29-9.36v-7.71a7.31,7.31,0,0,0-2.69-5.5A10.74,10.74,0,0,0,349.91,298.33Zm-8.91-8a6.49,6.49,0,0,1-.43,2.69,2.2,2.2,0,0,1-1.4,1.08,13.73,13.73,0,0,1-4,.42h-7.43V284.37H335a18.82,18.82,0,0,1,4.29.35,2.09,2.09,0,0,1,1.38.86,5.07,5.07,0,0,1,.37,2.28Zm-13.24,13.62h9.35c2.76,0,4,.53,4.53,1a4.05,4.05,0,0,1,1.13,3.29v4a2.61,2.61,0,0,1-1.42,2.52c-1.11.6-3.08.9-5.85.9h-7.74Z"/><polygon class="cls-1" points="372.85 274.16 359.19 274.16 359.19 325.83 397.44 325.83 397.44 315.63 372.85 315.63 372.85 274.16"/><path class="cls-1" d="M442,277.53a24.27,24.27,0,0,0-6.32-2.72,40.36,40.36,0,0,0-6-1.14,59.56,59.56,0,0,0-6.25-.28c-2,0-4,.08-5.77.23a32.13,32.13,0,0,0-6.48,1.27,24,24,0,0,0-5.92,2.56,14,14,0,0,0-4.55,4.91,14.13,14.13,0,0,0-1.77,7v21.89a13.2,13.2,0,0,0,2.48,8.08,13.73,13.73,0,0,0,6.78,4.8,41.84,41.84,0,0,0,7.44,1.88,50.94,50.94,0,0,0,7.79.56,42.6,42.6,0,0,0,15.87-2.84,14.41,14.41,0,0,0,6.42-4.83,12.73,12.73,0,0,0,2.35-7.65V289.4a14.07,14.07,0,0,0-1.81-7.28A13.52,13.52,0,0,0,442,277.53ZM423.59,316.4a37.93,37.93,0,0,1-4.19-.19,20.91,20.91,0,0,1-3.45-.7,4.72,4.72,0,0,1-2.5-1.53,4.21,4.21,0,0,1-.82-2.69v-22A4.42,4.42,0,0,1,415,285c1.77-.91,4.63-1.38,8.49-1.38s6.71.48,8.47,1.41a4.47,4.47,0,0,1,2.42,4.32v22a4.29,4.29,0,0,1-.8,2.7,4.4,4.4,0,0,1-2.39,1.52,20.6,20.6,0,0,1-3.44.7A37.44,37.44,0,0,1,423.59,316.4Z"/><path class="cls-1" d="M476.47,316.4c-11.59,0-11.59-4.48-11.59-6V289.17c0-2.49,1-4,3.08-4.7a12.21,12.21,0,0,1,3.08-.72c1-.11,2.48-.16,4.35-.16a67.59,67.59,0,0,1,15.53,2.14l1,.24V275.22l-.69-.12a101.42,101.42,0,0,0-16-1.71c-15.94,0-24,5.36-24,15.93v22a13.33,13.33,0,0,0,5.85,11.29,21,21,0,0,0,6.09,2.53,41.73,41.73,0,0,0,5.94,1.18,53.68,53.68,0,0,0,6.14.32,81.32,81.32,0,0,0,16.36-1.72l.65-.14V314l-1,.24A71.34,71.34,0,0,1,476.47,316.4Z"/><polygon class="cls-1" points="522.53 298.27 542.17 274.16 525.94 274.16 508.12 296.53 508.12 274.16 494.45 274.16 494.45 325.83 508.12 325.83 508.12 300.52 527.46 325.83 544.22 325.83 522.53 298.27"/><path class="cls-1" d="M69.09,242.79l52.61,4.09s2.77.2,3.4,2a1.91,1.91,0,0,1-.29,2,3.87,3.87,0,0,1-1.78.9,3.79,3.79,0,0,1-1.06.07c-1.63-.14-3.41-.34-4.84.62a8.72,8.72,0,0,0-2.29,2.4,10,10,0,0,0-.87,1.61,9,9,0,0,0-.74,3.65,20.86,20.86,0,0,0,.2,2.25l.6,2.64,1.06,3.79,5.58,16.37,11,29.29,7.44,18.94a30.44,30.44,0,0,0,3.16,6.22,20,20,0,0,0,4.53,4.66,29.82,29.82,0,0,0,5.57,2.62,37.06,37.06,0,0,0,6.6,1.8,27.72,27.72,0,0,0,4.15.45l-57.4-1.11s11-1.82,13.9-6.08c0,0,2.08-2.65,1.09-5.07L89.07,258.41s-2.23-4.87-6.18-6.57-14.62-3.61-14.62-3.61-2.89-.91-3.18-3.25,3.38-2.23,3.38-2.23Z"/><path class="cls-1" d="M164.71,352.54a3.12,3.12,0,0,0-1.85-1.63l-56.23-1.08c-1.72,2.39-7.15,10-9.83,14.38a3.7,3.7,0,0,0-.71,2.89,2.94,2.94,0,0,0,1.56,1.42l53.77,2.29h.25a4.69,4.69,0,0,0,1.22-.15c1.59-.43,2.47-1.59,3.73-3.46.56-.83,1.13-1.64,1.7-2.46s1.15-1.65,1.71-2.48l1.13-1.62.89-1.3,1-1.71,0-.05,0,0C164.6,355.43,165.14,353.7,164.71,352.54Z"/><path class="cls-1" d="M152.12,372.52l.3,0Z"/><path class="cls-1" d="M119.14,337.58,87.47,259.06s-2-4.23-5.26-5.63c-3.1-1.34-10.89-2.87-13.2-3.31-.65-.13-1-.19-1-.19l-.11,0-.11,0a7.39,7.39,0,0,1-3-1.87L56.3,261.09a3.62,3.62,0,0,0-.44,2.34c0,.12.16.43.87.68s1.92.51,3.34.82c6.25,1.39,16.72,3.71,19.36,11.24s23.78,60.83,27.4,69.95c4-.84,9.79-2.72,11.39-5.08l0-.05,0-.05S119.72,339,119.14,337.58Z"/><path class="cls-1" d="M115.16,262.24l5.84-8.71c-.33,0-.66,0-1,0a3.35,3.35,0,0,0-1.94.45,6.8,6.8,0,0,0-1.81,1.91,9.71,9.71,0,0,0-.74,1.35,7.32,7.32,0,0,0-.58,2.9,19.81,19.81,0,0,0,.17,2Z"/><path class="cls-1" d="M100,333.67l-1,1.82s-4,5.89-20.12,9.51l-2.27,4.05,12.75,11.58s3-.07,7.74-.21c1.49-2.24,3.23-4.76,4.76-6.95h0l0-.06c2.09-3,3.76-5.32,3.76-5.32Z"/><path class="cls-1" d="M204.45,254c.49-8.17-6.68-10.4-10.32-11a51.07,51.07,0,0,1-4.46,15.56c-4.89,10.24-12.95,16.74-23.36,18.83l-4.81,11.35,3.2,0,4.24,0c1.8,0,3.29,0,4.7-.05,4.08-.11,8.51-2.67,12.3-5.16C192.41,279.35,203.61,268.34,204.45,254Z"/><path class="cls-1" d="M159.19,290.47h-.07c.21,0,.52,0,.72,0Z"/><path class="cls-1" d="M158.89,290.5s.08,0,.17,0C159,290.47,158.9,290.48,158.89,290.5Z"/><path class="cls-1" d="M160.45,290.5h-.4c2.39,0,4.78,0,7.16,0Z"/><path class="cls-1" d="M176.3,297.82A52.06,52.06,0,0,1,167.5,323c-6.79,9.73-16.41,16-21.19,18.69a9.3,9.3,0,0,0,1.46,1.18,28,28,0,0,0,5.24,2.45A35.36,35.36,0,0,0,159.3,347a26.73,26.73,0,0,0,2.81.36c.5-.5,1.21-1.09,2.14-1.87,5.6-4.68,20.48-17.12,24-33.8a9.52,9.52,0,0,0-1.33-7.86C184.26,300.05,178.92,298.42,176.3,297.82Z"/><path class="cls-1" d="M154.31,248.35c-.3-.47-1.47-.47-2.42-.48h-.95a7.11,7.11,0,0,1-4.17-.91,5.77,5.77,0,0,1-2.77-5.59c.21-1.77,1.28-3.46,2.48-3.92.61-.23,1.65-.63,48.13-.63,9.85,0,18.91,0,24.47,0L206,228a4.23,4.23,0,0,0-1.88-.5L132.34,229h-.75c-.16.05-.5.18-.49.36a2.6,2.6,0,0,0,1.09,1.95l.13.08.93.6.41.26c1.49,1,3,1.89,4.46,2.86.44.29.89.57,1.34.84s1,.59,1.46.91l.13.08a4.53,4.53,0,0,1,1.87,1.91,6.12,6.12,0,0,1-.4,4.73c-.22.47-17,37.74-19.44,43.15l7,18.45,22.59-48.65C153.89,253.93,155.17,249.69,154.31,248.35Z"/><path class="cls-1" d="M224.72,238.59s-75.68-.28-77.63.47c-.86.33-3,3.94.66,6.46,1,.71,2.44.6,3.69.62,1.49,0,3.42-.12,4.32,1.27,1.85,2.89-1.58,9.82-1.58,9.82L131,307.13,140,330.05a2.67,2.67,0,0,0,.09-.26c2.31-4.77,14.47-30.43,14.5-30.46,1.6-3.39,5.45-3.69,8.71-3.66,3,0,6,0,9,0a24.3,24.3,0,0,1,2.7.15s17.95,2.36,15,16.27c-4.66,21.88-27.49,36.15-27.05,37.08l.23,0,.07,0c.66.2,5.44,1.91,2.27,7.79l-.08.16c-.17.31-.39.64-.61,1-.08.13-.14.25-.24.39,5.36-.13,9.38-.09,10.87-.21,10.17-.75,25.08-7.63,36.27-33.94,9.43-22.22-9.95-30.33-11.76-30.8-1.3-.33-8.1-1.15,1.61-4.39s22.78-16.88,26.24-32.25S224.72,238.59,224.72,238.59Zm-37.83,46.46c-3.75,2.46-8.6,5.31-13.21,5.43s-14.76-.05-14.79,0l6.25-14.73L178,248c.3-.77,2.14-6.65,6.47-6.94,6.63-.43,8,0,8,0s14.5.62,13.75,13C205.31,268.72,194.28,280.19,186.89,285.05Z"/></svg>