<svg id="Layer_1" data-name="Layer 1" xmlns="http://www.w3.org/2000/svg" viewBox="0 0 600 600"><defs><style>.cls-1{fill:#fff;}</style></defs><rect class="cls-1" x="91.77" y="417.17" width="18.3" height="55.26"/><path class="cls-1" d="M150.56,416.08c-7.62,0-12.9,1.46-15.78,4.35v-3.26H116.69v55.26H135V434.52a9.46,9.46,0,0,1,.65-4.17,3.22,3.22,0,0,1,2.21-1.53,27.73,27.73,0,0,1,6.58-.56,16.27,16.27,0,0,1,5.12.58,2.65,2.65,0,0,1,1.72,1.52,12.37,12.37,0,0,1,.53,4.16v37.91h18.29v-40c0-5.57-1.5-9.75-4.49-12.41S157.7,416.08,150.56,416.08Z"/><path class="cls-1" d="M232.58,433.42A13.92,13.92,0,0,0,236,430.6a9.4,9.4,0,0,0,2.65-6.35V415.5c0-4.09-.85-7.35-2.51-9.7s-4.53-4.1-8.47-5.15c-3.76-1-9.14-1.52-16-1.52H181.79v73.3h30.68c9.77,0,17.13-1.26,21.86-3.74,5-2.61,7.52-7.08,7.52-13.28V444.47a10.4,10.4,0,0,0-3.83-7.81A15.19,15.19,0,0,0,232.58,433.42Zm-12.64-11.36a9.36,9.36,0,0,1-.59,3.81,3.12,3.12,0,0,1-2,1.53,19.31,19.31,0,0,1-5.64.6H201.17V413.61h10.21a26.39,26.39,0,0,1,6.09.5,3,3,0,0,1,2,1.22,7.57,7.57,0,0,1,.51,3.23Zm-18.77,19.32h13.27c3.9,0,5.65.75,6.43,1.38,1.06.85,1.58,2.42,1.58,4.66v5.69a3.66,3.66,0,0,1-2,3.57c-1.56.85-4.36,1.28-8.3,1.28h-11Z"/><polygon class="cls-1" points="265.13 399.13 245.75 399.13 245.75 472.43 300.01 472.43 300.01 457.96 265.13 457.96 265.13 399.13"/><path class="cls-1" d="M363.23,403.92a34,34,0,0,0-9-3.87,56.2,56.2,0,0,0-8.48-1.62,87.78,87.78,0,0,0-8.87-.39c-2.88,0-5.63.11-8.18.33a45.41,45.41,0,0,0-9.2,1.8,33.42,33.42,0,0,0-8.4,3.63,19.73,19.73,0,0,0-6.46,7,20,20,0,0,0-2.49,10V451.8a18.83,18.83,0,0,0,3.5,11.47,19.44,19.44,0,0,0,9.63,6.8,60.21,60.21,0,0,0,10.54,2.68,74.37,74.37,0,0,0,11.06.78,60.62,60.62,0,0,0,22.52-4,20.32,20.32,0,0,0,9.09-6.85,18.05,18.05,0,0,0,3.35-10.86V420.75a20,20,0,0,0-2.57-10.32A18.87,18.87,0,0,0,363.23,403.92Zm-26.11,55.13a54.28,54.28,0,0,1-5.94-.27,27.89,27.89,0,0,1-4.9-1,6.62,6.62,0,0,1-3.55-2.17,5.88,5.88,0,0,1-1.17-3.81V420.64c0-3,1.11-5,3.4-6.18,2.52-1.3,6.58-1.95,12.05-1.95s9.51.67,12,2c2.3,1.21,3.42,3.22,3.42,6.13V451.8a6.12,6.12,0,0,1-1.13,3.83,6.19,6.19,0,0,1-3.39,2.15,27.68,27.68,0,0,1-4.88,1A54.54,54.54,0,0,1,337.12,459.05Z"/><path class="cls-1" d="M412.12,459.05c-16.43,0-16.43-6.36-16.43-8.45V420.42c0-3.53,1.38-5.64,4.37-6.67a17.91,17.91,0,0,1,4.36-1c1.45-.15,3.53-.22,6.18-.22a96,96,0,0,1,22,3l1.44.35V400.62l-1-.16A144.07,144.07,0,0,0,410.37,398c-22.61,0-34.07,7.6-34.07,22.6V451.8a18.41,18.41,0,0,0,2.45,9.65,18.11,18.11,0,0,0,5.84,6.37,29.8,29.8,0,0,0,8.64,3.59,59.73,59.73,0,0,0,8.42,1.67,78.35,78.35,0,0,0,8.72.45,115,115,0,0,0,23.2-2.44l.93-.19V455.58l-1.43.33C424.1,458,417.05,459.05,412.12,459.05Z"/><polygon class="cls-1" points="477.47 433.33 505.33 399.13 482.3 399.13 457.02 430.86 457.02 399.13 437.63 399.13 437.63 472.43 457.02 472.43 457.02 436.52 484.47 472.43 508.23 472.43 477.47 433.33"/><path class="cls-1" d="M188.9,149.36h0Z"/><path class="cls-1" d="M188.9,149.35h0Z"/><path class="cls-1" d="M193.94,148.18,268.57,154s3.93.29,4.83,2.8a2.74,2.74,0,0,1-.42,2.91,5.27,5.27,0,0,1-2.52,1.28,5.47,5.47,0,0,1-1.51.1c-2.31-.19-4.83-.48-6.86.89a12.19,12.19,0,0,0-3.25,3.39,16,16,0,0,0-1.24,2.3,12.71,12.71,0,0,0-1,5.17,29.84,29.84,0,0,0,.28,3.19l.85,3.75,1.5,5.37,7.92,23.23,15.64,41.54,10.57,26.87s2.29,6.09,4.47,8.83c1.92,2.41,3.81,4.91,6.43,6.61a41.52,41.52,0,0,0,7.9,3.7,51.59,51.59,0,0,0,9.37,2.57,38.71,38.71,0,0,0,5.88.62L246,297.55s15.64-2.58,19.71-8.63c0,0,2.95-3.76,1.56-7.19s-44.93-111.39-44.93-111.39-3.16-6.9-8.77-9.31-20.74-5.13-20.74-5.13-4.1-1.29-4.51-4.6,4.8-3.17,4.8-3.17Z"/><path class="cls-1" d="M329.58,303.87a4.45,4.45,0,0,0-2.62-2.31L247.19,300c-2.43,3.4-10.13,14.25-13.94,20.42-.72,1.16-1.48,2.82-1,4.09a4.15,4.15,0,0,0,2.2,2l76.28,3.25h.35a6.79,6.79,0,0,0,1.74-.22c2.25-.61,3.49-2.26,5.28-4.91.8-1.17,1.61-2.33,2.42-3.49s1.64-2.33,2.43-3.51l1.59-2.3,1.27-1.85,1.46-2.42,0-.07,0-.07C329.43,308,330.2,305.52,329.58,303.87Z"/><path class="cls-1" d="M311.72,332.22c.15,0,.29,0,.43,0C312,332.21,311.87,332.21,311.72,332.22Z"/><path class="cls-1" d="M264.94,282.65,220,171.26s-2.84-6-7.46-8c-4.4-1.89-15.46-4.07-18.74-4.7l-1.47-.27-.16,0-.15,0a10.54,10.54,0,0,1-4.25-2.66l-12,18.57c-.38.69-1,2.35-.63,3.32.06.17.23.6,1.23.95s2.72.73,4.74,1.18c8.86,2,23.71,5.26,27.47,15.94s33.72,86.29,38.86,99.24c5.74-1.21,13.89-3.87,16.15-7.22l.05-.08.06-.06S265.77,284.68,264.94,282.65Z"/><path class="cls-1" d="M259.3,175.77l8.28-12.34c-.47,0-.94-.07-1.38-.07a4.72,4.72,0,0,0-2.74.64,9.89,9.89,0,0,0-2.58,2.71,14.15,14.15,0,0,0-1,1.92,10.22,10.22,0,0,0-.83,4.12,26.76,26.76,0,0,0,.24,2.81Z"/><path class="cls-1" d="M237.84,277.1l-1.36,2.59S230.82,288,208,293.18l-3.24,5.75,18.1,16.42s4.25-.09,11-.29c2.11-3.19,4.58-6.77,6.75-9.86v0l.06-.08c3-4.25,5.34-7.55,5.34-7.55Z"/><path class="cls-1" d="M386,164.14c.69-11.59-9.49-14.75-14.65-15.61A72.61,72.61,0,0,1,365,170.6c-6.93,14.53-18.37,23.74-33.13,26.72L325,213.42l4.54,0c2,0,4,0,6,0,2.56,0,4.67,0,6.67-.08,5.78-.15,12.07-3.79,17.45-7.32C368.89,200.05,384.76,184.43,386,164.14Z"/><path class="cls-1" d="M321.75,215.82h-.1c.3,0,.74,0,1,0Z"/><path class="cls-1" d="M321.33,215.86a.64.64,0,0,1,.24,0A.69.69,0,0,0,321.33,215.86Z"/><path class="cls-1" d="M323.54,215.86H323c3.38,0,6.77,0,10.16,0C329.94,215.9,326.73,215.86,323.54,215.86Z"/><path class="cls-1" d="M346,226.26c-.55,7.08-2.86,22-12.47,35.71s-23.29,22.68-30.07,26.51a12.89,12.89,0,0,0,2.07,1.68,39.45,39.45,0,0,0,7.44,3.47,48.8,48.8,0,0,0,8.92,2.45c1.44.25,2.75.41,4,.5.72-.7,1.72-1.55,3-2.65C336.88,287.29,358,269.65,363,246c.94-4.39.32-8-1.88-11.16C357.32,229.41,349.74,227.09,346,226.26Z"/><path class="cls-1" d="M314.82,156.07c-.42-.66-2.08-.67-3.42-.67h-1.35c-1.79,0-4,0-5.91-1.31-3.93-2.71-4.15-6.12-3.93-7.92.3-2.52,1.81-4.91,3.52-5.56.87-.33,2.33-.89,68.27-.89,14,0,26.82,0,34.71,0l-18.54-12.58a6.05,6.05,0,0,0-2.67-.71L283.67,128.6H282.6c-.23.07-.7.25-.7.51a3.62,3.62,0,0,0,1.56,2.76l.17.12,1.33.85.58.37c2.12,1.34,4.24,2.69,6.33,4.07.62.4,1.26.79,1.9,1.18s1.39.84,2.07,1.29l.18.11a6.41,6.41,0,0,1,2.65,2.71c1.18,2.8-.13,5.74-.56,6.71-.31.67-24.12,53.54-27.58,61.22l9.86,26.16,32-69C314.23,164,316.05,158,314.82,156.07Z"/><path class="cls-1" d="M414.71,142.24s-107.36-.4-110.11.65c-1.23.47-4.26,5.59.92,9.18,1.47,1,3.46.85,5.24.87,2.11,0,4.85-.17,6.13,1.81,2.62,4.09-2.24,13.93-2.24,13.93l-32.86,70.78L294.48,272c0-.12.08-.26.13-.37,3.27-6.77,20.52-43.17,20.56-43.22,2.27-4.81,7.73-5.23,12.35-5.19,4.28.05,8.57,0,12.84,0a32.48,32.48,0,0,1,3.82.21s25.46,3.35,21.25,23.08c-6.63,31-39,51.28-38.39,52.59l.33,0,.11,0c.93.29,7.71,2.7,3.21,11a1.75,1.75,0,0,1-.11.24c-.24.44-.55.9-.86,1.37-.12.19-.21.36-.34.55,7.59-.17,13.29-.13,15.41-.29,14.43-1.07,35.59-10.82,51.44-48.15,13.39-31.52-14.11-43-16.67-43.68-1.85-.47-11.48-1.65,2.29-6.23s32.31-23.94,37.23-45.76S414.71,142.24,414.71,142.24Zm-53.66,65.89c-5.33,3.49-12.21,7.55-18.74,7.72s-20.94-.08-21,0L330.2,195l18.2-39.36c.44-1.09,3-9.44,9.18-9.84,9.41-.61,11.32,0,11.32,0s20.56.88,19.51,18.5C387.17,185,371.53,201.24,361.05,208.13Z"/></svg>