<svg id="Layer_1" data-name="Layer 1" xmlns="http://www.w3.org/2000/svg" viewBox="0 0 600 600"><defs><style>.cls-1{fill:#a7a8a9;}.cls-2{fill:#898a8d;}.cls-3{fill:#54565a;}.cls-4{fill:#101820;}</style></defs><path class="cls-1" d="M195.16,150.64l74.63,5.81s3.93.28,4.83,2.8a2.74,2.74,0,0,1-.42,2.91,5.35,5.35,0,0,1-2.52,1.27,5.49,5.49,0,0,1-1.51.1c-2.31-.19-4.84-.47-6.87.89a12.48,12.48,0,0,0-3.24,3.4,14.93,14.93,0,0,0-1.24,2.29,12.78,12.78,0,0,0-1,5.17,28.12,28.12,0,0,0,.29,3.19l.83,3.75,1.51,5.37,7.92,23.23L284,252.36l10.56,26.87s2.29,6.1,4.47,8.83c1.93,2.41,3.82,4.91,6.43,6.61a42.57,42.57,0,0,0,7.91,3.71,52.18,52.18,0,0,0,9.37,2.57,39.89,39.89,0,0,0,5.87.62L247.17,300s15.64-2.58,19.71-8.62c0,0,2.95-3.76,1.55-7.2L223.51,172.8s-3.17-6.9-8.77-9.31S194,158.35,194,158.35s-4.09-1.28-4.5-4.6,4.79-3.17,4.79-3.17Z"/><path class="cls-2" d="M311.84,334.7l-76.67-3.27s-7.42-2.33-2.78-9.83S247.17,300,247.17,300l81.41,1.57s9.46,2.46,2,13.25l-1.49,2.49-2.9,4.2c-1.59,2.34-3.25,4.65-4.84,7-1.77,2.62-3.47,5-6.67,5.9A9.67,9.67,0,0,1,311.84,334.7Z"/><path class="cls-2" d="M266.88,291.38s2.95-3.76,1.55-7.2L223.51,172.8s-3.17-6.9-8.77-9.31c-4.52-2-15.29-4.11-19.25-4.86h0l-1.5-.28s-4.09-1.28-4.5-4.6a2.29,2.29,0,0,1,.13-1.16l-14.7,22.75s-3.42,6,1.89,7.85c5.48,1.93,26.55,3.81,30.71,15.62S247.17,300,247.17,300,262.81,297.42,266.88,291.38Z"/><path class="cls-2" d="M271.68,163.43a5.49,5.49,0,0,1-1.51.1c-2.31-.19-4.84-.47-6.87.89a12.48,12.48,0,0,0-3.24,3.4,14.93,14.93,0,0,0-1.24,2.29,12.78,12.78,0,0,0-1,5.17,28.12,28.12,0,0,0,.29,3.19l.83,3.75.56,2,15.08-22.49a.08.08,0,0,1-.05,0,1.48,1.48,0,0,1-.29.43A5.35,5.35,0,0,1,271.68,163.43Z"/><path class="cls-3" d="M237.7,282.14s-5.67,8.35-28.54,13.49l-3.22,5.75L224,317.8l3.84-7.89,13.9-2.28.06-.08c3-4.25,5.34-7.55,5.34-7.55s-3.35-8.43-8.11-20.45Z"/><path class="cls-2" d="M241.76,307.65v0l-13.87,2.23L224,317.8s4.24-.09,11-.29C237.12,314.33,239.59,310.74,241.76,307.65Z"/><path class="cls-3" d="M370.35,148.25c-.24,3.68-3.68,43.21-39,49.36l-8.79,20.7a10,10,0,0,1,1.64,0c6.44,0,12.91.16,19.34,0s13.41-4.22,18.74-7.71c10.48-6.9,26.12-23.16,27.36-43.85C390.62,150.21,372.61,148.41,370.35,148.25Z"/><path class="cls-3" d="M345.4,225.87l-.46-.05c-.12,4.46-1.3,21.62-12.18,37.2-11.15,16-28.15,25.28-32,27.24a21.34,21.34,0,0,0,4.64,4.41,42.57,42.57,0,0,0,7.91,3.71,52.18,52.18,0,0,0,9.37,2.57,41.16,41.16,0,0,0,5.54.6c-.6-1.32,31.77-21.57,38.39-52.6C370.86,229.22,345.4,225.87,345.4,225.87Z"/><path class="cls-2" d="M415.93,144.69s-107.36-.4-110.12.66c-1.22.46-4.25,5.59.93,9.17,1.46,1,3.46.85,5.24.88,2.11,0,4.85-.18,6.12,1.8,2.63,4.1-2.23,13.93-2.23,13.93l-34.5,74.3,3.78,9.93,9.38,23.87.51,1.3a12.49,12.49,0,0,1,.79-6.47c3.27-6.77,20.52-43.17,20.56-43.22,2.27-4.81,7.73-5.23,12.34-5.18,4.28,0,8.57,0,12.84,0a37.65,37.65,0,0,1,3.83.21s25.46,3.35,21.24,23.08c-6.62,31-39,51.29-38.39,52.6l.33,0,.11,0c.94.29,7.71,2.7,3.22,11,0,.08-.08.15-.12.24-.24.43-.55.9-.86,1.36-.12.2-.21.36-.34.56,7.6-.18,13.3-.14,15.42-.3,14.43-1.06,35.59-10.81,51.44-48.15,13.39-31.51-14.11-43-16.67-43.67-1.85-.48-11.49-1.65,2.29-6.24s32.31-23.94,37.22-45.75S415.93,144.69,415.93,144.69Zm-53.66,65.9c-5.33,3.49-12.22,7.54-18.74,7.71s-12.9,0-19.34,0a10,10,0,0,0-1.64,0l8.87-20.88,18.2-39.36c.43-1.09,3-9.43,9.17-9.83,9.42-.61,11.32,0,11.32,0s20.57.87,19.52,18.5C388.39,187.43,372.75,203.69,362.27,210.59Z"/><path class="cls-3" d="M318.1,157.2c-1.27-2-4-1.77-6.12-1.8-1.78,0-3.78.13-5.24-.88-5.18-3.58-2.15-8.71-.93-9.17,2.76-1.06,110.12-.66,110.12-.66l-25.18-17.08a8.51,8.51,0,0,0-4-1.14l-101.88,2.14h-1.31s-2.87.5-2.85,3a6.13,6.13,0,0,0,2.66,4.79l1.54,1c2.3,1.46,4.6,2.91,6.87,4.41,1.3.85,2.66,1.61,4,2.47a4.81,4.81,0,0,1,1.92,1.74c.65,1.53.1,3.3-.54,4.75,0,.1-28,62.13-28,62.13l12.27,32.56,34.5-74.3S320.73,161.3,318.1,157.2Z"/><rect class="cls-4" x="91.77" y="417.18" width="18.3" height="55.25"/><path class="cls-4" d="M150.56,416.09c-7.61,0-12.89,1.45-15.78,4.34v-3.25H116.69v55.25H135V434.52a9.61,9.61,0,0,1,.64-4.18,3.24,3.24,0,0,1,2.22-1.52,27.54,27.54,0,0,1,6.58-.57,16.11,16.11,0,0,1,5.11.6,2.61,2.61,0,0,1,1.72,1.51,12.12,12.12,0,0,1,.53,4.16v37.91h18.29v-40c0-5.57-1.51-9.74-4.48-12.41S157.7,416.09,150.56,416.09Z"/><path class="cls-4" d="M232.58,433.42A14,14,0,0,0,236,430.6a9.43,9.43,0,0,0,2.64-6.35V415.5c0-4.09-.85-7.35-2.51-9.7s-4.54-4.1-8.47-5.14c-3.76-1-9.14-1.53-16-1.53H181.78v73.3h30.7c9.76,0,17.11-1.26,21.85-3.74,5-2.61,7.52-7.08,7.52-13.28V444.47a10.41,10.41,0,0,0-3.83-7.81A15.19,15.19,0,0,0,232.58,433.42Zm-12.64-11.36a9.36,9.36,0,0,1-.59,3.81,3.19,3.19,0,0,1-2,1.54,19.74,19.74,0,0,1-5.64.59H201.17V413.6h10.21a26.16,26.16,0,0,1,6.08.51,3,3,0,0,1,2,1.22,7.2,7.2,0,0,1,.52,3.23Zm-18.77,19.32h13.27c3.91,0,5.65.75,6.43,1.38q1.57,1.29,1.58,4.67v5.68a3.67,3.67,0,0,1-2,3.57c-1.57.85-4.35,1.28-8.3,1.28h-11Z"/><polygon class="cls-4" points="265.14 399.13 245.76 399.13 245.76 472.43 300.02 472.43 300.02 457.96 265.14 457.96 265.14 399.13"/><path class="cls-4" d="M363.23,403.91a34.44,34.44,0,0,0-9-3.86,56,56,0,0,0-8.49-1.61,84.34,84.34,0,0,0-8.86-.4c-2.87,0-5.63.12-8.19.33a45.58,45.58,0,0,0-9.19,1.8,33.06,33.06,0,0,0-8.4,3.64,19.81,19.81,0,0,0-8.95,16.94V451.8a18.82,18.82,0,0,0,3.5,11.46,19.44,19.44,0,0,0,9.63,6.81,59.49,59.49,0,0,0,10.54,2.67,73,73,0,0,0,11.06.79,60.13,60.13,0,0,0,22.51-4,20.31,20.31,0,0,0,9.1-6.84,18,18,0,0,0,3.34-10.86V420.75a20,20,0,0,0-2.56-10.32A19.08,19.08,0,0,0,363.23,403.91Zm-26.11,55.14a54.61,54.61,0,0,1-5.95-.27,28,28,0,0,1-4.89-1,6.64,6.64,0,0,1-3.55-2.17,5.88,5.88,0,0,1-1.17-3.81V420.64c0-3,1.11-5,3.41-6.18,2.52-1.29,6.56-1.95,12-1.95s9.51.68,12,2c2.3,1.22,3.42,3.22,3.42,6.13V451.8a6,6,0,0,1-1.13,3.83,6.33,6.33,0,0,1-3.39,2.16,28.56,28.56,0,0,1-4.88,1A54.54,54.54,0,0,1,337.12,459.05Z"/><path class="cls-4" d="M412.12,459.05c-16.43,0-16.43-6.36-16.43-8.45V420.42c0-3.53,1.38-5.64,4.37-6.66a18,18,0,0,1,4.36-1c1.45-.14,3.53-.21,6.18-.21a95.4,95.4,0,0,1,22,3l1.45.34V400.63l-1-.17A143.85,143.85,0,0,0,410.38,398c-22.61,0-34.08,7.61-34.08,22.6V451.8a19,19,0,0,0,8.29,16,29.87,29.87,0,0,0,8.65,3.6,58.91,58.91,0,0,0,8.42,1.67,75.88,75.88,0,0,0,8.72.45,115.7,115.7,0,0,0,23.19-2.43l.94-.2V455.57l-1.44.33C424.1,458,417.05,459.05,412.12,459.05Z"/><polygon class="cls-4" points="477.47 433.33 505.33 399.13 482.3 399.13 457.03 430.86 457.03 399.13 437.64 399.13 437.64 472.43 457.03 472.43 457.03 436.53 484.48 472.43 508.23 472.43 477.47 433.33"/></svg>