<svg id="Layer_1" data-name="Layer 1" xmlns="http://www.w3.org/2000/svg" viewBox="0 0 1525.76 1080"><defs><style>.cls-1{fill:#101820;}</style></defs><path class="cls-1" d="M50.71,108.94l1-1V86.32l-1-1H39.41l-1,1V108l1,1ZM40.39,87.3h9.34V107H40.39Z"/><path class="cls-1" d="M50.71,138.05l1-1V115.43l-1-1H39.41l-1,1v21.64l1,1ZM40.39,116.41h9.34v19.68H40.39Z"/><path class="cls-1" d="M35.64,70.09l-.69.29-7.8,7.8.2.2-.49.49v65.65l1,1H62.28l.49-.49.2.2,7.8-7.8.29-.69V71.07l-1-1ZM61.3,143.54H28.82V79.85H61.3Zm7.8-7.23-5.84,5.85V78.87l-1-1H30.21l5.84-5.84H69.1Z"/><path class="cls-1" d="M35.64,185.18l-.49.49-.2-.21-7.8,7.81-.29.69v65.65l1,1H62.28l.69-.29,7.8-7.8-.2-.2.49-.49V186.16l-1-1Zm1,2H69.1v63.69H36.62Zm25.25,71.49h-33V194.36l5.84-5.84v63.29l1,1H67.72Z"/><path class="cls-1" d="M50.71,339.11l1-1V316.5l-1-1H39.41l-1,1v21.64l1,1ZM40.39,317.48h9.34v19.68H40.39Z"/><path class="cls-1" d="M50.71,368.22l1-1V345.61l-1-1H39.41l-1,1v21.63l1,1ZM40.39,346.59h9.34v19.68H40.39Z"/><path class="cls-1" d="M35.64,300.27l-.69.28-7.8,7.8.2.21-.49.49V374.7l1,1H62.28l.49-.49.2.2,7.8-7.8.29-.69V301.25l-1-1ZM61.3,373.72H28.82V310H61.3Zm7.8-7.23-5.84,5.84V309.05l-1-1H30.21l5.84-5.84H69.1Z"/><path class="cls-1" d="M35.64,415.35l-.49.49-.2-.2-7.8,7.8-.29.69v65.65l1,1H62.28l.69-.28,7.8-7.8-.2-.2.49-.49V416.33l-1-1Zm1,2H69.1V481H36.62Zm25.25,71.5h-33V424.54l5.84-5.84V482l1,1H67.72Z"/><path class="cls-1" d="M50.71,569.29l1-1V546.68l-1-1H39.41l-1,1v21.63l1,1ZM40.39,547.66h9.34v19.67H40.39Z"/><path class="cls-1" d="M50.71,598.4l1-1V575.79l-1-1H39.41l-1,1v21.63l1,1ZM40.39,576.77h9.34v19.67H40.39Z"/><path class="cls-1" d="M35.64,530.44l-.69.29-7.8,7.8.2.2-.49.49v65.65l1,1H62.28l.49-.49.2.21,7.8-7.8.29-.7V531.42l-1-1ZM61.3,603.89H28.82V540.2H61.3Zm7.8-7.22-5.84,5.84V539.22l-1-1H30.21l5.84-5.84H69.1Z"/><path class="cls-1" d="M35.64,645.53l-.49.49-.2-.2-7.8,7.8-.29.69V720l1,1H62.28l.69-.29,7.8-7.8-.2-.2.49-.49V646.51l-1-1Zm1,2H69.1v63.69H36.62ZM61.87,719h-33V654.72l5.84-5.85v63.29l1,1H67.72Z"/><path class="cls-1" d="M50.71,799.47l1-1V776.85l-1-1H39.41l-1,1v21.64l1,1ZM40.39,777.83h9.34v19.68H40.39Z"/><path class="cls-1" d="M50.71,828.58l1-1V806l-1-1H39.41l-1,1V827.6l1,1ZM40.39,806.94h9.34v19.68H40.39Z"/><path class="cls-1" d="M35.64,760.62l-.69.29-7.8,7.8.2.2-.49.49v65.65l1,1H62.28l.49-.49.2.2,7.8-7.8.29-.69V761.6l-1-1ZM61.3,834.07H28.82V770.38H61.3Zm7.8-7.23-5.84,5.85V769.4l-1-1H30.21l5.84-5.84H69.1Z"/><path class="cls-1" d="M35.64,875.71l-.49.49L35,876l-7.8,7.8-.29.69v65.65l1,1H62.28l.69-.29,7.8-7.8-.2-.2.49-.49V876.69l-1-1Zm1,2H69.1v63.69H36.62Zm25.25,71.49h-33V884.89l5.84-5.84v63.29l1,1H67.72Z"/><path class="cls-1" d="M50.71,1029.64l1-1V1007l-1-1H39.41l-1,1v21.64l1,1ZM40.39,1008h9.34v19.68H40.39Z"/><path class="cls-1" d="M50.71,1058.75l1-1v-21.64l-1-1H39.41l-1,1v21.64l1,1Zm-10.32-21.63h9.34v19.68H40.39Z"/><path class="cls-1" d="M35.64,990.8l-.69.28-7.8,7.81.2.2-.49.49v65.65l1,1H62.28l.49-.49.2.2,7.8-7.8.29-.69V991.78l-1-1Zm25.66,73.45H28.82v-63.69H61.3Zm7.8-7.23-5.84,5.85V999.58l-1-1H30.21l5.84-5.84H69.1Z"/><path class="cls-1" d="M123.28,50.36l-1,1V73l1,1h11.31l1-1V51.34l-1-1ZM133.61,72h-9.35V52.31h9.35Z"/><path class="cls-1" d="M123.28,21.25l-1,1V43.86l1,1h11.31l1-1V22.23l-1-1Zm10.33,21.63h-9.35V23.2h9.35Z"/><path class="cls-1" d="M146.85,14.08l-.2.2-.49-.49H111.72l-1,1V80.42l.49.49-.2.21,7.79,7.8.7.28H154l1-1V22.57l-.29-.69ZM112.7,15.75h32.48V79.44H112.7ZM153,87.24H119.92l-5.84-5.84h32.08l1-1V17.14L153,23Z"/><path class="cls-1" d="M154.65,137l-7.8-7.8-.69-.29H111.72l-1,1v65.65l.29.69,7.79,7.8.21-.2.49.49H154l1-1V137.66l-.49-.49Zm-41.95-6.13h33.05l5.84,5.84H119.52l-1,1V201l-5.84-5.85ZM153,202.33H120.5V138.64H153Z"/><path class="cls-1" d="M123.28,280.53l-1,1v21.64l1,1h11.31l1-1V281.51l-1-1Zm10.33,21.64h-9.35V282.49h9.35Z"/><path class="cls-1" d="M123.28,251.42l-1,1V274l1,1h11.31l1-1V252.4l-1-1Zm10.33,21.64h-9.35V253.38h9.35Z"/><path class="cls-1" d="M146.85,244.26l-.2.2-.49-.49H111.72l-1,1V310.6l.49.49-.2.2,7.79,7.8.7.29H154l1-1V252.75l-.29-.69Zm-34.15,1.67h32.48v63.69H112.7ZM153,317.42H119.92l-5.84-5.84h32.08l1-1V247.32l5.84,5.84Z"/><path class="cls-1" d="M154.65,367.15l-7.8-7.8-.69-.29H111.72l-1,1v65.65l.29.69,7.79,7.8.21-.2.49.49H154l1-1V367.84l-.49-.49ZM112.7,361h33.05l5.84,5.84H119.52l-1,1v63.28l-5.84-5.84ZM153,432.51H120.5V368.82H153Z"/><path class="cls-1" d="M123.28,510.71l-1,1v21.63l1,1h11.31l1-1V511.69l-1-1Zm10.33,21.64h-9.35V512.67h9.35Z"/><path class="cls-1" d="M123.28,481.6l-1,1v21.63l1,1h11.31l1-1V482.58l-1-1Zm10.33,21.64h-9.35V483.56h9.35Z"/><path class="cls-1" d="M146.85,474.43l-.2.21-.49-.49H111.72l-1,1v65.65l.49.49-.2.2,7.79,7.8.7.29H154l1-1V482.93l-.29-.7Zm-34.15,1.68h32.48V539.8H112.7ZM153,547.6H119.92l-5.84-5.84h32.08l1-1V477.49l5.84,5.84Z"/><path class="cls-1" d="M154.65,597.32l-7.8-7.8-.69-.28H111.72l-1,1v65.66l.29.69,7.79,7.8.21-.2.49.49H154l1-1V598l-.49-.49Zm-41.95-6.13h33.05l5.84,5.84H119.52l-1,1V661.3l-5.84-5.84ZM153,662.69H120.5V599H153Z"/><path class="cls-1" d="M123.28,740.88l-1,1V763.5l1,1h11.31l1-1V741.86l-1-1Zm10.33,21.64h-9.35V742.84h9.35Z"/><path class="cls-1" d="M123.28,711.78l-1,1v21.64l1,1h11.31l1-1V712.75l-1-1Zm10.33,21.63h-9.35V713.73h9.35Z"/><path class="cls-1" d="M146.85,704.61l-.2.2-.49-.49H111.72l-1,1V771l.49.49-.2.2,7.79,7.8.7.28H154l1-1V713.1l-.29-.69Zm-34.15,1.67h32.48V770H112.7ZM153,777.78H119.92l-5.84-5.85h32.08l1-1V707.67l5.84,5.84Z"/><path class="cls-1" d="M154.65,827.5l-7.8-7.8-.69-.29H111.72l-1,1V886l.29.69,7.79,7.81.21-.21.49.49H154l1-1V828.19l-.49-.49Zm-41.95-6.13h33.05l5.84,5.84H119.52l-1,1v63.29l-5.84-5.84ZM153,892.86H120.5V829.17H153Z"/><path class="cls-1" d="M123.28,971.06l-1,1v21.64l1,1h11.31l1-1V972l-1-1Zm10.33,21.64h-9.35V973h9.35Z"/><path class="cls-1" d="M123.28,942l-1,1v21.64l1,1h11.31l1-1V942.93l-1-1Zm10.33,21.64h-9.35V943.91h9.35Z"/><path class="cls-1" d="M146.85,934.79l-.2.2-.49-.49H111.72l-1,1v65.65l.49.49-.2.2,7.79,7.81.7.28H154l1-1V943.28l-.29-.69Zm-34.15,1.67h32.48v63.69H112.7ZM153,1008H119.92l-5.84-5.84h32.08l1-1V937.85l5.84,5.84Z"/><path class="cls-1" d="M218.46,108.94l1-1V86.32l-1-1h-11.3l-1,1V108l1,1ZM208.14,87.3h9.35V107h-9.35Z"/><path class="cls-1" d="M218.46,138.05l1-1V115.43l-1-1h-11.3l-1,1v21.64l1,1Zm-10.32-21.64h9.35v19.68h-9.35Z"/><path class="cls-1" d="M203.39,70.09l-.69.29-7.8,7.8.2.2-.49.49v65.65l1,1H230l.49-.49.2.2,7.8-7.8.29-.69V71.07l-1-1Zm25.66,73.45H196.57V79.85h32.48Zm7.8-7.23L231,142.16V78.87l-1-1H198l5.84-5.84h33Z"/><path class="cls-1" d="M203.39,185.18l-.49.49-.2-.21-7.8,7.81-.29.69v65.65l1,1H230l.69-.29,7.8-7.8-.2-.2.49-.49V186.16l-1-1Zm1,2h32.48v63.69H204.37Zm25.26,71.49H196.57V194.36l5.84-5.84v63.29l1,1h32.08Z"/><path class="cls-1" d="M218.46,339.11l1-1V316.5l-1-1h-11.3l-1,1v21.64l1,1Zm-10.32-21.63h9.35v19.68h-9.35Z"/><path class="cls-1" d="M218.46,368.22l1-1V345.61l-1-1h-11.3l-1,1v21.63l1,1Zm-10.32-21.63h9.35v19.68h-9.35Z"/><path class="cls-1" d="M203.39,300.27l-.69.28-7.8,7.8.2.21-.49.49V374.7l1,1H230l.49-.49.2.2,7.8-7.8.29-.69V301.25l-1-1Zm25.66,73.45H196.57V310h32.48Zm7.8-7.23L231,372.33V309.05l-1-1H198l5.84-5.84h33Z"/><path class="cls-1" d="M203.39,415.35l-.49.49-.2-.2-7.8,7.8-.29.69v65.65l1,1H230l.69-.28,7.8-7.8-.2-.2.49-.49V416.33l-1-1Zm1,2h32.48V481H204.37Zm25.26,71.5H196.57V424.54l5.84-5.84V482l1,1h32.08Z"/><path class="cls-1" d="M218.46,569.29l1-1V546.68l-1-1h-11.3l-1,1v21.63l1,1Zm-10.32-21.63h9.35v19.67h-9.35Z"/><path class="cls-1" d="M218.46,598.4l1-1V575.79l-1-1h-11.3l-1,1v21.63l1,1Zm-10.32-21.63h9.35v19.67h-9.35Z"/><path class="cls-1" d="M203.39,530.44l-.69.29-7.8,7.8.2.2-.49.49v65.65l1,1H230l.49-.49.2.21,7.8-7.8.29-.7V531.42l-1-1Zm25.66,73.45H196.57V540.2h32.48Zm7.8-7.22L231,602.51V539.22l-1-1H198l5.84-5.84h33Z"/><path class="cls-1" d="M203.39,645.53l-.49.49-.2-.2-7.8,7.8-.29.69V720l1,1H230l.69-.29,7.8-7.8-.2-.2.49-.49V646.51l-1-1Zm1,2h32.48v63.69H204.37ZM229.63,719H196.57V654.72l5.84-5.85v63.29l1,1h32.08Z"/><path class="cls-1" d="M218.46,799.47l1-1V776.85l-1-1h-11.3l-1,1v21.64l1,1Zm-10.32-21.64h9.35v19.68h-9.35Z"/><path class="cls-1" d="M218.46,828.58l1-1V806l-1-1h-11.3l-1,1V827.6l1,1Zm-10.32-21.64h9.35v19.68h-9.35Z"/><path class="cls-1" d="M203.39,760.62l-.69.29-7.8,7.8.2.2-.49.49v65.65l1,1H230l.49-.49.2.2,7.8-7.8.29-.69V761.6l-1-1Zm25.66,73.45H196.57V770.38h32.48Zm7.8-7.23L231,832.69V769.4l-1-1H198l5.84-5.84h33Z"/><path class="cls-1" d="M203.39,875.71l-.49.49-.2-.2-7.8,7.8-.29.69v65.65l1,1H230l.69-.29,7.8-7.8-.2-.2.49-.49V876.69l-1-1Zm1,2h32.48v63.69H204.37Zm25.26,71.49H196.57V884.89l5.84-5.84v63.29l1,1h32.08Z"/><path class="cls-1" d="M218.46,1029.64l1-1V1007l-1-1h-11.3l-1,1v21.64l1,1ZM208.14,1008h9.35v19.68h-9.35Z"/><path class="cls-1" d="M218.46,1058.75l1-1v-21.64l-1-1h-11.3l-1,1v21.64l1,1Zm-10.32-21.63h9.35v19.68h-9.35Z"/><path class="cls-1" d="M203.39,990.8l-.69.28-7.8,7.81.2.2-.49.49v65.65l1,1H230l.49-.49.2.2,7.8-7.8.29-.69V991.78l-1-1Zm25.66,73.45H196.57v-63.69h32.48Zm7.8-7.23-5.84,5.85V999.58l-1-1H198l5.84-5.84h33Z"/><path class="cls-1" d="M291,50.36l-1,1V73l1,1h11.3l1-1V51.34l-1-1ZM301.36,72H292V52.31h9.34Z"/><path class="cls-1" d="M291,21.25l-1,1V43.86l1,1h11.3l1-1V22.23l-1-1Zm10.32,21.63H292V23.2h9.34Z"/><path class="cls-1" d="M314.6,14.08l-.2.2-.49-.49H279.47l-1,1V80.42l.49.49-.2.21,7.8,7.8.69.28h34.44l1-1V22.57l-.29-.69Zm-34.15,1.67h32.48V79.44H280.45Zm40.28,71.49H287.67l-5.84-5.84h32.08l1-1V17.14L320.73,23Z"/><path class="cls-1" d="M322.4,137l-7.8-7.8-.69-.29H279.47l-1,1v65.65l.29.69,7.8,7.8.2-.2.49.49h34.44l1-1V137.66l-.49-.49Zm-41.95-6.13H313.5l5.84,5.84H287.27l-1,1V201l-5.84-5.85Zm40.28,71.49H288.25V138.64h32.48Z"/><path class="cls-1" d="M291,280.53l-1,1v21.64l1,1h11.3l1-1V281.51l-1-1Zm10.32,21.64H292V282.49h9.34Z"/><path class="cls-1" d="M291,251.42l-1,1V274l1,1h11.3l1-1V252.4l-1-1Zm10.32,21.64H292V253.38h9.34Z"/><path class="cls-1" d="M314.6,244.26l-.2.2-.49-.49H279.47l-1,1V310.6l.49.49-.2.2,7.8,7.8.69.29h34.44l1-1V252.75l-.29-.69Zm-34.15,1.67h32.48v63.69H280.45Zm40.28,71.49H287.67l-5.84-5.84h32.08l1-1V247.32l5.84,5.84Z"/><path class="cls-1" d="M322.4,367.15l-7.8-7.8-.69-.29H279.47l-1,1v65.65l.29.69,7.8,7.8.2-.2.49.49h34.44l1-1V367.84l-.49-.49ZM280.45,361H313.5l5.84,5.84H287.27l-1,1v63.28l-5.84-5.84Zm40.28,71.49H288.25V368.82h32.48Z"/><path class="cls-1" d="M291,510.71l-1,1v21.63l1,1h11.3l1-1V511.69l-1-1Zm10.32,21.64H292V512.67h9.34Z"/><path class="cls-1" d="M291,481.6l-1,1v21.63l1,1h11.3l1-1V482.58l-1-1Zm10.32,21.64H292V483.56h9.34Z"/><path class="cls-1" d="M314.6,474.43l-.2.21-.49-.49H279.47l-1,1v65.65l.49.49-.2.2,7.8,7.8.69.29h34.44l1-1V482.93l-.29-.7Zm-34.15,1.68h32.48V539.8H280.45Zm40.28,71.49H287.67l-5.84-5.84h32.08l1-1V477.49l5.84,5.84Z"/><path class="cls-1" d="M322.4,597.32l-7.8-7.8-.69-.28H279.47l-1,1v65.66l.29.69,7.8,7.8.2-.2.49.49h34.44l1-1V598l-.49-.49Zm-41.95-6.13H313.5l5.84,5.84H287.27l-1,1V661.3l-5.84-5.84Zm40.28,71.5H288.25V599h32.48Z"/><path class="cls-1" d="M291,740.88l-1,1V763.5l1,1h11.3l1-1V741.86l-1-1Zm10.32,21.64H292V742.84h9.34Z"/><path class="cls-1" d="M291,711.78l-1,1v21.64l1,1h11.3l1-1V712.75l-1-1Zm10.32,21.63H292V713.73h9.34Z"/><path class="cls-1" d="M314.6,704.61l-.2.2-.49-.49H279.47l-1,1V771l.49.49-.2.2,7.8,7.8.69.28h34.44l1-1V713.1l-.29-.69Zm-34.15,1.67h32.48V770H280.45Zm40.28,71.5H287.67l-5.84-5.85h32.08l1-1V707.67l5.84,5.84Z"/><path class="cls-1" d="M322.4,827.5l-7.8-7.8-.69-.29H279.47l-1,1V886l.29.69,7.8,7.81.2-.21.49.49h34.44l1-1V828.19l-.49-.49Zm-41.95-6.13H313.5l5.84,5.84H287.27l-1,1v63.29l-5.84-5.84Zm40.28,71.49H288.25V829.17h32.48Z"/><path class="cls-1" d="M291,971.06l-1,1v21.64l1,1h11.3l1-1V972l-1-1Zm10.32,21.64H292V973h9.34Z"/><path class="cls-1" d="M291,942l-1,1v21.64l1,1h11.3l1-1V942.93l-1-1Zm10.32,21.64H292V943.91h9.34Z"/><path class="cls-1" d="M314.6,934.79l-.2.2-.49-.49H279.47l-1,1v65.65l.49.49-.2.2,7.8,7.81.69.28h34.44l1-1V943.28l-.29-.69Zm-34.15,1.67h32.48v63.69H280.45ZM320.73,1008H287.67l-5.84-5.84h32.08l1-1V937.85l5.84,5.84Z"/><path class="cls-1" d="M386.21,108.94l1-1V86.32l-1-1h-11.3l-1,1V108l1,1ZM375.89,87.3h9.35V107h-9.35Z"/><path class="cls-1" d="M386.21,138.05l1-1V115.43l-1-1h-11.3l-1,1v21.64l1,1Zm-10.32-21.64h9.35v19.68h-9.35Z"/><path class="cls-1" d="M371.14,70.09l-.69.29-7.8,7.8.2.2-.49.49v65.65l1,1h34.44l.49-.49.2.2,7.8-7.8.29-.69V71.07l-1-1Zm25.66,73.45H364.32V79.85H396.8Zm7.8-7.23-5.84,5.85V78.87l-1-1H365.71l5.84-5.84H404.6Z"/><path class="cls-1" d="M371.14,185.18l-.49.49-.2-.21-7.8,7.81-.29.69v65.65l1,1h34.44l.69-.29,7.8-7.8-.2-.2.49-.49V186.16l-1-1Zm1,2H404.6v63.69H372.12Zm25.26,71.49H364.32V194.36l5.84-5.84v63.29l1,1h32.08Z"/><path class="cls-1" d="M386.21,339.11l1-1V316.5l-1-1h-11.3l-1,1v21.64l1,1Zm-10.32-21.63h9.35v19.68h-9.35Z"/><path class="cls-1" d="M386.21,368.22l1-1V345.61l-1-1h-11.3l-1,1v21.63l1,1Zm-10.32-21.63h9.35v19.68h-9.35Z"/><path class="cls-1" d="M371.14,300.27l-.69.28-7.8,7.8.2.21-.49.49V374.7l1,1h34.44l.49-.49.2.2,7.8-7.8.29-.69V301.25l-1-1Zm25.66,73.45H364.32V310H396.8Zm7.8-7.23-5.84,5.84V309.05l-1-1H365.71l5.84-5.84H404.6Z"/><path class="cls-1" d="M371.14,415.35l-.49.49-.2-.2-7.8,7.8-.29.69v65.65l1,1h34.44l.69-.28,7.8-7.8-.2-.2.49-.49V416.33l-1-1Zm1,2H404.6V481H372.12Zm25.26,71.5H364.32V424.54l5.84-5.84V482l1,1h32.08Z"/><path class="cls-1" d="M386.21,569.29l1-1V546.68l-1-1h-11.3l-1,1v21.63l1,1Zm-10.32-21.63h9.35v19.67h-9.35Z"/><path class="cls-1" d="M386.21,598.4l1-1V575.79l-1-1h-11.3l-1,1v21.63l1,1Zm-10.32-21.63h9.35v19.67h-9.35Z"/><path class="cls-1" d="M371.14,530.44l-.69.29-7.8,7.8.2.2-.49.49v65.65l1,1h34.44l.49-.49.2.21,7.8-7.8.29-.7V531.42l-1-1Zm25.66,73.45H364.32V540.2H396.8Zm7.8-7.22-5.84,5.84V539.22l-1-1H365.71l5.84-5.84H404.6Z"/><path class="cls-1" d="M371.14,645.53l-.49.49-.2-.2-7.8,7.8-.29.69V720l1,1h34.44l.69-.29,7.8-7.8-.2-.2.49-.49V646.51l-1-1Zm1,2H404.6v63.69H372.12ZM397.38,719H364.32V654.72l5.84-5.85v63.29l1,1h32.08Z"/><path class="cls-1" d="M386.21,799.47l1-1V776.85l-1-1h-11.3l-1,1v21.64l1,1Zm-10.32-21.64h9.35v19.68h-9.35Z"/><path class="cls-1" d="M386.21,828.58l1-1V806l-1-1h-11.3l-1,1V827.6l1,1Zm-10.32-21.64h9.35v19.68h-9.35Z"/><path class="cls-1" d="M371.14,760.62l-.69.29-7.8,7.8.2.2-.49.49v65.65l1,1h34.44l.49-.49.2.2,7.8-7.8.29-.69V761.6l-1-1Zm25.66,73.45H364.32V770.38H396.8Zm7.8-7.23-5.84,5.85V769.4l-1-1H365.71l5.84-5.84H404.6Z"/><path class="cls-1" d="M371.14,875.71l-.49.49-.2-.2-7.8,7.8-.29.69v65.65l1,1h34.44l.69-.29,7.8-7.8-.2-.2.49-.49V876.69l-1-1Zm1,2H404.6v63.69H372.12Zm25.26,71.49H364.32V884.89l5.84-5.84v63.29l1,1h32.08Z"/><path class="cls-1" d="M386.21,1029.64l1-1V1007l-1-1h-11.3l-1,1v21.64l1,1ZM375.89,1008h9.35v19.68h-9.35Z"/><path class="cls-1" d="M386.21,1058.75l1-1v-21.64l-1-1h-11.3l-1,1v21.64l1,1Zm-10.32-21.63h9.35v19.68h-9.35Z"/><path class="cls-1" d="M371.14,990.8l-.69.28-7.8,7.81.2.2-.49.49v65.65l1,1h34.44l.49-.49.2.2,7.8-7.8.29-.69V991.78l-1-1Zm25.66,73.45H364.32v-63.69H396.8Zm7.8-7.23-5.84,5.85V999.58l-1-1H365.71l5.84-5.84H404.6Z"/><path class="cls-1" d="M458.79,50.36l-1,1V73l1,1h11.3l1-1V51.34l-1-1ZM469.11,72h-9.34V52.31h9.34Z"/><path class="cls-1" d="M458.79,21.25l-1,1V43.86l1,1h11.3l1-1V22.23l-1-1Zm10.32,21.63h-9.34V23.2h9.34Z"/><path class="cls-1" d="M482.35,14.08l-.2.2-.49-.49H447.22l-1,1V80.42l.49.49-.2.21,7.8,7.8.69.28h34.44l1-1V22.57l-.29-.69ZM448.2,15.75h32.48V79.44H448.2Zm40.28,71.49H455.42l-5.84-5.84h32.08l1-1V17.14L488.48,23Z"/><path class="cls-1" d="M490.15,137l-7.8-7.8-.69-.29H447.22l-1,1v65.65l.29.69,7.8,7.8.2-.2.49.49h34.44l1-1V137.66l-.49-.49Zm-41.95-6.13h33.05l5.84,5.84H455l-1,1V201l-5.84-5.85Zm40.28,71.49H456V138.64h32.48Z"/><path class="cls-1" d="M458.79,280.53l-1,1v21.64l1,1h11.3l1-1V281.51l-1-1Zm10.32,21.64h-9.34V282.49h9.34Z"/><path class="cls-1" d="M458.79,251.42l-1,1V274l1,1h11.3l1-1V252.4l-1-1Zm10.32,21.64h-9.34V253.38h9.34Z"/><path class="cls-1" d="M482.35,244.26l-.2.2-.49-.49H447.22l-1,1V310.6l.49.49-.2.2,7.8,7.8.69.29h34.44l1-1V252.75l-.29-.69Zm-34.15,1.67h32.48v63.69H448.2Zm40.28,71.49H455.42l-5.84-5.84h32.08l1-1V247.32l5.84,5.84Z"/><path class="cls-1" d="M490.15,367.15l-7.8-7.8-.69-.29H447.22l-1,1v65.65l.29.69,7.8,7.8.2-.2.49.49h34.44l1-1V367.84l-.49-.49ZM448.2,361h33.05l5.84,5.84H455l-1,1v63.28l-5.84-5.84Zm40.28,71.49H456V368.82h32.48Z"/><path class="cls-1" d="M458.79,510.71l-1,1v21.63l1,1h11.3l1-1V511.69l-1-1Zm10.32,21.64h-9.34V512.67h9.34Z"/><path class="cls-1" d="M458.79,481.6l-1,1v21.63l1,1h11.3l1-1V482.58l-1-1Zm10.32,21.64h-9.34V483.56h9.34Z"/><path class="cls-1" d="M482.35,474.43l-.2.21-.49-.49H447.22l-1,1v65.65l.49.49-.2.2,7.8,7.8.69.29h34.44l1-1V482.93l-.29-.7Zm-34.15,1.68h32.48V539.8H448.2Zm40.28,71.49H455.42l-5.84-5.84h32.08l1-1V477.49l5.84,5.84Z"/><path class="cls-1" d="M490.15,597.32l-7.8-7.8-.69-.28H447.22l-1,1v65.66l.29.69,7.8,7.8.2-.2.49.49h34.44l1-1V598l-.49-.49Zm-41.95-6.13h33.05l5.84,5.84H455l-1,1V661.3l-5.84-5.84Zm40.28,71.5H456V599h32.48Z"/><path class="cls-1" d="M458.79,740.88l-1,1V763.5l1,1h11.3l1-1V741.86l-1-1Zm10.32,21.64h-9.34V742.84h9.34Z"/><path class="cls-1" d="M458.79,711.78l-1,1v21.64l1,1h11.3l1-1V712.75l-1-1Zm10.32,21.63h-9.34V713.73h9.34Z"/><path class="cls-1" d="M482.35,704.61l-.2.2-.49-.49H447.22l-1,1V771l.49.49-.2.2,7.8,7.8.69.28h34.44l1-1V713.1l-.29-.69Zm-34.15,1.67h32.48V770H448.2Zm40.28,71.5H455.42l-5.84-5.85h32.08l1-1V707.67l5.84,5.84Z"/><path class="cls-1" d="M490.15,827.5l-7.8-7.8-.69-.29H447.22l-1,1V886l.29.69,7.8,7.81.2-.21.49.49h34.44l1-1V828.19l-.49-.49Zm-41.95-6.13h33.05l5.84,5.84H455l-1,1v63.29l-5.84-5.84Zm40.28,71.49H456V829.17h32.48Z"/><path class="cls-1" d="M458.79,971.06l-1,1v21.64l1,1h11.3l1-1V972l-1-1Zm10.32,21.64h-9.34V973h9.34Z"/><path class="cls-1" d="M458.79,942l-1,1v21.64l1,1h11.3l1-1V942.93l-1-1Zm10.32,21.64h-9.34V943.91h9.34Z"/><path class="cls-1" d="M482.35,934.79l-.2.2-.49-.49H447.22l-1,1v65.65l.49.49-.2.2,7.8,7.81.69.28h34.44l1-1V943.28l-.29-.69Zm-34.15,1.67h32.48v63.69H448.2ZM488.48,1008H455.42l-5.84-5.84h32.08l1-1V937.85l5.84,5.84Z"/><path class="cls-1" d="M554,108.94l1-1V86.32l-1-1H542.66l-1,1V108l1,1ZM543.64,87.3H553V107h-9.35Z"/><path class="cls-1" d="M554,138.05l1-1V115.43l-1-1H542.66l-1,1v21.64l1,1Zm-10.33-21.64H553v19.68h-9.35Z"/><path class="cls-1" d="M538.89,70.09l-.69.29-7.8,7.8.2.2-.48.49v65.65l1,1h34.44L566,145l.2.2,7.8-7.8.29-.69V71.07l-1-1Zm25.66,73.45H532.07V79.85h32.48Zm7.8-7.23-5.84,5.85V78.87l-1-1H533.46l5.84-5.84h33.05Z"/><path class="cls-1" d="M538.89,185.18l-.49.49-.2-.21-7.8,7.81-.28.69v65.65l1,1h34.44l.69-.29,7.8-7.8-.2-.2.49-.49V186.16l-1-1Zm1,2h32.48v63.69H539.87Zm25.26,71.49H532.07V194.36l5.85-5.84v63.29l1,1H571Z"/><path class="cls-1" d="M554,339.11l1-1V316.5l-1-1H542.66l-1,1v21.64l1,1Zm-10.33-21.63H553v19.68h-9.35Z"/><path class="cls-1" d="M554,368.22l1-1V345.61l-1-1H542.66l-1,1v21.63l1,1Zm-10.33-21.63H553v19.68h-9.35Z"/><path class="cls-1" d="M538.89,300.27l-.69.28-7.8,7.8.2.21-.48.49V374.7l1,1h34.44l.49-.49.2.2,7.8-7.8.29-.69V301.25l-1-1Zm25.66,73.45H532.07V310h32.48Zm7.8-7.23-5.84,5.84V309.05l-1-1H533.46l5.84-5.84h33.05Z"/><path class="cls-1" d="M538.89,415.35l-.49.49-.2-.2-7.8,7.8-.28.69v65.65l1,1h34.44l.69-.28,7.8-7.8-.2-.2.49-.49V416.33l-1-1Zm1,2h32.48V481H539.87Zm25.26,71.5H532.07V424.54l5.85-5.84V482l1,1H571Z"/><path class="cls-1" d="M554,569.29l1-1V546.68l-1-1H542.66l-1,1v21.63l1,1Zm-10.33-21.63H553v19.67h-9.35Z"/><path class="cls-1" d="M554,598.4l1-1V575.79l-1-1H542.66l-1,1v21.63l1,1Zm-10.33-21.63H553v19.67h-9.35Z"/><path class="cls-1" d="M538.89,530.44l-.69.29-7.8,7.8.2.2-.48.49v65.65l1,1h34.44l.49-.49.2.21,7.8-7.8.29-.7V531.42l-1-1Zm25.66,73.45H532.07V540.2h32.48Zm7.8-7.22-5.84,5.84V539.22l-1-1H533.46l5.84-5.84h33.05Z"/><path class="cls-1" d="M538.89,645.53l-.49.49-.2-.2-7.8,7.8-.28.69V720l1,1h34.44l.69-.29,7.8-7.8-.2-.2.49-.49V646.51l-1-1Zm1,2h32.48v63.69H539.87ZM565.13,719H532.07V654.72l5.85-5.85v63.29l1,1H571Z"/><path class="cls-1" d="M554,799.47l1-1V776.85l-1-1H542.66l-1,1v21.64l1,1Zm-10.33-21.64H553v19.68h-9.35Z"/><path class="cls-1" d="M554,828.58l1-1V806l-1-1H542.66l-1,1V827.6l1,1Zm-10.33-21.64H553v19.68h-9.35Z"/><path class="cls-1" d="M538.89,760.62l-.69.29-7.8,7.8.2.2-.48.49v65.65l1,1h34.44l.49-.49.2.2,7.8-7.8.29-.69V761.6l-1-1Zm25.66,73.45H532.07V770.38h32.48Zm7.8-7.23-5.84,5.85V769.4l-1-1H533.46l5.84-5.84h33.05Z"/><path class="cls-1" d="M538.89,875.71l-.49.49-.2-.2-7.8,7.8-.28.69v65.65l1,1h34.44l.69-.29L574,943l-.2-.2.49-.49V876.69l-1-1Zm1,2h32.48v63.69H539.87Zm25.26,71.49H532.07V884.89l5.85-5.84v63.29l1,1H571Z"/><path class="cls-1" d="M554,1029.64l1-1V1007l-1-1H542.66l-1,1v21.64l1,1ZM543.64,1008H553v19.68h-9.35Z"/><path class="cls-1" d="M554,1058.75l1-1v-21.64l-1-1H542.66l-1,1v21.64l1,1Zm-10.33-21.63H553v19.68h-9.35Z"/><path class="cls-1" d="M538.89,990.8l-.69.28-7.8,7.81.2.2-.48.49v65.65l1,1h34.44l.49-.49.2.2,7.8-7.8.29-.69V991.78l-1-1Zm25.66,73.45H532.07v-63.69h32.48Zm7.8-7.23-5.84,5.85V999.58l-1-1H533.46l5.84-5.84h33.05Z"/><path class="cls-1" d="M626.54,50.36l-1,1V73l1,1h11.3l1-1V51.34l-1-1ZM636.86,72h-9.34V52.31h9.34Z"/><path class="cls-1" d="M626.54,21.25l-1,1V43.86l1,1h11.3l1-1V22.23l-1-1Zm10.32,21.63h-9.34V23.2h9.34Z"/><path class="cls-1" d="M650.1,14.08l-.2.2-.49-.49H615l-1,1V80.42l.49.49-.2.21,7.8,7.8.69.28h34.44l1-1V22.57l-.29-.69ZM616,15.75h32.48V79.44H616Zm40.28,71.49H623.18l-5.85-5.84h32.08l1-1V17.14L656.23,23Z"/><path class="cls-1" d="M657.9,137l-7.8-7.8-.69-.29H615l-1,1v65.65l.29.69,7.8,7.8.2-.2.49.49h34.44l1-1V137.66l-.49-.49ZM616,130.84h33l5.84,5.84H622.77l-1,1V201L616,195.1Zm40.28,71.49H623.75V138.64h32.48Z"/><path class="cls-1" d="M626.54,280.53l-1,1v21.64l1,1h11.3l1-1V281.51l-1-1Zm10.32,21.64h-9.34V282.49h9.34Z"/><path class="cls-1" d="M626.54,251.42l-1,1V274l1,1h11.3l1-1V252.4l-1-1Zm10.32,21.64h-9.34V253.38h9.34Z"/><path class="cls-1" d="M650.1,244.26l-.2.2-.49-.49H615l-1,1V310.6l.49.49-.2.2,7.8,7.8.69.29h34.44l1-1V252.75l-.29-.69ZM616,245.93h32.48v63.69H616Zm40.28,71.49H623.18l-5.85-5.84h32.08l1-1V247.32l5.84,5.84Z"/><path class="cls-1" d="M657.9,367.15l-7.8-7.8-.69-.29H615l-1,1v65.65l.29.69,7.8,7.8.2-.2.49.49h34.44l1-1V367.84l-.49-.49ZM616,361h33l5.84,5.84H622.77l-1,1v63.28L616,425.28Zm40.28,71.49H623.75V368.82h32.48Z"/><path class="cls-1" d="M626.54,510.71l-1,1v21.63l1,1h11.3l1-1V511.69l-1-1Zm10.32,21.64h-9.34V512.67h9.34Z"/><path class="cls-1" d="M626.54,481.6l-1,1v21.63l1,1h11.3l1-1V482.58l-1-1Zm10.32,21.64h-9.34V483.56h9.34Z"/><path class="cls-1" d="M650.1,474.43l-.2.21-.49-.49H615l-1,1v65.65l.49.49-.2.2,7.8,7.8.69.29h34.44l1-1V482.93l-.29-.7ZM616,476.11h32.48V539.8H616Zm40.28,71.49H623.18l-5.85-5.84h32.08l1-1V477.49l5.84,5.84Z"/><path class="cls-1" d="M657.9,597.32l-7.8-7.8-.69-.28H615l-1,1v65.66l.29.69,7.8,7.8.2-.2.49.49h34.44l1-1V598l-.49-.49ZM616,591.19h33l5.84,5.84H622.77l-1,1V661.3L616,655.46Zm40.28,71.5H623.75V599h32.48Z"/><path class="cls-1" d="M626.54,740.88l-1,1V763.5l1,1h11.3l1-1V741.86l-1-1Zm10.32,21.64h-9.34V742.84h9.34Z"/><path class="cls-1" d="M626.54,711.78l-1,1v21.64l1,1h11.3l1-1V712.75l-1-1Zm10.32,21.63h-9.34V713.73h9.34Z"/><path class="cls-1" d="M650.1,704.61l-.2.2-.49-.49H615l-1,1V771l.49.49-.2.2,7.8,7.8.69.28h34.44l1-1V713.1l-.29-.69ZM616,706.28h32.48V770H616Zm40.28,71.5H623.18l-5.85-5.85h32.08l1-1V707.67l5.84,5.84Z"/><path class="cls-1" d="M657.9,827.5l-7.8-7.8-.69-.29H615l-1,1V886l.29.69,7.8,7.81.2-.21.49.49h34.44l1-1V828.19l-.49-.49ZM616,821.37h33l5.84,5.84H622.77l-1,1v63.29L616,885.64Zm40.28,71.49H623.75V829.17h32.48Z"/><path class="cls-1" d="M626.54,971.06l-1,1v21.64l1,1h11.3l1-1V972l-1-1Zm10.32,21.64h-9.34V973h9.34Z"/><path class="cls-1" d="M626.54,942l-1,1v21.64l1,1h11.3l1-1V942.93l-1-1Zm10.32,21.64h-9.34V943.91h9.34Z"/><path class="cls-1" d="M650.1,934.79l-.2.2-.49-.49H615l-1,1v65.65l.49.49-.2.2,7.8,7.81.69.28h34.44l1-1V943.28l-.29-.69ZM616,936.46h32.48v63.69H616ZM656.23,1008H623.18l-5.85-5.84h32.08l1-1V937.85l5.84,5.84Z"/><path class="cls-1" d="M721.72,108.94l1-1V86.32l-1-1H710.41l-1,1V108l1,1ZM711.39,87.3h9.35V107h-9.35Z"/><path class="cls-1" d="M721.72,138.05l1-1V115.43l-1-1H710.41l-1,1v21.64l1,1Zm-10.33-21.64h9.35v19.68h-9.35Z"/><path class="cls-1" d="M706.64,70.09l-.69.29-7.8,7.8.2.2-.48.49v65.65l1,1h34.43l.49-.49.21.2,7.79-7.8.29-.69V71.07l-1-1Zm25.66,73.45H699.82V79.85H732.3Zm7.8-7.23-5.84,5.85V78.87l-1-1H701.21l5.84-5.84H740.1Z"/><path class="cls-1" d="M706.64,185.18l-.49.49-.2-.21-7.8,7.81-.28.69v65.65l1,1h34.43l.7-.29,7.79-7.8-.2-.2.49-.49V186.16l-1-1Zm1,2H740.1v63.69H707.63Zm25.25,71.49H699.82V194.36l5.85-5.84v63.29l1,1h32.08Z"/><path class="cls-1" d="M721.72,339.11l1-1V316.5l-1-1H710.41l-1,1v21.64l1,1Zm-10.33-21.63h9.35v19.68h-9.35Z"/><path class="cls-1" d="M721.72,368.22l1-1V345.61l-1-1H710.41l-1,1v21.63l1,1Zm-10.33-21.63h9.35v19.68h-9.35Z"/><path class="cls-1" d="M706.64,300.27l-.69.28-7.8,7.8.2.21-.48.49V374.7l1,1h34.43l.49-.49.21.2,7.79-7.8.29-.69V301.25l-1-1Zm25.66,73.45H699.82V310H732.3Zm7.8-7.23-5.84,5.84V309.05l-1-1H701.21l5.84-5.84H740.1Z"/><path class="cls-1" d="M706.64,415.35l-.49.49-.2-.2-7.8,7.8-.28.69v65.65l1,1h34.43l.7-.28,7.79-7.8-.2-.2.49-.49V416.33l-1-1Zm1,2H740.1V481H707.63Zm25.25,71.5H699.82V424.54l5.85-5.84V482l1,1h32.08Z"/><path class="cls-1" d="M721.72,569.29l1-1V546.68l-1-1H710.41l-1,1v21.63l1,1Zm-10.33-21.63h9.35v19.67h-9.35Z"/><path class="cls-1" d="M721.72,598.4l1-1V575.79l-1-1H710.41l-1,1v21.63l1,1Zm-10.33-21.63h9.35v19.67h-9.35Z"/><path class="cls-1" d="M706.64,530.44l-.69.29-7.8,7.8.2.2-.48.49v65.65l1,1h34.43l.49-.49.21.21,7.79-7.8.29-.7V531.42l-1-1Zm25.66,73.45H699.82V540.2H732.3Zm7.8-7.22-5.84,5.84V539.22l-1-1H701.21l5.84-5.84H740.1Z"/><path class="cls-1" d="M706.64,645.53l-.49.49-.2-.2-7.8,7.8-.28.69V720l1,1h34.43l.7-.29,7.79-7.8-.2-.2.49-.49V646.51l-1-1Zm1,2H740.1v63.69H707.63ZM732.88,719H699.82V654.72l5.85-5.85v63.29l1,1h32.08Z"/><path class="cls-1" d="M721.72,799.47l1-1V776.85l-1-1H710.41l-1,1v21.64l1,1Zm-10.33-21.64h9.35v19.68h-9.35Z"/><path class="cls-1" d="M721.72,828.58l1-1V806l-1-1H710.41l-1,1V827.6l1,1Zm-10.33-21.64h9.35v19.68h-9.35Z"/><path class="cls-1" d="M706.64,760.62l-.69.29-7.8,7.8.2.2-.48.49v65.65l1,1h34.43l.49-.49.21.2,7.79-7.8.29-.69V761.6l-1-1Zm25.66,73.45H699.82V770.38H732.3Zm7.8-7.23-5.84,5.85V769.4l-1-1H701.21l5.84-5.84H740.1Z"/><path class="cls-1" d="M706.64,875.71l-.49.49-.2-.2-7.8,7.8-.28.69v65.65l1,1h34.43l.7-.29,7.79-7.8-.2-.2.49-.49V876.69l-1-1Zm1,2H740.1v63.69H707.63Zm25.25,71.49H699.82V884.89l5.85-5.84v63.29l1,1h32.08Z"/><path class="cls-1" d="M721.72,1029.64l1-1V1007l-1-1H710.41l-1,1v21.64l1,1ZM711.39,1008h9.35v19.68h-9.35Z"/><path class="cls-1" d="M721.72,1058.75l1-1v-21.64l-1-1H710.41l-1,1v21.64l1,1Zm-10.33-21.63h9.35v19.68h-9.35Z"/><path class="cls-1" d="M706.64,990.8l-.69.28-7.8,7.81.2.2-.48.49v65.65l1,1h34.43l.49-.49.21.2,7.79-7.8.29-.69V991.78l-1-1Zm25.66,73.45H699.82v-63.69H732.3Zm7.8-7.23-5.84,5.85V999.58l-1-1H701.21l5.84-5.84H740.1Z"/><path class="cls-1" d="M794.29,50.36l-1,1V73l1,1h11.3l1-1V51.34l-1-1ZM804.61,72h-9.34V52.31h9.34Z"/><path class="cls-1" d="M794.29,21.25l-1,1V43.86l1,1h11.3l1-1V22.23l-1-1Zm10.32,21.63h-9.34V23.2h9.34Z"/><path class="cls-1" d="M817.85,14.08l-.2.2-.49-.49H782.72l-1,1V80.42l.49.49-.2.21,7.8,7.8.69.28H825l1-1V22.57l-.29-.69ZM783.7,15.75h32.48V79.44H783.7ZM824,87.24H790.93l-5.84-5.84h32.07l1-1V17.14L824,23Z"/><path class="cls-1" d="M825.65,137l-7.8-7.8-.69-.29H782.72l-1,1v65.65l.29.69,7.8,7.8.2-.2.49.49H825l1-1V137.66l-.49-.49Zm-41.95-6.13h33l5.84,5.84H790.52l-1,1V201l-5.84-5.85ZM824,202.33H791.5V138.64H824Z"/><path class="cls-1" d="M794.29,280.53l-1,1v21.64l1,1h11.3l1-1V281.51l-1-1Zm10.32,21.64h-9.34V282.49h9.34Z"/><path class="cls-1" d="M794.29,251.42l-1,1V274l1,1h11.3l1-1V252.4l-1-1Zm10.32,21.64h-9.34V253.38h9.34Z"/><path class="cls-1" d="M817.85,244.26l-.2.2-.49-.49H782.72l-1,1V310.6l.49.49-.2.2,7.8,7.8.69.29H825l1-1V252.75l-.29-.69Zm-34.15,1.67h32.48v63.69H783.7ZM824,317.42H790.93l-5.84-5.84h32.07l1-1V247.32l5.84,5.84Z"/><path class="cls-1" d="M825.65,367.15l-7.8-7.8-.69-.29H782.72l-1,1v65.65l.29.69,7.8,7.8.2-.2.49.49H825l1-1V367.84l-.49-.49ZM783.7,361h33l5.84,5.84H790.52l-1,1v63.28l-5.84-5.84ZM824,432.51H791.5V368.82H824Z"/><path class="cls-1" d="M794.29,510.71l-1,1v21.63l1,1h11.3l1-1V511.69l-1-1Zm10.32,21.64h-9.34V512.67h9.34Z"/><path class="cls-1" d="M794.29,481.6l-1,1v21.63l1,1h11.3l1-1V482.58l-1-1Zm10.32,21.64h-9.34V483.56h9.34Z"/><path class="cls-1" d="M817.85,474.43l-.2.21-.49-.49H782.72l-1,1v65.65l.49.49-.2.2,7.8,7.8.69.29H825l1-1V482.93l-.29-.7Zm-34.15,1.68h32.48V539.8H783.7ZM824,547.6H790.93l-5.84-5.84h32.07l1-1V477.49l5.84,5.84Z"/><path class="cls-1" d="M825.65,597.32l-7.8-7.8-.69-.28H782.72l-1,1v65.66l.29.69,7.8,7.8.2-.2.49.49H825l1-1V598l-.49-.49Zm-41.95-6.13h33l5.84,5.84H790.52l-1,1V661.3l-5.84-5.84ZM824,662.69H791.5V599H824Z"/><path class="cls-1" d="M794.29,740.88l-1,1V763.5l1,1h11.3l1-1V741.86l-1-1Zm10.32,21.64h-9.34V742.84h9.34Z"/><path class="cls-1" d="M794.29,711.78l-1,1v21.64l1,1h11.3l1-1V712.75l-1-1Zm10.32,21.63h-9.34V713.73h9.34Z"/><path class="cls-1" d="M817.85,704.61l-.2.2-.49-.49H782.72l-1,1V771l.49.49-.2.2,7.8,7.8.69.28H825l1-1V713.1l-.29-.69Zm-34.15,1.67h32.48V770H783.7ZM824,777.78H790.93l-5.84-5.85h32.07l1-1V707.67l5.84,5.84Z"/><path class="cls-1" d="M825.65,827.5l-7.8-7.8-.69-.29H782.72l-1,1V886l.29.69,7.8,7.81.2-.21.49.49H825l1-1V828.19l-.49-.49Zm-41.95-6.13h33l5.84,5.84H790.52l-1,1v63.29l-5.84-5.84ZM824,892.86H791.5V829.17H824Z"/><path class="cls-1" d="M794.29,971.06l-1,1v21.64l1,1h11.3l1-1V972l-1-1Zm10.32,21.64h-9.34V973h9.34Z"/><path class="cls-1" d="M794.29,942l-1,1v21.64l1,1h11.3l1-1V942.93l-1-1Zm10.32,21.64h-9.34V943.91h9.34Z"/><path class="cls-1" d="M817.85,934.79l-.2.2-.49-.49H782.72l-1,1v65.65l.49.49-.2.2,7.8,7.81.69.28H825l1-1V943.28l-.29-.69Zm-34.15,1.67h32.48v63.69H783.7ZM824,1008H790.93l-5.84-5.84h32.07l1-1V937.85l5.84,5.84Z"/><path class="cls-1" d="M889.47,108.94l1-1V86.32l-1-1H878.16l-1,1V108l1,1ZM879.14,87.3h9.35V107h-9.35Z"/><path class="cls-1" d="M889.47,138.05l1-1V115.43l-1-1H878.16l-1,1v21.64l1,1Zm-10.33-21.64h9.35v19.68h-9.35Z"/><path class="cls-1" d="M874.4,70.09l-.7.29-7.8,7.8.21.2-.49.49v65.65l1,1H901l.49-.49.21.2,7.8-7.8.28-.69V71.07l-1-1Zm25.66,73.45H867.57V79.85h32.49Zm7.79-7.23L902,142.16V78.87l-1-1H869l5.84-5.84h33.05Z"/><path class="cls-1" d="M874.4,185.18l-.49.49-.21-.21-7.8,7.81-.28.69v65.65l1,1H901l.7-.29,7.8-7.8-.21-.2.49-.49V186.16l-1-1Zm1,2h32.48v63.69H875.37Zm25.26,71.49H867.57V194.36l5.85-5.84v63.29l1,1h32.07Z"/><path class="cls-1" d="M889.47,339.11l1-1V316.5l-1-1H878.16l-1,1v21.64l1,1Zm-10.33-21.63h9.35v19.68h-9.35Z"/><path class="cls-1" d="M889.47,368.22l1-1V345.61l-1-1H878.16l-1,1v21.63l1,1Zm-10.33-21.63h9.35v19.68h-9.35Z"/><path class="cls-1" d="M874.4,300.27l-.7.28-7.8,7.8.21.21-.49.49V374.7l1,1H901l.49-.49.21.2,7.8-7.8.28-.69V301.25l-1-1Zm25.66,73.45H867.57V310h32.49Zm7.79-7.23L902,372.33V309.05l-1-1H869l5.84-5.84h33.05Z"/><path class="cls-1" d="M874.4,415.35l-.49.49-.21-.2-7.8,7.8-.28.69v65.65l1,1H901l.7-.28,7.8-7.8-.21-.2.49-.49V416.33l-1-1Zm1,2h32.48V481H875.37Zm25.26,71.5H867.57V424.54l5.85-5.84V482l1,1h32.07Z"/><path class="cls-1" d="M889.47,569.29l1-1V546.68l-1-1H878.16l-1,1v21.63l1,1Zm-10.33-21.63h9.35v19.67h-9.35Z"/><path class="cls-1" d="M889.47,598.4l1-1V575.79l-1-1H878.16l-1,1v21.63l1,1Zm-10.33-21.63h9.35v19.67h-9.35Z"/><path class="cls-1" d="M874.4,530.44l-.7.29-7.8,7.8.21.2-.49.49v65.65l1,1H901l.49-.49.21.21,7.8-7.8.28-.7V531.42l-1-1Zm25.66,73.45H867.57V540.2h32.49Zm7.79-7.22L902,602.51V539.22l-1-1H869l5.84-5.84h33.05Z"/><path class="cls-1" d="M874.4,645.53l-.49.49-.21-.2-7.8,7.8-.28.69V720l1,1H901l.7-.29,7.8-7.8-.21-.2.49-.49V646.51l-1-1Zm1,2h32.48v63.69H875.37ZM900.63,719H867.57V654.72l5.85-5.85v63.29l1,1h32.07Z"/><path class="cls-1" d="M889.47,799.47l1-1V776.85l-1-1H878.16l-1,1v21.64l1,1Zm-10.33-21.64h9.35v19.68h-9.35Z"/><path class="cls-1" d="M889.47,828.58l1-1V806l-1-1H878.16l-1,1V827.6l1,1Zm-10.33-21.64h9.35v19.68h-9.35Z"/><path class="cls-1" d="M874.4,760.62l-.7.29-7.8,7.8.21.2-.49.49v65.65l1,1H901l.49-.49.21.2,7.8-7.8.28-.69V761.6l-1-1Zm25.66,73.45H867.57V770.38h32.49Zm7.79-7.23L902,832.69V769.4l-1-1H869l5.84-5.84h33.05Z"/><path class="cls-1" d="M874.4,875.71l-.49.49-.21-.2-7.8,7.8-.28.69v65.65l1,1H901l.7-.29,7.8-7.8-.21-.2.49-.49V876.69l-1-1Zm1,2h32.48v63.69H875.37Zm25.26,71.49H867.57V884.89l5.85-5.84v63.29l1,1h32.07Z"/><path class="cls-1" d="M889.47,1029.64l1-1V1007l-1-1H878.16l-1,1v21.64l1,1ZM879.14,1008h9.35v19.68h-9.35Z"/><path class="cls-1" d="M889.47,1058.75l1-1v-21.64l-1-1H878.16l-1,1v21.64l1,1Zm-10.33-21.63h9.35v19.68h-9.35Z"/><path class="cls-1" d="M874.4,990.8l-.7.28-7.8,7.81.21.2-.49.49v65.65l1,1H901l.49-.49.21.2,7.8-7.8.28-.69V991.78l-1-1Zm25.66,73.45H867.57v-63.69h32.49Zm7.79-7.23-5.84,5.85V999.58l-1-1H869l5.84-5.84h33.05Z"/><path class="cls-1" d="M962,50.36l-1,1V73l1,1h11.3l1-1V51.34l-1-1ZM972.36,72H963V52.31h9.34Z"/><path class="cls-1" d="M962,21.25l-1,1V43.86l1,1h11.3l1-1V22.23l-1-1Zm10.32,21.63H963V23.2h9.34Z"/><path class="cls-1" d="M985.6,14.08l-.2.2-.49-.49H950.47l-1,1V80.42l.49.49-.2.21,7.8,7.8.69.28h34.44l1-1V22.57l-.29-.69Zm-34.15,1.67h32.48V79.44H951.45Zm40.28,71.49H958.68l-5.85-5.84h32.08l1-1V17.14L991.73,23Z"/><path class="cls-1" d="M993.4,137l-7.8-7.8-.69-.29H950.47l-1,1v65.65l.29.69,7.8,7.8.2-.2.49.49h34.44l1-1V137.66l-.49-.49Zm-41.95-6.13h33l5.85,5.84H958.27l-1,1V201l-5.84-5.85Zm40.28,71.49H959.25V138.64h32.48Z"/><path class="cls-1" d="M962,280.53l-1,1v21.64l1,1h11.3l1-1V281.51l-1-1Zm10.32,21.64H963V282.49h9.34Z"/><path class="cls-1" d="M962,251.42l-1,1V274l1,1h11.3l1-1V252.4l-1-1Zm10.32,21.64H963V253.38h9.34Z"/><path class="cls-1" d="M985.6,244.26l-.2.2-.49-.49H950.47l-1,1V310.6l.49.49-.2.2,7.8,7.8.69.29h34.44l1-1V252.75l-.29-.69Zm-34.15,1.67h32.48v63.69H951.45Zm40.28,71.49H958.68l-5.85-5.84h32.08l1-1V247.32l5.84,5.84Z"/><path class="cls-1" d="M993.4,367.15l-7.8-7.8-.69-.29H950.47l-1,1v65.65l.29.69,7.8,7.8.2-.2.49.49h34.44l1-1V367.84l-.49-.49ZM951.45,361h33l5.85,5.84H958.27l-1,1v63.28l-5.84-5.84Zm40.28,71.49H959.25V368.82h32.48Z"/><path class="cls-1" d="M962,510.71l-1,1v21.63l1,1h11.3l1-1V511.69l-1-1Zm10.32,21.64H963V512.67h9.34Z"/><path class="cls-1" d="M962,481.6l-1,1v21.63l1,1h11.3l1-1V482.58l-1-1Zm10.32,21.64H963V483.56h9.34Z"/><path class="cls-1" d="M985.6,474.43l-.2.21-.49-.49H950.47l-1,1v65.65l.49.49-.2.2,7.8,7.8.69.29h34.44l1-1V482.93l-.29-.7Zm-34.15,1.68h32.48V539.8H951.45Zm40.28,71.49H958.68l-5.85-5.84h32.08l1-1V477.49l5.84,5.84Z"/><path class="cls-1" d="M993.4,597.32l-7.8-7.8-.69-.28H950.47l-1,1v65.66l.29.69,7.8,7.8.2-.2.49.49h34.44l1-1V598l-.49-.49Zm-41.95-6.13h33l5.85,5.84H958.27l-1,1V661.3l-5.84-5.84Zm40.28,71.5H959.25V599h32.48Z"/><path class="cls-1" d="M962,740.88l-1,1V763.5l1,1h11.3l1-1V741.86l-1-1Zm10.32,21.64H963V742.84h9.34Z"/><path class="cls-1" d="M962,711.78l-1,1v21.64l1,1h11.3l1-1V712.75l-1-1Zm10.32,21.63H963V713.73h9.34Z"/><path class="cls-1" d="M985.6,704.61l-.2.2-.49-.49H950.47l-1,1V771l.49.49-.2.2,7.8,7.8.69.28h34.44l1-1V713.1l-.29-.69Zm-34.15,1.67h32.48V770H951.45Zm40.28,71.5H958.68l-5.85-5.85h32.08l1-1V707.67l5.84,5.84Z"/><path class="cls-1" d="M993.4,827.5l-7.8-7.8-.69-.29H950.47l-1,1V886l.29.69,7.8,7.81.2-.21.49.49h34.44l1-1V828.19l-.49-.49Zm-41.95-6.13h33l5.85,5.84H958.27l-1,1v63.29l-5.84-5.84Zm40.28,71.49H959.25V829.17h32.48Z"/><path class="cls-1" d="M962,971.06l-1,1v21.64l1,1h11.3l1-1V972l-1-1Zm10.32,21.64H963V973h9.34Z"/><path class="cls-1" d="M962,942l-1,1v21.64l1,1h11.3l1-1V942.93l-1-1Zm10.32,21.64H963V943.91h9.34Z"/><path class="cls-1" d="M985.6,934.79l-.2.2-.49-.49H950.47l-1,1v65.65l.49.49-.2.2,7.8,7.81.69.28h34.44l1-1V943.28l-.29-.69Zm-34.15,1.67h32.48v63.69H951.45ZM991.73,1008H958.68l-5.85-5.84h32.08l1-1V937.85l5.84,5.84Z"/><path class="cls-1" d="M1057.22,108.94l1-1V86.32l-1-1h-11.31l-1,1V108l1,1ZM1046.89,87.3h9.35V107h-9.35Z"/><path class="cls-1" d="M1057.22,138.05l1-1V115.43l-1-1h-11.31l-1,1v21.64l1,1Zm-10.33-21.64h9.35v19.68h-9.35Z"/><path class="cls-1" d="M1042.15,70.09l-.7.29-7.8,7.8.21.2-.49.49v65.65l1,1h34.43l.49-.49.21.2,7.8-7.8.28-.69V71.07l-1-1Zm25.66,73.45h-32.49V79.85h32.49Zm7.8-7.23-5.85,5.85V78.87l-1-1h-32.07l5.84-5.84h33.06Z"/><path class="cls-1" d="M1042.15,185.18l-.49.49-.21-.21-7.8,7.81-.28.69v65.65l1,1h34.43l.7-.29,7.8-7.8-.21-.2.49-.49V186.16l-1-1Zm1,2h32.48v63.69h-32.48Zm25.25,71.49h-33.06V194.36l5.85-5.84v63.29l1,1h32.07Z"/><path class="cls-1" d="M1057.22,339.11l1-1V316.5l-1-1h-11.31l-1,1v21.64l1,1Zm-10.33-21.63h9.35v19.68h-9.35Z"/><path class="cls-1" d="M1057.22,368.22l1-1V345.61l-1-1h-11.31l-1,1v21.63l1,1Zm-10.33-21.63h9.35v19.68h-9.35Z"/><path class="cls-1" d="M1042.15,300.27l-.7.28-7.8,7.8.21.21-.49.49V374.7l1,1h34.43l.49-.49.21.2,7.8-7.8.28-.69V301.25l-1-1Zm25.66,73.45h-32.49V310h32.49Zm7.8-7.23-5.85,5.84V309.05l-1-1h-32.07l5.84-5.84h33.06Z"/><path class="cls-1" d="M1042.15,415.35l-.49.49-.21-.2-7.8,7.8-.28.69v65.65l1,1h34.43l.7-.28,7.8-7.8-.21-.2.49-.49V416.33l-1-1Zm1,2h32.48V481h-32.48Zm25.25,71.5h-33.06V424.54l5.85-5.84V482l1,1h32.07Z"/><path class="cls-1" d="M1057.22,569.29l1-1V546.68l-1-1h-11.31l-1,1v21.63l1,1Zm-10.33-21.63h9.35v19.67h-9.35Z"/><path class="cls-1" d="M1057.22,598.4l1-1V575.79l-1-1h-11.31l-1,1v21.63l1,1Zm-10.33-21.63h9.35v19.67h-9.35Z"/><path class="cls-1" d="M1042.15,530.44l-.7.29-7.8,7.8.21.2-.49.49v65.65l1,1h34.43l.49-.49.21.21,7.8-7.8.28-.7V531.42l-1-1Zm25.66,73.45h-32.49V540.2h32.49Zm7.8-7.22-5.85,5.84V539.22l-1-1h-32.07l5.84-5.84h33.06Z"/><path class="cls-1" d="M1042.15,645.53l-.49.49-.21-.2-7.8,7.8-.28.69V720l1,1h34.43l.7-.29,7.8-7.8-.21-.2.49-.49V646.51l-1-1Zm1,2h32.48v63.69h-32.48ZM1068.38,719h-33.06V654.72l5.85-5.85v63.29l1,1h32.07Z"/><path class="cls-1" d="M1057.22,799.47l1-1V776.85l-1-1h-11.31l-1,1v21.64l1,1Zm-10.33-21.64h9.35v19.68h-9.35Z"/><path class="cls-1" d="M1057.22,828.58l1-1V806l-1-1h-11.31l-1,1V827.6l1,1Zm-10.33-21.64h9.35v19.68h-9.35Z"/><path class="cls-1" d="M1042.15,760.62l-.7.29-7.8,7.8.21.2-.49.49v65.65l1,1h34.43l.49-.49.21.2,7.8-7.8.28-.69V761.6l-1-1Zm25.66,73.45h-32.49V770.38h32.49Zm7.8-7.23-5.85,5.85V769.4l-1-1h-32.07l5.84-5.84h33.06Z"/><path class="cls-1" d="M1042.15,875.71l-.49.49-.21-.2-7.8,7.8-.28.69v65.65l1,1h34.43l.7-.29,7.8-7.8-.21-.2.49-.49V876.69l-1-1Zm1,2h32.48v63.69h-32.48Zm25.25,71.49h-33.06V884.89l5.85-5.84v63.29l1,1h32.07Z"/><path class="cls-1" d="M1057.22,1029.64l1-1V1007l-1-1h-11.31l-1,1v21.64l1,1ZM1046.89,1008h9.35v19.68h-9.35Z"/><path class="cls-1" d="M1057.22,1058.75l1-1v-21.64l-1-1h-11.31l-1,1v21.64l1,1Zm-10.33-21.63h9.35v19.68h-9.35Z"/><path class="cls-1" d="M1042.15,990.8l-.7.28-7.8,7.81.21.2-.49.49v65.65l1,1h34.43l.49-.49.21.2,7.8-7.8.28-.69V991.78l-1-1Zm25.66,73.45h-32.49v-63.69h32.49Zm7.8-7.23-5.85,5.85V999.58l-1-1h-32.07l5.84-5.84h33.06Z"/><path class="cls-1" d="M1129.79,50.36l-1,1V73l1,1h11.3l1-1V51.34l-1-1ZM1140.11,72h-9.34V52.31h9.34Z"/><path class="cls-1" d="M1129.79,21.25l-1,1V43.86l1,1h11.3l1-1V22.23l-1-1Zm10.32,21.63h-9.34V23.2h9.34Z"/><path class="cls-1" d="M1153.35,14.08l-.2.2-.49-.49h-34.44l-1,1V80.42l.49.49-.2.21,7.8,7.8.69.28h34.44l1-1V22.57l-.29-.69Zm-34.15,1.67h32.48V79.44H1119.2Zm40.28,71.49h-33l-5.84-5.84h32.07l1-1V17.14l5.84,5.84Z"/><path class="cls-1" d="M1161.15,137l-7.8-7.8-.69-.29h-34.44l-1,1v65.65l.29.69,7.8,7.8.2-.2.49.49h34.44l1-1V137.66l-.49-.49Zm-42-6.13h33.06l5.84,5.84H1126l-1,1V201l-5.84-5.85Zm40.28,71.49H1127V138.64h32.48Z"/><path class="cls-1" d="M1129.79,280.53l-1,1v21.64l1,1h11.3l1-1V281.51l-1-1Zm10.32,21.64h-9.34V282.49h9.34Z"/><path class="cls-1" d="M1129.79,251.42l-1,1V274l1,1h11.3l1-1V252.4l-1-1Zm10.32,21.64h-9.34V253.38h9.34Z"/><path class="cls-1" d="M1153.35,244.26l-.2.2-.49-.49h-34.44l-1,1V310.6l.49.49-.2.2,7.8,7.8.69.29h34.44l1-1V252.75l-.29-.69Zm-34.15,1.67h32.48v63.69H1119.2Zm40.28,71.49h-33l-5.84-5.84h32.07l1-1V247.32l5.84,5.84Z"/><path class="cls-1" d="M1161.15,367.15l-7.8-7.8-.69-.29h-34.44l-1,1v65.65l.29.69,7.8,7.8.2-.2.49.49h34.44l1-1V367.84l-.49-.49Zm-42-6.13h33.06l5.84,5.84H1126l-1,1v63.28l-5.84-5.84Zm40.28,71.49H1127V368.82h32.48Z"/><path class="cls-1" d="M1129.79,510.71l-1,1v21.63l1,1h11.3l1-1V511.69l-1-1Zm10.32,21.64h-9.34V512.67h9.34Z"/><path class="cls-1" d="M1129.79,481.6l-1,1v21.63l1,1h11.3l1-1V482.58l-1-1Zm10.32,21.64h-9.34V483.56h9.34Z"/><path class="cls-1" d="M1153.35,474.43l-.2.21-.49-.49h-34.44l-1,1v65.65l.49.49-.2.2,7.8,7.8.69.29h34.44l1-1V482.93l-.29-.7Zm-34.15,1.68h32.48V539.8H1119.2Zm40.28,71.49h-33l-5.84-5.84h32.07l1-1V477.49l5.84,5.84Z"/><path class="cls-1" d="M1161.15,597.32l-7.8-7.8-.69-.28h-34.44l-1,1v65.66l.29.69,7.8,7.8.2-.2.49.49h34.44l1-1V598l-.49-.49Zm-42-6.13h33.06l5.84,5.84H1126l-1,1V661.3l-5.84-5.84Zm40.28,71.5H1127V599h32.48Z"/><path class="cls-1" d="M1129.79,740.88l-1,1V763.5l1,1h11.3l1-1V741.86l-1-1Zm10.32,21.64h-9.34V742.84h9.34Z"/><path class="cls-1" d="M1129.79,711.78l-1,1v21.64l1,1h11.3l1-1V712.75l-1-1Zm10.32,21.63h-9.34V713.73h9.34Z"/><path class="cls-1" d="M1153.35,704.61l-.2.2-.49-.49h-34.44l-1,1V771l.49.49-.2.2,7.8,7.8.69.28h34.44l1-1V713.1l-.29-.69Zm-34.15,1.67h32.48V770H1119.2Zm40.28,71.5h-33l-5.84-5.85h32.07l1-1V707.67l5.84,5.84Z"/><path class="cls-1" d="M1161.15,827.5l-7.8-7.8-.69-.29h-34.44l-1,1V886l.29.69,7.8,7.81.2-.21.49.49h34.44l1-1V828.19l-.49-.49Zm-42-6.13h33.06l5.84,5.84H1126l-1,1v63.29l-5.84-5.84Zm40.28,71.49H1127V829.17h32.48Z"/><path class="cls-1" d="M1129.79,971.06l-1,1v21.64l1,1h11.3l1-1V972l-1-1Zm10.32,21.64h-9.34V973h9.34Z"/><path class="cls-1" d="M1129.79,942l-1,1v21.64l1,1h11.3l1-1V942.93l-1-1Zm10.32,21.64h-9.34V943.91h9.34Z"/><path class="cls-1" d="M1153.35,934.79l-.2.2-.49-.49h-34.44l-1,1v65.65l.49.49-.2.2,7.8,7.81.69.28h34.44l1-1V943.28l-.29-.69Zm-34.15,1.67h32.48v63.69H1119.2Zm40.28,71.49h-33l-5.84-5.84h32.07l1-1V937.85l5.84,5.84Z"/><path class="cls-1" d="M1225,108.94l1-1V86.32l-1-1h-11.31l-1,1V108l1,1ZM1214.64,87.3H1224V107h-9.35Z"/><path class="cls-1" d="M1225,138.05l1-1V115.43l-1-1h-11.31l-1,1v21.64l1,1Zm-10.33-21.64H1224v19.68h-9.35Z"/><path class="cls-1" d="M1209.9,70.09l-.7.29-7.8,7.8.21.2-.49.49v65.65l1,1h34.44l.49-.49.2.2,7.8-7.8.29-.69V71.07l-1-1Zm25.66,73.45h-32.48V79.85h32.48Zm7.8-7.23-5.84,5.85V78.87l-1-1h-32.08l5.84-5.84h33.06Z"/><path class="cls-1" d="M1209.9,185.18l-.49.49-.21-.21-7.8,7.81-.28.69v65.65l1,1h34.44l.69-.29,7.8-7.8-.21-.2.5-.49V186.16l-1-1Zm1,2h32.48v63.69h-32.48Zm25.25,71.49h-33.05V194.36l5.84-5.84v63.29l1,1H1242Z"/><path class="cls-1" d="M1225,339.11l1-1V316.5l-1-1h-11.31l-1,1v21.64l1,1Zm-10.33-21.63H1224v19.68h-9.35Z"/><path class="cls-1" d="M1225,368.22l1-1V345.61l-1-1h-11.31l-1,1v21.63l1,1Zm-10.33-21.63H1224v19.68h-9.35Z"/><path class="cls-1" d="M1209.9,300.27l-.7.28-7.8,7.8.21.21-.49.49V374.7l1,1h34.44l.49-.49.2.2,7.8-7.8.29-.69V301.25l-1-1Zm25.66,73.45h-32.48V310h32.48Zm7.8-7.23-5.84,5.84V309.05l-1-1h-32.08l5.84-5.84h33.06Z"/><path class="cls-1" d="M1209.9,415.35l-.49.49-.21-.2-7.8,7.8-.28.69v65.65l1,1h34.44l.69-.28,7.8-7.8-.21-.2.5-.49V416.33l-1-1Zm1,2h32.48V481h-32.48Zm25.25,71.5h-33.05V424.54l5.84-5.84V482l1,1H1242Z"/><path class="cls-1" d="M1225,569.29l1-1V546.68l-1-1h-11.31l-1,1v21.63l1,1Zm-10.33-21.63H1224v19.67h-9.35Z"/><path class="cls-1" d="M1225,598.4l1-1V575.79l-1-1h-11.31l-1,1v21.63l1,1Zm-10.33-21.63H1224v19.67h-9.35Z"/><path class="cls-1" d="M1209.9,530.44l-.7.29-7.8,7.8.21.2-.49.49v65.65l1,1h34.44l.49-.49.2.21,7.8-7.8.29-.7V531.42l-1-1Zm25.66,73.45h-32.48V540.2h32.48Zm7.8-7.22-5.84,5.84V539.22l-1-1h-32.08l5.84-5.84h33.06Z"/><path class="cls-1" d="M1209.9,645.53l-.49.49-.21-.2-7.8,7.8-.28.69V720l1,1h34.44l.69-.29,7.8-7.8-.21-.2.5-.49V646.51l-1-1Zm1,2h32.48v63.69h-32.48ZM1236.13,719h-33.05V654.72l5.84-5.85v63.29l1,1H1242Z"/><path class="cls-1" d="M1225,799.47l1-1V776.85l-1-1h-11.31l-1,1v21.64l1,1Zm-10.33-21.64H1224v19.68h-9.35Z"/><path class="cls-1" d="M1225,828.58l1-1V806l-1-1h-11.31l-1,1V827.6l1,1Zm-10.33-21.64H1224v19.68h-9.35Z"/><path class="cls-1" d="M1209.9,760.62l-.7.29-7.8,7.8.21.2-.49.49v65.65l1,1h34.44l.49-.49.2.2,7.8-7.8.29-.69V761.6l-1-1Zm25.66,73.45h-32.48V770.38h32.48Zm7.8-7.23-5.84,5.85V769.4l-1-1h-32.08l5.84-5.84h33.06Z"/><path class="cls-1" d="M1209.9,875.71l-.49.49-.21-.2-7.8,7.8-.28.69v65.65l1,1h34.44l.69-.29,7.8-7.8-.21-.2.5-.49V876.69l-1-1Zm1,2h32.48v63.69h-32.48Zm25.25,71.49h-33.05V884.89l5.84-5.84v63.29l1,1H1242Z"/><path class="cls-1" d="M1225,1029.64l1-1V1007l-1-1h-11.31l-1,1v21.64l1,1ZM1214.64,1008H1224v19.68h-9.35Z"/><path class="cls-1" d="M1225,1058.75l1-1v-21.64l-1-1h-11.31l-1,1v21.64l1,1Zm-10.33-21.63H1224v19.68h-9.35Z"/><path class="cls-1" d="M1209.9,990.8l-.7.28-7.8,7.81.21.2-.49.49v65.65l1,1h34.44l.49-.49.2.2,7.8-7.8.29-.69V991.78l-1-1Zm25.66,73.45h-32.48v-63.69h32.48Zm7.8-7.23-5.84,5.85V999.58l-1-1h-32.08l5.84-5.84h33.06Z"/><path class="cls-1" d="M1297.54,50.36l-1,1V73l1,1h11.3l1-1V51.34l-1-1ZM1307.87,72h-9.35V52.31h9.35Z"/><path class="cls-1" d="M1297.54,21.25l-1,1V43.86l1,1h11.3l1-1V22.23l-1-1Zm10.33,21.63h-9.35V23.2h9.35Z"/><path class="cls-1" d="M1321.1,14.08l-.2.2-.49-.49H1286l-1,1V80.42l.49.49-.2.21,7.8,7.8.69.28h34.44l1-1V22.57l-.29-.69ZM1287,15.75h32.48V79.44H1287Zm40.28,71.49h-33l-5.84-5.84h32.07l1-1V17.14l5.84,5.84Z"/><path class="cls-1" d="M1328.9,137l-7.8-7.8-.69-.29H1286l-1,1v65.65l.29.69,7.8,7.8.2-.2.49.49h34.44l1-1V137.66l-.49-.49Zm-42-6.13H1320l5.84,5.84h-32.08l-1,1V201L1287,195.1Zm40.28,71.49h-32.48V138.64h32.48Z"/><path class="cls-1" d="M1297.54,280.53l-1,1v21.64l1,1h11.3l1-1V281.51l-1-1Zm10.33,21.64h-9.35V282.49h9.35Z"/><path class="cls-1" d="M1297.54,251.42l-1,1V274l1,1h11.3l1-1V252.4l-1-1Zm10.33,21.64h-9.35V253.38h9.35Z"/><path class="cls-1" d="M1321.1,244.26l-.2.2-.49-.49H1286l-1,1V310.6l.49.49-.2.2,7.8,7.8.69.29h34.44l1-1V252.75l-.29-.69ZM1287,245.93h32.48v63.69H1287Zm40.28,71.49h-33l-5.84-5.84h32.07l1-1V247.32l5.84,5.84Z"/><path class="cls-1" d="M1328.9,367.15l-7.8-7.8-.69-.29H1286l-1,1v65.65l.29.69,7.8,7.8.2-.2.49.49h34.44l1-1V367.84l-.49-.49ZM1287,361H1320l5.84,5.84h-32.08l-1,1v63.28l-5.84-5.84Zm40.28,71.49h-32.48V368.82h32.48Z"/><path class="cls-1" d="M1297.54,510.71l-1,1v21.63l1,1h11.3l1-1V511.69l-1-1Zm10.33,21.64h-9.35V512.67h9.35Z"/><path class="cls-1" d="M1297.54,481.6l-1,1v21.63l1,1h11.3l1-1V482.58l-1-1Zm10.33,21.64h-9.35V483.56h9.35Z"/><path class="cls-1" d="M1321.1,474.43l-.2.21-.49-.49H1286l-1,1v65.65l.49.49-.2.2,7.8,7.8.69.29h34.44l1-1V482.93l-.29-.7ZM1287,476.11h32.48V539.8H1287Zm40.28,71.49h-33l-5.84-5.84h32.07l1-1V477.49l5.84,5.84Z"/><path class="cls-1" d="M1328.9,597.32l-7.8-7.8-.69-.28H1286l-1,1v65.66l.29.69,7.8,7.8.2-.2.49.49h34.44l1-1V598l-.49-.49Zm-42-6.13H1320l5.84,5.84h-32.08l-1,1V661.3l-5.84-5.84Zm40.28,71.5h-32.48V599h32.48Z"/><path class="cls-1" d="M1297.54,740.88l-1,1V763.5l1,1h11.3l1-1V741.86l-1-1Zm10.33,21.64h-9.35V742.84h9.35Z"/><path class="cls-1" d="M1297.54,711.78l-1,1v21.64l1,1h11.3l1-1V712.75l-1-1Zm10.33,21.63h-9.35V713.73h9.35Z"/><path class="cls-1" d="M1321.1,704.61l-.2.2-.49-.49H1286l-1,1V771l.49.49-.2.2,7.8,7.8.69.28h34.44l1-1V713.1l-.29-.69ZM1287,706.28h32.48V770H1287Zm40.28,71.5h-33l-5.84-5.85h32.07l1-1V707.67l5.84,5.84Z"/><path class="cls-1" d="M1328.9,827.5l-7.8-7.8-.69-.29H1286l-1,1V886l.29.69,7.8,7.81.2-.21.49.49h34.44l1-1V828.19l-.49-.49Zm-42-6.13H1320l5.84,5.84h-32.08l-1,1v63.29l-5.84-5.84Zm40.28,71.49h-32.48V829.17h32.48Z"/><path class="cls-1" d="M1297.54,971.06l-1,1v21.64l1,1h11.3l1-1V972l-1-1Zm10.33,21.64h-9.35V973h9.35Z"/><path class="cls-1" d="M1297.54,942l-1,1v21.64l1,1h11.3l1-1V942.93l-1-1Zm10.33,21.64h-9.35V943.91h9.35Z"/><path class="cls-1" d="M1321.1,934.79l-.2.2-.49-.49H1286l-1,1v65.65l.49.49-.2.2,7.8,7.81.69.28h34.44l1-1V943.28l-.29-.69ZM1287,936.46h32.48v63.69H1287Zm40.28,71.49h-33l-5.84-5.84h32.07l1-1V937.85l5.84,5.84Z"/><path class="cls-1" d="M1394.68,108.94l1-1V86.32l-1-1h-11.31l-1,1V108l1,1ZM1384.35,87.3h9.35V107h-9.35Z"/><path class="cls-1" d="M1394.68,138.05l1-1V115.43l-1-1h-11.31l-1,1v21.64l1,1Zm-10.33-21.64h9.35v19.68h-9.35Z"/><path class="cls-1" d="M1379.61,70.09l-.7.29-7.8,7.8.21.2-.49.49v65.65l1,1h34.43l.49-.49.21.2,7.8-7.8.28-.69V71.07l-1-1Zm25.66,73.45h-32.48V79.85h32.48Zm7.8-7.23-5.84,5.85V78.87l-1-1h-32.07l5.84-5.84h33.06Z"/><path class="cls-1" d="M1379.61,185.18l-.49.49-.21-.21-7.8,7.81-.28.69v65.65l1,1h34.43l.7-.29,7.8-7.8-.21-.2.49-.49V186.16l-1-1Zm1,2h32.48v63.69h-32.48Zm25.25,71.49h-33V194.36l5.84-5.84v63.29l1,1h32.07Z"/><path class="cls-1" d="M1394.68,339.11l1-1V316.5l-1-1h-11.31l-1,1v21.64l1,1Zm-10.33-21.63h9.35v19.68h-9.35Z"/><path class="cls-1" d="M1394.68,368.22l1-1V345.61l-1-1h-11.31l-1,1v21.63l1,1Zm-10.33-21.63h9.35v19.68h-9.35Z"/><path class="cls-1" d="M1379.61,300.27l-.7.28-7.8,7.8.21.21-.49.49V374.7l1,1h34.43l.49-.49.21.2,7.8-7.8.28-.69V301.25l-1-1Zm25.66,73.45h-32.48V310h32.48Zm7.8-7.23-5.84,5.84V309.05l-1-1h-32.07l5.84-5.84h33.06Z"/><path class="cls-1" d="M1379.61,415.35l-.49.49-.21-.2-7.8,7.8-.28.69v65.65l1,1h34.43l.7-.28,7.8-7.8-.21-.2.49-.49V416.33l-1-1Zm1,2h32.48V481h-32.48Zm25.25,71.5h-33V424.54l5.84-5.84V482l1,1h32.07Z"/><path class="cls-1" d="M1394.68,569.29l1-1V546.68l-1-1h-11.31l-1,1v21.63l1,1Zm-10.33-21.63h9.35v19.67h-9.35Z"/><path class="cls-1" d="M1394.68,598.4l1-1V575.79l-1-1h-11.31l-1,1v21.63l1,1Zm-10.33-21.63h9.35v19.67h-9.35Z"/><path class="cls-1" d="M1379.61,530.44l-.7.29-7.8,7.8.21.2-.49.49v65.65l1,1h34.43l.49-.49.21.21,7.8-7.8.28-.7V531.42l-1-1Zm25.66,73.45h-32.48V540.2h32.48Zm7.8-7.22-5.84,5.84V539.22l-1-1h-32.07l5.84-5.84h33.06Z"/><path class="cls-1" d="M1379.61,645.53l-.49.49-.21-.2-7.8,7.8-.28.69V720l1,1h34.43l.7-.29,7.8-7.8-.21-.2.49-.49V646.51l-1-1Zm1,2h32.48v63.69h-32.48ZM1405.84,719h-33V654.72l5.84-5.85v63.29l1,1h32.07Z"/><path class="cls-1" d="M1394.68,799.47l1-1V776.85l-1-1h-11.31l-1,1v21.64l1,1Zm-10.33-21.64h9.35v19.68h-9.35Z"/><path class="cls-1" d="M1394.68,828.58l1-1V806l-1-1h-11.31l-1,1V827.6l1,1Zm-10.33-21.64h9.35v19.68h-9.35Z"/><path class="cls-1" d="M1379.61,760.62l-.7.29-7.8,7.8.21.2-.49.49v65.65l1,1h34.43l.49-.49.21.2,7.8-7.8.28-.69V761.6l-1-1Zm25.66,73.45h-32.48V770.38h32.48Zm7.8-7.23-5.84,5.85V769.4l-1-1h-32.07l5.84-5.84h33.06Z"/><path class="cls-1" d="M1379.61,875.71l-.49.49-.21-.2-7.8,7.8-.28.69v65.65l1,1h34.43l.7-.29,7.8-7.8-.21-.2.49-.49V876.69l-1-1Zm1,2h32.48v63.69h-32.48Zm25.25,71.49h-33V884.89l5.84-5.84v63.29l1,1h32.07Z"/><path class="cls-1" d="M1394.68,1029.64l1-1V1007l-1-1h-11.31l-1,1v21.64l1,1ZM1384.35,1008h9.35v19.68h-9.35Z"/><path class="cls-1" d="M1394.68,1058.75l1-1v-21.64l-1-1h-11.31l-1,1v21.64l1,1Zm-10.33-21.63h9.35v19.68h-9.35Z"/><path class="cls-1" d="M1379.61,990.8l-.7.28-7.8,7.81.21.2-.49.49v65.65l1,1h34.43l.49-.49.21.2,7.8-7.8.28-.69V991.78l-1-1Zm25.66,73.45h-32.48v-63.69h32.48Zm7.8-7.23-5.84,5.85V999.58l-1-1h-32.07l5.84-5.84h33.06Z"/><path class="cls-1" d="M1467.25,50.36l-1,1V73l1,1h11.3l1-1V51.34l-1-1ZM1477.57,72h-9.34V52.31h9.34Z"/><path class="cls-1" d="M1467.25,21.25l-1,1V43.86l1,1h11.3l1-1V22.23l-1-1Zm10.32,21.63h-9.34V23.2h9.34Z"/><path class="cls-1" d="M1490.81,14.08l-.2.2-.49-.49h-34.44l-1,1V80.42l.49.49-.2.21,7.8,7.8.69.28h34.44l1-1V22.57l-.29-.69Zm-34.15,1.67h32.48V79.44h-32.48Zm40.28,71.49h-33l-5.84-5.84h32.07l1-1V17.14l5.84,5.84Z"/><path class="cls-1" d="M1498.61,137l-7.8-7.8-.69-.29h-34.44l-1,1v65.65l.29.69,7.8,7.8.2-.2.49.49h34.44l1-1V137.66l-.49-.49Zm-41.95-6.13h33.06l5.84,5.84h-32.08l-1,1V201l-5.84-5.85Zm40.28,71.49h-32.48V138.64h32.48Z"/><path class="cls-1" d="M1467.25,280.53l-1,1v21.64l1,1h11.3l1-1V281.51l-1-1Zm10.32,21.64h-9.34V282.49h9.34Z"/><path class="cls-1" d="M1467.25,251.42l-1,1V274l1,1h11.3l1-1V252.4l-1-1Zm10.32,21.64h-9.34V253.38h9.34Z"/><path class="cls-1" d="M1490.81,244.26l-.2.2-.49-.49h-34.44l-1,1V310.6l.49.49-.2.2,7.8,7.8.69.29h34.44l1-1V252.75l-.29-.69Zm-34.15,1.67h32.48v63.69h-32.48Zm40.28,71.49h-33l-5.84-5.84h32.07l1-1V247.32l5.84,5.84Z"/><path class="cls-1" d="M1498.61,367.15l-7.8-7.8-.69-.29h-34.44l-1,1v65.65l.29.69,7.8,7.8.2-.2.49.49h34.44l1-1V367.84l-.49-.49ZM1456.66,361h33.06l5.84,5.84h-32.08l-1,1v63.28l-5.84-5.84Zm40.28,71.49h-32.48V368.82h32.48Z"/><path class="cls-1" d="M1467.25,510.71l-1,1v21.63l1,1h11.3l1-1V511.69l-1-1Zm10.32,21.64h-9.34V512.67h9.34Z"/><path class="cls-1" d="M1467.25,481.6l-1,1v21.63l1,1h11.3l1-1V482.58l-1-1Zm10.32,21.64h-9.34V483.56h9.34Z"/><path class="cls-1" d="M1490.81,474.43l-.2.21-.49-.49h-34.44l-1,1v65.65l.49.49-.2.2,7.8,7.8.69.29h34.44l1-1V482.93l-.29-.7Zm-34.15,1.68h32.48V539.8h-32.48Zm40.28,71.49h-33l-5.84-5.84h32.07l1-1V477.49l5.84,5.84Z"/><path class="cls-1" d="M1498.61,597.32l-7.8-7.8-.69-.28h-34.44l-1,1v65.66l.29.69,7.8,7.8.2-.2.49.49h34.44l1-1V598l-.49-.49Zm-41.95-6.13h33.06l5.84,5.84h-32.08l-1,1V661.3l-5.84-5.84Zm40.28,71.5h-32.48V599h32.48Z"/><path class="cls-1" d="M1467.25,740.88l-1,1V763.5l1,1h11.3l1-1V741.86l-1-1Zm10.32,21.64h-9.34V742.84h9.34Z"/><path class="cls-1" d="M1467.25,711.78l-1,1v21.64l1,1h11.3l1-1V712.75l-1-1Zm10.32,21.63h-9.34V713.73h9.34Z"/><path class="cls-1" d="M1490.81,704.61l-.2.2-.49-.49h-34.44l-1,1V771l.49.49-.2.2,7.8,7.8.69.28h34.44l1-1V713.1l-.29-.69Zm-34.15,1.67h32.48V770h-32.48Zm40.28,71.5h-33l-5.84-5.85h32.07l1-1V707.67l5.84,5.84Z"/><path class="cls-1" d="M1498.61,827.5l-7.8-7.8-.69-.29h-34.44l-1,1V886l.29.69,7.8,7.81.2-.21.49.49h34.44l1-1V828.19l-.49-.49Zm-41.95-6.13h33.06l5.84,5.84h-32.08l-1,1v63.29l-5.84-5.84Zm40.28,71.49h-32.48V829.17h32.48Z"/><path class="cls-1" d="M1467.25,971.06l-1,1v21.64l1,1h11.3l1-1V972l-1-1Zm10.32,21.64h-9.34V973h9.34Z"/><path class="cls-1" d="M1467.25,942l-1,1v21.64l1,1h11.3l1-1V942.93l-1-1Zm10.32,21.64h-9.34V943.91h9.34Z"/><path class="cls-1" d="M1490.81,934.79l-.2.2-.49-.49h-34.44l-1,1v65.65l.49.49-.2.2,7.8,7.81.69.28h34.44l1-1V943.28l-.29-.69Zm-34.15,1.67h32.48v63.69h-32.48Zm40.28,71.49h-33l-5.84-5.84h32.07l1-1V937.85l5.84,5.84Z"/></svg>