<svg id="Layer_1" data-name="Layer 1" xmlns="http://www.w3.org/2000/svg" viewBox="0 0 1000 1000"><defs><style>.cls-1{fill:#231f20;}</style></defs><path class="cls-1" d="M669.65,453.74V330.33H330.35v225.2l46.26,37,77.11-61.71h61.66v61.71H453.72l-77.11,30.81-46.26-18.5v15.46l46.26,18.49L453.72,608h61.66v61.7h15.45V608h61.71v61.7h15.4V608h61.71V592.56H607.94V530.85h61.71V515.4H607.94V453.74Zm-262.19,0a46.28,46.28,0,1,1,46.26-46.25A46.26,46.26,0,0,1,407.46,453.74ZM592.54,592.56H530.83V530.85h61.71Zm0-77.16H530.83V453.74h61.71Z"/></svg>