<svg id="Layer_1" data-name="Layer 1" xmlns="http://www.w3.org/2000/svg" viewBox="0 0 1000 1000"><defs><style>.cls-1{fill:#fff;}</style></defs><path class="cls-1" d="M408.57,453.77V330.4H69.43V555.5l46.2,37,77.12-61.66H254.4v61.66H192.75l-77.12,30.85-46.2-18.49v15.4l46.2,18.49,77.12-30.8H254.4V669.6h15.46V607.94h61.65V669.6h15.41V607.94h61.65V592.49H346.92V530.83h61.65v-15.4H346.92V453.77Zm-262.08,0a46.26,46.26,0,1,1,46.26-46.26A46.26,46.26,0,0,1,146.49,453.77Zm185,138.72H269.86V530.83h61.65Zm0-77.06H269.86V453.77h61.65Z"/><g id="ECO"><path class="cls-1" d="M602.15,669.47V639.69c-8.69,0-16.89-.09-25-.16-9.07-.07-18.11-.52-27.17-.9-25.64-1.09-34.24-9.12-38.26-37.08h90.46V571.6h-89.5c-1.49-25.78,9.71-38.58,33.37-38.88,18.75-.24,23.13.13,56.13-.05V502.23c-21.78,0-42.7-.12-63.56-.12-26.08,0-43.83,12-56.72,33.35-8.32,13.76-11.21,29.07-11.55,44.79-1,47.77,15.85,90,76.89,89.26,18.47-.16,36.93.18,55.4,0v0Z"/></g><path class="cls-1" d="M750.88,639.69c-19.48,0-37,.2-54.56-.44-24.12-.89-35.62-11.87-38.23-36a184.94,184.94,0,0,1-.73-28.63c1.46-31.12,12.85-41.83,44.07-42,18.28-.1,33.11,0,49.45,0v-30.4h-54c-6.46.18-12.89.48-19.3,1-29,2.23-47.67,19.23-55.88,47.26-5.33,18.17-5.12,36.69-3.37,55.32,3.59,38.32,25.54,60.34,63.63,63.66,23.12-.41,46.23.4,69.34,0h-.46Z"/><path class="cls-1" d="M927.59,557.46c-7.93-34.77-27.92-53.52-64-55.22-5.09-.21-10.19-.41-15.29-.36v-.05c-5.15,0-10.25.2-15.35.41-36.06,1.7-56.05,20.45-64,55.22-4.53,19.83-3.66,39.82,1,59.55,6,25.65,21.53,42,47.55,49a114.47,114.47,0,0,0,29.72,3.5h2.06a114.77,114.77,0,0,0,29.72-3.5c26-7,41.46-23.33,47.49-49C931.25,597.28,932.12,577.29,927.59,557.46Zm-39.1,51.87c-5.56,23-16.94,32.5-40.17,32.71-23.23-.21-34.62-9.68-40.23-32.71a105.11,105.11,0,0,1-2.78-22.51,99.17,99.17,0,0,1,2-22.25c4.84-23.85,17-34.26,40-34.87h2.06c23,.61,35.13,11,40,34.87a99.72,99.72,0,0,1,2,22.25A105.79,105.79,0,0,1,888.49,609.33Z"/><path class="cls-1" d="M501.34,380.41h56.87v17.87H511.49c-1.65.52-17.25,6.08-16.79,27.56S509.84,453.4,511.54,454h24.52V434.44H512v-17.2h46.26v54l-56.76.16-.11-.06a10.74,10.74,0,0,1-1.9-.72c-.31-.1-.67-.25-1.08-.41s-.93-.41-1.45-.67c-.36-.15-.67-.36-1.08-.56a40.55,40.55,0,0,1-5.05-2.94,2.11,2.11,0,0,1-.67-.46,43.52,43.52,0,0,1-4.27-3.2c-.46-.41-1-.82-1.44-1.29s-.93-.87-1.39-1.33-.93-.93-1.39-1.45c-.37-.36-.73-.77-1-1.13-.1-.16-.25-.26-.36-.41-.25-.36-.51-.67-.77-1a10.85,10.85,0,0,1-.93-1.19c-.15-.2-.3-.41-.46-.67a9.39,9.39,0,0,1-.82-1.23,2,2,0,0,1-.36-.57c-.16-.21-.26-.41-.42-.62a1.62,1.62,0,0,1-.25-.51,13.65,13.65,0,0,1-.83-1.45c-.36-.66-.72-1.39-1-2.11a11.77,11.77,0,0,1-.62-1.44c-.1-.26-.2-.51-.31-.77a18,18,0,0,1-.61-1.7,17.53,17.53,0,0,1-.57-1.86c-.21-.72-.41-1.54-.57-2.31a48.54,48.54,0,0,1-.77-4.79c-.1-.73-.15-1.45-.21-2.17v-.67c0-.2-.05-.36-.05-.56v-.52a7.81,7.81,0,0,1-.05-1.08,40.56,40.56,0,0,1,.21-4.33c2.78-35.33,30-44.61,30.23-44.71Z"/><path class="cls-1" d="M637.64,431.88c11-9.43,16.17-19,15.14-28.23-1.54-14.37-17-22.77-17.66-23.13l-65.68-.1v91h19.68V437.08H610.6c.77.1,18.69,2.73,18.95,33.43v.88h22.87v-.88C652.42,439.55,641.14,433.17,637.64,431.88Zm-7.83-23.34a11.4,11.4,0,0,1-4.22,8.4,14.18,14.18,0,0,1-9.12,3.3H589V397.93h28a14.17,14.17,0,0,1,8,2.47c3.09,2.22,4.69,4.85,4.84,7.83Z"/><path class="cls-1" d="M719.7,380.41h22.92v60.11a29.2,29.2,0,0,1-8.3,19.47c-7.05,7.32-18,11.13-32.4,11.33v.06l-2.31-.06c-14.43-.2-25.3-4-32.4-11.33a29.5,29.5,0,0,1-8.3-19.52V380.41h22.93v59.13c0,.47,1.9,14.53,18.95,14.68,17.05-.15,18.85-14.21,18.91-14.78Z"/><path class="cls-1" d="M829.82,391.55a36.58,36.58,0,0,0-10-8.86,15.62,15.62,0,0,0-8.19-2.27H753.13v91h21.11V441h37.25a15.77,15.77,0,0,0,8.39-2.36c5-3.1,16.28-12.06,16.28-28.33A30.1,30.1,0,0,0,829.82,391.55Zm-16.07,18.9a14.65,14.65,0,0,1-4.12,9.89,12.16,12.16,0,0,1-8.75,3.86H774.24V397.73h27.1a12,12,0,0,1,7.73,2.93,12.4,12.4,0,0,1,4.68,9.22Z"/><path class="cls-1" d="M884.94,378.93c-28.59,0-45.69,17.71-45.69,47.49,0,30.18,16.69,47.49,45.69,47.49s45.59-17.31,45.59-47.49C930.53,396.64,913.48,378.93,884.94,378.93Zm-.26,77.72c-21.48,0-23.74-21.63-23.74-30.9,0-19.32,8.86-30.86,23.74-30.86s23.7,11.54,23.7,30.86C908.38,435,906.06,456.65,884.68,456.65Z"/></svg>