<?xml version="1.0" encoding="utf-8"?>
<!-- Generator: Adobe Illustrator 24.3.0, SVG Export Plug-In . SVG Version: 6.00 Build 0)  -->
<svg version="1.1" id="Layer_1" xmlns="http://www.w3.org/2000/svg" xmlns:xlink="http://www.w3.org/1999/xlink" x="0px" y="0px"
	 viewBox="0 0 500 500" style="enable-background:new 0 0 500 500;" xml:space="preserve">
<style type="text/css">
	.st0{fill:#FFFFFF;}
</style>
<path class="st0" d="M450.3,381.2l-75-75c15.3-27.2,23.4-58,23.3-89.2c0-100.2-81.5-181.6-181.6-181.6S35.4,116.9,35.4,217
	S116.9,398.6,217,398.6c31.3,0,62-8,89.2-23.4l75,75c9.1,9.2,21.6,14.3,34.5,14.3l0,0c27,0,48.8-21.8,48.8-48.8
	C464.6,402.8,459.4,390.4,450.3,381.2L450.3,381.2z M60.4,217c0-86.4,70.3-156.6,156.6-156.6S373.6,130.8,373.6,217
	c0,29.9-8.5,59.2-24.6,84.4c-1.5,2.4-3.1,4.7-4.8,7c-11.6,16.1-26.2,29.9-42.8,40.6c-25.2,16.1-54.5,24.7-84.4,24.6
	C130.6,373.6,60.4,303.4,60.4,217z M432.6,432.6c-9.3,9.3-24.4,9.3-33.7,0l-71.4-71.5l1-0.8c1-0.8,2.1-1.6,3.1-2.5l1.5-1.3
	c0.9-0.8,1.9-1.5,2.8-2.4c0.5-0.4,1-0.9,1.5-1.3c1-0.8,1.9-1.7,2.8-2.6c0.4-0.4,0.9-0.8,1.3-1.2c1.3-1.3,2.7-2.5,4-3.8l0,0
	c1.3-1.3,2.6-2.6,3.8-4c0.4-0.4,0.8-0.9,1.2-1.3c0.9-0.9,1.7-1.9,2.6-2.8c0.5-0.5,0.9-1,1.3-1.5c0.8-0.9,1.6-1.9,2.4-2.8l1.2-1.5
	c0.9-1,1.7-2.1,2.5-3.2l0.7-0.9l71.4,71.4C442,408.2,442,423.3,432.6,432.6L432.6,432.6z"/>
</svg>
