<?xml version="1.0" encoding="utf-8"?>
<!-- Generator: Adobe Illustrator 24.3.0, SVG Export Plug-In . SVG Version: 6.00 Build 0)  -->
<svg version="1.1" id="Layer_1" xmlns="http://www.w3.org/2000/svg" xmlns:xlink="http://www.w3.org/1999/xlink" x="0px" y="0px"
	 viewBox="0 0 500 500" style="enable-background:new 0 0 500 500;" xml:space="preserve">
<style type="text/css">
	.st0{fill:#212C56;}
</style>
<path class="st0" d="M401.8,98.2c-83.8-83.8-219.7-83.8-303.5,0s-83.8,219.7,0,303.5s219.7,83.8,303.5,0S485.6,182.1,401.8,98.2z
	 M250,439.6c-104.6,0-189.6-85.1-189.6-189.6S145.4,60.4,250,60.4S439.6,145.4,439.6,250S354.6,439.6,250,439.6z"/>
<path class="st0" d="M348.6,237.5h-86.1v-86.1c0-6.9-5.6-12.5-12.5-12.5s-12.5,5.6-12.5,12.5v86.1h-86.1c-6.9,0-12.5,5.6-12.5,12.5
	s5.6,12.5,12.5,12.5h86.1v86.1c0,6.9,5.6,12.5,12.5,12.5s12.5-5.6,12.5-12.5v-86.1h86.1c6.9,0,12.5-5.6,12.5-12.5
	S355.5,237.5,348.6,237.5z"/>
</svg>
