<svg id="Layer_1" data-name="Layer 1" xmlns="http://www.w3.org/2000/svg" viewBox="0 0 500 500"><defs><style>.cls-1-editado{fill:#212C56;}</style></defs><path class="cls-1-editado" d="M434.11,65.89a49.42,49.42,0,0,0-69.83,0L338.2,92,188.1,242.07c-.18.17-.33.36-.49.54a3.45,3.45,0,0,0-.26.28,13.49,13.49,0,0,0-.85,1.14l-.15.24q-.3.49-.57,1l-.2.41c-.14.33-.28.66-.4,1l-.1.25L159,325.19A12.5,12.5,0,0,0,174.81,341l78.24-26.08.19-.08q.56-.19,1.11-.45l.3-.14a11.24,11.24,0,0,0,1.26-.71h0a11,11,0,0,0,1.18-.88l.31-.28c.18-.15.35-.3.52-.47L408,161.8l26.08-26.08A49.42,49.42,0,0,0,434.11,65.89Zm-185,219.5-17.24-17.24-17.24-17.24L347,118.48l17.24,17.24L381.52,153Zm-58.47,24,11.78-35.33L226,297.6ZM416.43,118.05l-17.24,17.24L382,118.05l-17.24-17.24L382,83.57a24.38,24.38,0,0,1,34.48,34.48Z"/><path class="cls-1-editado" d="M361.12,275a12.5,12.5,0,0,0-12.5,12.5V403.11a20.49,20.49,0,0,1-20.47,20.47H96.89a20.49,20.49,0,0,1-20.47-20.47V171.85a20.49,20.49,0,0,1,20.47-20.47H210a12.5,12.5,0,1,0,0-25H96.89a45.52,45.52,0,0,0-45.47,45.47V403.11a45.52,45.52,0,0,0,45.47,45.47H328.15a45.52,45.52,0,0,0,45.47-45.47V287.48A12.5,12.5,0,0,0,361.12,275Z"/></svg>