<svg id="Layer_1" data-name="Layer 1" xmlns="http://www.w3.org/2000/svg" viewBox="0 0 500 500"><defs><style>.cls-2{fill:#fff;}</style></defs><path class="cls-2" d="M287.75,393.59H99.12a2.76,2.76,0,0,1-2.75-2.76V124.14a2.76,2.76,0,0,1,2.75-2.75H287.75a12.5,12.5,0,0,0,0-25H99.12a27.78,27.78,0,0,0-27.75,27.75V390.83a27.79,27.79,0,0,0,27.75,27.76H287.75a12.5,12.5,0,0,0,0-25Z"/><path class="cls-2" d="M395.55,257.39a20,20,0,0,0-5.87-14.52l-58.54-58.53A12.49,12.49,0,0,0,313.47,202l43,43H185.81a12.5,12.5,0,0,0,0,25H355.68l-43,43a12.5,12.5,0,0,0,17.68,17.68l59.29-59.29a20,20,0,0,0,5.8-12.53,11.73,11.73,0,0,0,.08-1.33S395.55,257.43,395.55,257.39Z"/></svg>