<svg id="Layer_1" data-name="Layer 1" xmlns="http://www.w3.org/2000/svg" viewBox="0 0 500 500"><defs><style>.cls-1-editado{fill:#212C56;}</style></defs><path class="cls-1-editado" d="M419.66,112.86H80.34a12.5,12.5,0,1,0,0,25H116.5v285.9a12.49,12.49,0,0,0,12.5,12.5H371a12.49,12.49,0,0,0,12.5-12.5V137.86h36.16a12.5,12.5,0,0,0,0-25ZM358.5,411.26h-217V137.86h217Z"/><path class="cls-1-editado" d="M129,88.74H371a12.5,12.5,0,1,0,0-25H129a12.5,12.5,0,0,0,0,25Z"/><path class="cls-1-editado" d="M206.11,363.32a12.5,12.5,0,0,0,12.5-12.5V198.3a12.5,12.5,0,0,0-25,0V350.82A12.49,12.49,0,0,0,206.11,363.32Z"/><path class="cls-1-editado" d="M293.89,363.32a12.49,12.49,0,0,0,12.5-12.5V198.3a12.5,12.5,0,0,0-25,0V350.82A12.5,12.5,0,0,0,293.89,363.32Z"/></svg>