<svg id="Layer_1" data-name="Layer 1" xmlns="http://www.w3.org/2000/svg" viewBox="0 0 627 295"><defs><style>.cls-1{fill:#fff;}</style></defs><path class="cls-1" d="M248.06,117.64V35.7H22.79V185.21l30.69,24.57,51.22-40.95h41v40.95h-41l-51.22,20.5L22.79,218v10.23l30.69,12.29,51.22-20.46h41V261h10.26V220.05h41V261h10.23V220.05h40.95V209.78H207.11V168.83h40.95V158.6H207.11v-41ZM74,117.64A30.73,30.73,0,1,1,104.7,86.92,30.72,30.72,0,0,1,74,117.64Zm122.9,92.14h-41V168.83h41Zm0-51.18h-41v-41h41Z"/><g id="ECO"><path class="cls-1" d="M376.64,260.91V241.14c-5.77,0-11.22-.07-16.63-.11-6-.05-12-.34-18-.6-17-.73-22.75-6.06-25.41-24.63h60.08V195.91H317.19c-1-17.13,6.45-25.63,22.16-25.83,12.46-.16,15.37.09,37.29,0V149.83c-14.47,0-28.36-.08-42.22-.08-17.32,0-29.11,8-37.67,22.15-5.53,9.14-7.45,19.31-7.68,29.75-.69,31.73,10.53,59.81,51.08,59.29,12.26-.11,24.53.12,36.79,0v0Z"/></g><path class="cls-1" d="M475.43,241.14c-12.94,0-24.61.13-36.24-.3-16-.59-23.66-7.88-25.4-23.89a123.25,123.25,0,0,1-.48-19c1-20.67,8.53-27.78,29.27-27.88,12.14-.06,22,0,32.85,0v-20.2H439.59c-4.29.12-8.56.32-12.82.64-19.23,1.48-31.66,12.77-37.12,31.39-3.54,12.07-3.4,24.37-2.24,36.75,2.39,25.45,17,40.08,42.27,42.28,15.35-.27,30.7.27,46.05,0h-.3Z"/><path class="cls-1" d="M592.81,186.51c-5.27-23.09-18.55-35.54-42.5-36.67-3.39-.14-6.77-.28-10.16-.24v0c-3.42,0-6.81.14-10.2.28-24,1.13-37.22,13.58-42.49,36.67-3,13.18-2.43,26.45.68,39.56,4,17,14.31,27.92,31.58,32.53a76,76,0,0,0,19.75,2.33h1.36a76.18,76.18,0,0,0,19.75-2.33c17.24-4.61,27.54-15.49,31.54-32.53C595.23,213,595.82,199.69,592.81,186.51Zm-26,34.46c-3.7,15.29-11.26,21.59-26.69,21.73-15.43-.14-23-6.44-26.72-21.73A70.46,70.46,0,0,1,511.58,206a66.33,66.33,0,0,1,1.3-14.78c3.22-15.84,11.29-22.76,26.59-23.17h1.36c15.3.41,23.34,7.33,26.55,23.17a65.17,65.17,0,0,1,1.3,14.78A69.78,69.78,0,0,1,566.84,221Z"/><path class="cls-1" d="M309.68,68.91h37.77V80.79h-31c-1.09.34-11.46,4-11.15,18.3s10.06,18.31,11.19,18.72h16.28v-13h-16V93.38h30.72v35.85l-37.7.11-.07,0a7.12,7.12,0,0,1-1.27-.48l-.71-.27c-.28-.14-.62-.27-1-.45s-.45-.23-.72-.37a25.84,25.84,0,0,1-3.35-2,1.35,1.35,0,0,1-.45-.31,29,29,0,0,1-2.84-2.12c-.31-.27-.65-.55-1-.86s-.61-.58-.92-.89-.62-.61-.92-.95-.48-.52-.69-.76-.17-.17-.24-.27-.34-.45-.51-.69a6.85,6.85,0,0,1-.62-.78c-.1-.14-.2-.28-.3-.45a5.87,5.87,0,0,1-.55-.82,1.57,1.57,0,0,1-.24-.37c-.1-.14-.17-.28-.27-.41a1.28,1.28,0,0,1-.18-.35,8.69,8.69,0,0,1-.54-1c-.24-.45-.48-.93-.69-1.41a8.39,8.39,0,0,1-.41-1l-.2-.51a9.41,9.41,0,0,1-.41-1.13,11,11,0,0,1-.38-1.23c-.14-.48-.27-1-.38-1.54a11.38,11.38,0,0,1-.3-1.64,10.17,10.17,0,0,1-.21-1.54c-.07-.48-.1-1-.14-1.44V103c0-.14,0-.24,0-.38v-.34a4.35,4.35,0,0,1,0-.72,28.54,28.54,0,0,1,.14-2.87C291.24,75.17,309.3,69,309.48,69Z"/><path class="cls-1" d="M400.21,103.1c7.32-6.26,10.75-12.59,10.06-18.75C409.24,74.8,399,69.23,398.54,69l-43.63-.07v60.42H368V106.56h14.27c.51.06,12.42,1.81,12.59,22.2v.58H410v-.58C410,108.2,402.54,104,400.21,103.1ZM395,87.6a7.59,7.59,0,0,1-2.8,5.58,9.43,9.43,0,0,1-6.06,2.19H367.88V80.55h18.58a9.34,9.34,0,0,1,5.34,1.65A6.77,6.77,0,0,1,395,87.4Z"/><path class="cls-1" d="M454.72,68.91h15.22v39.93a19.38,19.38,0,0,1-5.51,12.93c-4.68,4.86-11.94,7.4-21.52,7.53v0l-1.54,0c-9.58-.13-16.8-2.67-21.52-7.53a19.56,19.56,0,0,1-5.51-13V68.91h15.23v39.28c0,.31,1.26,9.65,12.59,9.75,11.32-.1,12.52-9.44,12.56-9.82Z"/><path class="cls-1" d="M527.87,76.31a24.28,24.28,0,0,0-6.64-5.88,10.37,10.37,0,0,0-5.44-1.51H476.92v60.42h14V109.16h24.74a10.44,10.44,0,0,0,5.57-1.58c3.29-2,10.82-8,10.82-18.82A20.09,20.09,0,0,0,527.87,76.31ZM517.19,88.87a9.72,9.72,0,0,1-2.74,6.57A8.07,8.07,0,0,1,508.64,98H491V80.42h18a7.92,7.92,0,0,1,5.13,2,8.23,8.23,0,0,1,3.11,6.12Z"/><path class="cls-1" d="M564.48,67.93c-19,0-30.35,11.77-30.35,31.54,0,20,11.08,31.55,30.35,31.55s30.28-11.5,30.28-31.55C594.76,79.7,583.43,67.93,564.48,67.93Zm-.17,51.63c-14.27,0-15.78-14.37-15.78-20.53,0-12.83,5.89-20.5,15.78-20.5S580,86.2,580,99C580,105.19,578.5,119.56,564.31,119.56Z"/></svg>