<svg id="Layer_1" data-name="Layer 1" xmlns="http://www.w3.org/2000/svg" viewBox="0 0 2000 2000"><defs><style>.cls-1{fill:#00c08b;}</style></defs><path class="cls-1" d="M1695.64,1098.54V1188C1515.56,1258.25,1141,1397.47,1000,1397.47S484.36,1258.25,304.28,1188V812C484.36,741.72,858.94,602.46,1000,602.53s515.6,139.74,695.68,210.18V918.48h122.78V730.23l-38-15.65C1757.16,705,1207.61,479.87,1000,479.77c-207.49-.08-757.16,224.47-780.44,234l-38.06,15.63V1270.6l38.1,15.62c20.33,8.36,443.63,181.24,688.19,224.34,34.94,6.17,66.26,9.67,92.25,9.67,207.45,0,757.11-224.46,780.44-234l38.1-16.26,0-171.4Z"/></svg>