<svg id="Layer_1" data-name="Layer 1" xmlns="http://www.w3.org/2000/svg" viewBox="0 0 2000 2000"><defs><style>.cls-1{fill:#fff;}</style></defs><path class="cls-1" d="M834.66,954.3q19.65-18.24,50.68-18.24,27.92,0,51.13,18.71c-1.11,1.74-4.3,6.21-9.59,13.37s-8.48,11.65-9.59,13.39a43.16,43.16,0,0,0-29.59-11.37q-14,0-22.84,8.28T856,1000q0,13.25,8.89,21.67c5.92,5.58,13.54,8.4,22.84,8.4a43.21,43.21,0,0,0,29.59-11.37q1.66,2.63,9.59,13.37t9.59,13.39q-23,18.46-51.13,18.47-31,0-50.68-18.25T815,1000Q815,972.5,834.66,954.3Z"/><path class="cls-1" d="M1062.32,1045.22q-20.25,18.69-48.89,18.71t-48.89-18.71Q944.29,1026.5,944.3,1000t20.24-45.23q20.24-18.69,48.89-18.71t48.89,18.71q20.25,18.72,20.24,45.23T1062.32,1045.22ZM992,1021.8q8.41,8.49,21.43,8.51t21.43-8.51q8.4-8.56,8.4-21.8t-8.4-21.9q-8.4-8.65-21.43-8.65T992,978.1q-8.4,8.63-8.39,21.9T992,1021.8Z"/><path class="cls-1" d="M1105.91,938.44h39v16.33c7.79-12.46,19.59-18.71,35.53-18.71,28.89,0,42.41,18.87,42.41,56.6v70.5h-39V995a36.21,36.21,0,0,0-5.3-18.48c-3.08-5.19-8.37-7.81-15.14-7.81s-11.21,2.44-14.37,7.35-4.16,11.19-4.16,18.94v68.13h-39Z"/><path class="cls-1" d="M1261.33,954.3Q1281,936.06,1312,936.06q27.93,0,51.13,18.71c-1.12,1.74-4.29,6.21-9.6,13.37s-8.47,11.65-9.57,13.39a43.21,43.21,0,0,0-29.6-11.37q-13.95,0-22.84,8.28t-8.89,21.56q0,13.25,8.89,21.67c5.91,5.58,13.54,8.4,22.84,8.4a43.25,43.25,0,0,0,29.6-11.37q1.65,2.63,9.57,13.37c5.31,7.19,8.48,11.65,9.6,13.39q-23,18.46-51.13,18.47-31,0-50.68-18.25T1241.69,1000Q1241.69,972.5,1261.33,954.3Z"/><path class="cls-1" d="M1417.71,965c0-7.11,5.43-13,10-17.64a36.63,36.63,0,0,1,13.88-9.12,46.45,46.45,0,0,1,13.33-2.14c2.84,0,1.76.24,9.55.73v39.76c-7.79-1.1-10.33-1.66-16.33-1.66-7.89,0-12.67,2.3-17.25,6.88s-5.4,10.65-5.4,18.23v63.16h-46.76V938.44h39Z"/><path class="cls-1" d="M1490.06,1045.8q-19.39-18.09-19.42-45.33t18.83-45.82q18.84-18.58,49.59-18.59,28.89,0,47.13,17.4c12.15,11.62,18.23,28.42,18.23,49.43a36.78,36.78,0,0,1-.24,5.71h-94.47c.3,7.79,3.74,11.12,10.28,15.93s15.3,7,26.18,7c12,0,23.2-4.56,33.62-13.39,1,1,4.26,4.69,9.94,11.42s9.07,10.59,10.18,11.69q-21.54,22.73-57.3,22.7Q1509.48,1063.93,1490.06,1045.8Zm30.18-74.86c-5.6,3.24-9,6.48-10.06,14.27h55.87c-.62-7.79-3.62-11-9-14.27a34.49,34.49,0,0,0-18.23-4.87A36.4,36.4,0,0,0,1520.24,970.94Z"/><path class="cls-1" d="M1636.15,954.3q19.65-18.24,50.66-18.24,27.95,0,51.15,18.71c-1.12,1.74-4.3,6.21-9.6,13.37s-8.47,11.65-9.58,13.39a43.21,43.21,0,0,0-29.6-11.37q-14,0-22.84,8.28t-8.88,21.56q0,13.25,8.88,21.67c5.91,5.58,13.53,8.4,22.84,8.4a43.25,43.25,0,0,0,29.6-11.37q1.67,2.63,9.58,13.37c5.3,7.19,8.48,11.65,9.6,13.39q-23,18.46-51.15,18.47-31,0-50.66-18.25T1616.49,1000Q1616.49,972.5,1636.15,954.3Z"/><path class="cls-1" d="M1863.81,1045.22q-20.25,18.69-48.91,18.71T1766,1045.22q-20.25-18.72-20.26-45.22T1766,954.77q20.22-18.69,48.87-18.71t48.91,18.71q20.25,18.72,20.23,45.23T1863.81,1045.22Zm-70.32-23.42q8.4,8.49,21.41,8.51t21.43-8.51q8.43-8.56,8.41-21.8t-8.41-21.9q-8.38-8.65-21.43-8.65t-21.41,8.65q-8.4,8.63-8.41,21.9T1793.49,1021.8Z"/><path class="cls-1" d="M653.81,1032v34.66c-62.37,24.89-195.52,74.25-245.54,74.25s-183.18-49.36-245.54-74.25V933.36c62.36-24.92,195.57-74.27,245.54-74.25s183.17,49.54,245.54,74.5v36h46.77V904.36L686,898.83c-8.25-3.39-203.61-83.2-277.2-83.23s-269.71,79.55-278,82.95L116,904.09v191.82l14.55,5.54c7.23,3,157.79,64.23,244.46,79.52,12.39,2.18,23.77,3.43,33,3.43,73.56,0,269.63-79.57,277.87-83l14.78-5.75V1032Z"/></svg>