<svg id="Layer_1" data-name="Layer 1" xmlns="http://www.w3.org/2000/svg" viewBox="0 0 2000 2000"><defs><style>.cls-1{fill:#212C56;}.cls-2{fill:#00c08b;}</style></defs><path class="cls-1" d="M370.92,1231.25q25.59-23.74,66-23.75,36.42,0,66.66,24.39-2.19,3.38-12.5,17.42t-12.49,17.43a56.35,56.35,0,0,0-38.58-14.8q-18.19,0-29.78,10.79t-11.56,28.1q0,17.24,11.56,28.2T440,1330a56.4,56.4,0,0,0,38.58-14.81q2.15,3.38,12.49,17.42t12.5,17.44q-29.93,24.07-66.66,24.06-40.4,0-66-23.75t-25.63-59.52Q345.29,1255,370.92,1231.25Z"/><path class="cls-1" d="M667.55,1349.73q-26.37,24.38-63.7,24.37t-63.7-24.37q-26.4-24.37-26.38-58.9t26.38-58.94q26.39-24.41,63.7-24.39t63.7,24.39q26.38,24.36,26.37,58.94T667.55,1349.73Zm-91.63-30.55q11,11.11,27.93,11.12t27.92-11.12q11-11.12,11-28.35t-11-28.56c-7.32-7.52-16.62-11.24-27.92-11.24s-20.62,3.72-27.93,11.24-11,17-11,28.56S568.62,1311.77,575.92,1319.18Z"/><path class="cls-1" d="M724.6,1206.09h50.66v25.8c10.14-16.27,25.41-24.39,46.17-24.39,37.63,0,55.14,24.57,55.14,73.74v87H825.92v-83.86a46.83,46.83,0,0,0-6.93-24.09c-4-6.79-10.86-10.18-19.69-10.18s-14.56,3.18-18.66,9.56-5.38,14.6-5.38,24.71v83.86H724.6Z"/><path class="cls-1" d="M926.87,1231.25q25.62-23.74,66-23.75,36.41,0,66.62,24.39c-1.42,2.25-5.6,8.06-12.49,17.42s-11,15.17-12.49,17.43a56.28,56.28,0,0,0-38.56-14.8q-18.19,0-29.77,10.79t-11.58,28.1q0,17.24,11.58,28.2T996,1330a56.34,56.34,0,0,0,38.56-14.81c1.44,2.25,5.62,8.07,12.49,17.42s11.07,15.17,12.49,17.44q-29.9,24.07-66.62,24.06-40.41,0-66-23.75t-25.6-59.52Q901.27,1255,926.87,1231.25Z"/><path class="cls-1" d="M1129.85,1245.16c10.14-9.27,7.48-16.93,13.46-23a48,48,0,0,1,18.26-11.89,57.35,57.35,0,0,1,17-2.78c3.71,0,12.06.31,12.06.92v51.84c-10.12-1.43-13-2.15-20.81-2.15-10.29,0-16.69,3-22.63,9s-7.22,13.87-7.22,23.77v77.38h-60.78V1206.09h50.64Z"/><path class="cls-1" d="M1224.93,1350.51q-25.31-23.61-25.29-59.1t24.52-59.68q24.51-24.23,64.64-24.23,37.64,0,61.39,22.68c15.82,15.11,23.74,34.66,23.74,62,0,3.08-.1,5.1-.31,5.1h-123.1c.43,10.12,4.9,16.86,13.42,23.11s19.91,10.26,34.09,10.26c15.64,0,30.25-5.31,43.82-16.82,1.24,1.23,5.57,6.42,13,15.15s11.82,13.94,13.26,15.38q-28.07,29.64-74.66,29.68Q1250.21,1374.05,1224.93,1350.51Zm39.32-94.83c-7.29,4.21-11.67,11.19-13.11,21.34H1324c-.82-10.15-4.76-17.13-11.72-21.34a45.26,45.26,0,0,0-23.75-6.33A47.87,47.87,0,0,0,1264.25,1255.68Z"/><path class="cls-1" d="M1415.3,1231.25q25.59-23.74,66-23.75,36.39,0,66.64,24.39-2.16,3.38-12.49,17.42t-12.5,17.43a56.26,56.26,0,0,0-38.56-14.8q-18.2,0-29.76,10.79t-11.58,28.1q0,17.24,11.58,28.2t29.76,11a56.32,56.32,0,0,0,38.56-14.81q2.15,3.38,12.5,17.42t12.49,17.44q-29.89,24.07-66.64,24.06-40.4,0-66-23.75t-25.63-59.52Q1389.67,1255,1415.3,1231.25Z"/><path class="cls-1" d="M1711.93,1349.73q-26.37,24.38-63.69,24.37t-63.72-24.37q-26.36-24.37-26.39-58.9t26.39-58.94q26.37-24.41,63.72-24.39t63.69,24.39q26.41,24.36,26.39,58.94T1711.93,1349.73Zm-91.63-30.55q11,11.11,27.94,11.12t27.89-11.12q11-11.12,11-28.35t-11-28.56c-7.28-7.52-16.58-11.24-27.89-11.24s-20.63,3.72-27.94,11.24-10.94,17-10.94,28.56S1613,1311.77,1620.3,1319.18Z"/><path class="cls-1" d="M289,1317.54H217.81l-20.06-23.4v-49l20.06-18.77h30.6V1121.48l3.52-11.29c70.51-94.48,229.46-133.75,268.26-142.11l92-152.05,6.7-6.6c112.06-64.36,232.09-19.7,237.21-17.77l10.36,17.64v305.61H836V823.2c-30.38-8.42-116.06-25-192.43,16.59L549,994.66l-11.46,8.78c-1.79.33-177.65,34.2-248.55,124.46v117.23l-22.12,21.74H238.27V1277H289Z"/><polygon class="cls-1" points="1775.58 1192.88 1739.63 1155.43 1545.26 1155.43 1545.26 1125.05 1747.45 1125.05 1760.77 1128.38 1802.25 1168.04 1775.58 1192.88"/><path class="cls-2" d="M1329.17,1104c-114.41,0-320.29-44.59-330.21-46.76l-18.51-4-43.3-245.52,16-10.14c9.8-6.2,241.23-152.06,335.4-168.64s361.57,41.65,372.9,44.09L1680,677l15.12,85.66-55.7,9.83-8.52-48.26c-85.59-17.83-268.5-50.91-332.51-39.68S1073.8,789.28,999.44,835.27l30.09,170.59c85.6,17.77,268.47,50.65,332.44,39.39s224.58-104.72,298.92-150.72l-7-40,55.69-9.82,13.66,77.48-16,10.13c-9.81,6.2-241.24,152-335.38,168.62C1360,1103,1345.51,1104,1329.17,1104Z"/></svg>