<svg id="Layer_1" data-name="Layer 1" xmlns="http://www.w3.org/2000/svg" viewBox="0 0 500 500"><defs><style>.cls-1{fill:#cecece;}</style></defs><path class="cls-1" d="M450.31,381.25l-75-75A181.2,181.2,0,0,0,398.65,217c0-100.16-81.48-181.64-181.64-181.64S35.38,116.86,35.38,217,116.86,398.65,217,398.65a181.06,181.06,0,0,0,89.2-23.38l75,75a48.48,48.48,0,0,0,34.53,14.31h0a48.83,48.83,0,0,0,34.53-83.37ZM60.38,217c0-86.37,70.27-156.64,156.63-156.64S373.65,130.65,373.65,217A156.09,156.09,0,0,1,349,301.4q-2.28,3.56-4.76,7A158.83,158.83,0,0,1,301.39,349,156,156,0,0,1,217,373.65C130.65,373.65,60.38,303.38,60.38,217ZM432.64,432.64a23.85,23.85,0,0,1-33.72,0l-71.43-71.45,1-.77c1.05-.81,2.09-1.64,3.12-2.47l1.52-1.27c.93-.77,1.85-1.55,2.77-2.35.5-.43,1-.87,1.51-1.32.95-.84,1.89-1.69,2.82-2.56.42-.39.86-.78,1.28-1.18q2-1.89,4-3.84h0c1.3-1.29,2.57-2.61,3.83-3.95.4-.42.79-.85,1.18-1.28.86-.93,1.72-1.87,2.56-2.82.45-.5.88-1,1.32-1.51.8-.92,1.59-1.85,2.37-2.78l1.24-1.5c.86-1.05,1.7-2.11,2.53-3.18l.73-.92,71.44,71.44a23.85,23.85,0,0,1,0,33.72Z"/></svg>